<svg xmlns="http://www.w3.org/2000/svg" xmlns:xlink="http://www.w3.org/1999/xlink" viewBox="0 0 414.14 429.61"><defs><style>.cls-1{fill:url(#未命名的渐变_10);}.cls-2{fill:url(#未命名的渐变_10-2);}.cls-3{fill:#191743;}.cls-4{fill:#db76ff;}.cls-5{fill:#010035;}.cls-6{fill:#00f4b9;}.cls-7{fill:url(#未命名的渐变_10-3);}</style><linearGradient id="未命名的渐变_10" y1="207.07" x2="414.14" y2="207.07" gradientUnits="userSpaceOnUse"><stop offset="0" stop-color="#db76ff"/><stop offset="0.98" stop-color="#00f4b9"/></linearGradient><linearGradient id="未命名的渐变_10-2" x1="65.57" y1="65.57" x2="358.42" y2="358.42" xlink:href="#未命名的渐变_10"/><linearGradient id="未命名的渐变_10-3" x1="69.2" y1="361.67" x2="344.95" y2="361.67" xlink:href="#未命名的渐变_10"/></defs><g id="图层_2" data-name="图层 2"><g id="图层_1-2" data-name="图层 1"><circle class="cls-1" cx="207.07" cy="207.07" r="207.07"/><circle class="cls-2" cx="207.07" cy="207.07" r="207.07"/><circle class="cls-3" cx="207.07" cy="207.07" r="189.82"/><polygon class="cls-4" points="80.89 254.35 138.32 114.79 160.25 168.06 124.74 254.35 80.89 254.35"/><path class="cls-5" d="M138.32,120.48l19.58,47.58-23.59,57.32-11,26.8H84.13l33.94-82.47,20.25-49.23m0-11.39-24.26,59L77.65,256.52h48.54L138.32,227l24.27-59-24.27-59Z"/><polygon class="cls-4" points="151.91 254.35 144.71 236.86 166.64 183.58 195.76 254.35 151.91 254.35"/><path class="cls-5" d="M166.64,189.28l25.88,62.9H153.37l-6.31-15.32,3.36-8.18,16.22-39.4m0-11.39L146.41,227l-4,9.83,8.09,19.66H199l-32.36-78.63Z"/><polygon class="cls-4" points="218.38 254.35 275.82 114.79 297.74 168.06 262.23 254.35 218.38 254.35"/><path class="cls-5" d="M275.82,120.48l19.58,47.58-23.59,57.32-11,26.8H221.62l33.94-82.47,20.26-49.23m0-11.39-24.27,59-36.4,88.46h48.53L275.82,227l24.27-59-24.27-59Z"/><polygon class="cls-4" points="289.41 254.35 282.21 236.86 304.13 183.58 333.25 254.35 289.41 254.35"/><path class="cls-5" d="M304.13,189.28,330,252.18H290.86l-6.31-15.32,3.37-8.18,16.21-39.4m0-11.39L283.91,227l-4.05,9.83,8.1,19.66h48.53l-32.36-78.63Z"/><polygon class="cls-6" points="149.74 111.26 193.58 111.26 229.09 197.55 207.17 250.82 149.74 111.26"/><path class="cls-5" d="M192.13,113.42l11,26.81,23.59,57.32-19.58,47.58L186.91,195.9,153,113.42h39.16m2.91-4.33H146.5l36.4,88.46,24.27,59,24.27-59-24.27-59L195,109.09Z"/><polygon class="cls-6" points="213.56 128.75 220.76 111.26 264.61 111.26 235.49 182.02 213.56 128.75"/><path class="cls-5" d="M261.37,113.42l-25.89,62.91-16.21-39.4-3.36-8.18,6.3-15.33h39.16m6.47-4.33H219.31l-8.09,19.66,4,9.83,20.22,49.14,32.36-78.63Z"/><rect class="cls-7" x="69.2" y="293.72" width="275.75" height="135.89" rx="67.95"/><path class="cls-3" d="M197.16,333.56l-18.37,56.22h-18l12.38-38-19.58,38H140.77l4.55-37.09-12.14,37.09h-18l18.37-56.22h26.69q-.47,5.07-1.46,11.95L157,359.81l13.32-26.25Z"/><path class="cls-3" d="M254.48,333.56l-28.87,56.22H194.28l6.46-56.22h21.75q-3.8,23.22-7.43,39.3Q222,356.61,227.88,344l4.85-10.45Z"/><path class="cls-3" d="M258,333.56h20.77a63.49,63.49,0,0,1,12.65.93q4.23.94,5.93,2.71a5.92,5.92,0,0,1,1.68,4.29,29.22,29.22,0,0,1-1.73,7.8l-1.61,4.89q-1.75,5.38-4.13,7.85a15.38,15.38,0,0,1-7,3.79,42,42,0,0,1-11.38,1.32h-5.54l-7.4,22.64H239.59Zm17.48,9.61-4.67,14.31c.58,0,1.08,0,1.5,0a7.5,7.5,0,0,0,4.27-1q1.43-1,2.45-4.12l1.51-4.62c.62-1.92.61-3.17-.05-3.75S278.12,343.17,275.44,343.17Z"/></g></g></svg>