<svg xmlns="http://www.w3.org/2000/svg" xmlns:xlink="http://www.w3.org/1999/xlink" viewBox="0 0 458.58 413.15"><defs><style>.cls-1{fill:url(#未命名的渐变_44);}.cls-2{fill:url(#未命名的渐变_121);}.cls-3{fill:#fff;}.cls-4{fill:#030222;}.cls-5{fill:#00f4b9;}.cls-6{fill:#db76ff;}</style><linearGradient id="未命名的渐变_44" x1="16.41" y1="225.59" x2="458.58" y2="225.59" gradientUnits="userSpaceOnUse"><stop offset="0" stop-color="#de83ff"/><stop offset="1" stop-color="#00d1d4"/></linearGradient><radialGradient id="未命名的渐变_121" cx="209.89" cy="180.15" r="193.59" gradientUnits="userSpaceOnUse"><stop offset="0" stop-color="#f5e7ff"/><stop offset="1" stop-color="#6f00ff"/></radialGradient></defs><g id="图层_2" data-name="图层 2"><g id="图层_1-2" data-name="图层 1"><path class="cls-1" d="M458.24,154.42c0-.2,0-.4,0-.6.08-1,.13-2,.18-3.06,0-.31,0-.61,0-.92l0-.69c0-.33,0-.66,0-1,0-1.06,0-2.12,0-3.18,0-.53,0-1,0-1.58,0-1.07-.05-2.13-.1-3.2,0-.32,0-.65,0-1l0-.39c-.06-1.1-.14-2.19-.24-3.28,0-.32,0-.63-.07-.94-.14-1.4-.3-2.78-.48-4.16,0-.06,0-.11,0-.17-.16-1.15-.34-2.3-.53-3.43q-.22-1.29-.48-2.55c0-.27-.11-.53-.17-.8-.11-.55-.23-1.1-.35-1.64v0c-.27-1.18-.57-2.34-.88-3.5l-.21-.76c-.31-1.14-.64-2.26-1-3.37a.93.93,0,0,0,0-.13c0-.11-.08-.22-.11-.33-.33-1-.67-2-1-2.94-.07-.21-.15-.43-.23-.65-.4-1-.81-2.08-1.25-3.11l-.09-.23-.18-.4c-.41-1-.84-1.9-1.29-2.83-.06-.12-.11-.25-.17-.37-.49-1-1-2-1.52-3-.06-.11-.11-.22-.17-.32s-.13-.22-.19-.33c-.54-1-1.1-2-1.68-2.92l-.18-.29c-.54-.89-1.11-1.78-1.7-2.65l-.21-.34-.17-.23c-.51-.76-1-1.51-1.58-2.24L403.37,38c.54.74,1.07,1.49,1.58,2.24l.39.58c.58.87,1.15,1.75,1.7,2.65l.17.28c.58,1,1.14,1.94,1.68,2.92l.36.66c.52,1,1,2,1.52,3l.17.36c.45.93.88,1.88,1.29,2.84l.28.63c.43,1,.84,2.06,1.24,3.11l.24.65c.35,1,.7,1.94,1,2.94l.15.45c.36,1.11.69,2.24,1,3.37.07.25.14.51.2.77.32,1.15.61,2.32.88,3.5.13.55.24,1.12.36,1.68.06.27.12.53.17.8.17.85.33,1.69.48,2.55.2,1.19.39,2.4.55,3.6.19,1.38.35,2.77.48,4.16,0,.31,0,.63.07.94.1,1.09.18,2.19.24,3.29,0,.45,0,.91.06,1.37,0,1.06.08,2.13.1,3.2,0,.52,0,1,0,1.58,0,1,0,2.11,0,3.18,0,.56,0,1.11-.05,1.68,0,.3,0,.61,0,.91,0,1-.1,2-.17,3.06,0,.2,0,.4,0,.6-.09,1.19-.2,2.39-.32,3.58,0,.3-.07.59-.1.89q-.15,1.4-.33,2.79c-.05.39-.1.78-.16,1.17-.16,1.16-.33,2.32-.52,3.49a1.87,1.87,0,0,1,0,.25c-.21,1.26-.43,2.51-.68,3.77-.07.38-.14.76-.22,1.13-.17.85-.35,1.7-.53,2.56-.14.63-.28,1.26-.43,1.9s-.34,1.47-.52,2.21-.31,1.27-.48,1.91-.38,1.48-.58,2.22-.35,1.28-.53,1.92-.43,1.49-.65,2.23-.39,1.28-.58,1.93c-.28.9-.57,1.8-.87,2.71-.11.35-.22.69-.34,1-.42,1.29-.87,2.58-1.33,3.87-.08.23-.16.46-.25.69-.38,1.07-.78,2.14-1.19,3.22-.15.41-.32.83-.48,1.25-.36.93-.73,1.86-1.1,2.79-.17.4-.33.81-.49,1.21-.5,1.22-1,2.44-1.54,3.66,0,.08-.07.17-.11.25-.56,1.3-1.15,2.61-1.74,3.92l-.54,1.16c-.37.8-.76,1.61-1.14,2.42-.59,1.22-1.19,2.45-1.8,3.68l-.66,1.34q-1.26,2.49-2.59,5c-.17.33-.36.66-.53,1-.73,1.34-1.46,2.68-2.22,4-.31.56-.63,1.11-.94,1.66q-1,1.72-2,3.45l-1,1.68q-1.17,1.94-2.37,3.87c-.23.38-.46.76-.7,1.14q-1.56,2.48-3.18,4.95l-.83,1.24q-1.24,1.88-2.52,3.75l-1.16,1.68c-.79,1.14-1.6,2.28-2.41,3.42l-1.1,1.53q-2,2.84-4.17,5.65l-.78,1c-1.24,1.64-2.51,3.26-3.79,4.89l-1,1.27q-2.22,2.79-4.53,5.56l-.9,1.07q-2,2.4-4.08,4.78l-1.19,1.37-1.68,1.89-1.94,2.17-1.73,1.89c-.65.71-1.3,1.42-2,2.13s-1.18,1.26-1.77,1.89l-2,2.11c-.61.63-1.21,1.26-1.82,1.88l-1.76,1.8c-1.77,1.79-3.55,3.58-5.37,5.36l-.68.65c-1.65,1.61-3.32,3.2-5,4.79l-1.39,1.3c-1.55,1.45-3.13,2.89-4.72,4.33l-.39.35q-2.58,2.32-5.22,4.6l-1.63,1.41-3.43,2.92-1.81,1.5q-1.8,1.5-3.62,3l-1.58,1.28q-2.19,1.77-4.43,3.51l-.62.49c-1.71,1.32-3.42,2.64-5.15,3.94l-1.69,1.25c-1.13.85-2.27,1.69-3.41,2.53l-2,1.44-3.2,2.29L283,296.87c-1,.68-2,1.37-3,2l-2.23,1.52c-1,.68-2,1.35-3,2l-2.25,1.49-3.06,2-2.24,1.43-3.2,2-2.14,1.32-3.48,2.09-1.92,1.15L252,316.47l-1,.56c-1.85,1.05-3.7,2.08-5.57,3.1-.55.31-1.12.61-1.68.91-1.31.71-2.62,1.42-3.94,2.11q-2.42,1.28-4.84,2.52c-1.41.71-2.81,1.42-4.21,2.11l-1.41.69-2.65,1.29c-1.87.89-3.73,1.77-5.59,2.62l-1.19.54q-2.29,1.05-4.58,2.05l-1.46.64q-2.93,1.27-5.83,2.48l-.89.36c-1.72.71-3.43,1.4-5.15,2.07l-1.3.51c-2.13.82-4.26,1.62-6.37,2.4l-1.2.43c-2.18.78-4.36,1.55-6.52,2.28l-2.76.9-1.44.48-4.05,1.27-.64.19c-1.23.37-2.45.74-3.67,1.09l-1.49.42-2.65.75q-2.39.66-4.77,1.26l-1.37.34c-1.14.29-2.27.57-3.41.84l-1.64.38-3.23.73-1.53.33c-1.35.28-2.7.56-4,.82-.2,0-.4.09-.61.12-1.65.32-3.3.62-4.94.91l-1.37.22c-1.26.22-2.51.41-3.76.6L138,358c-1.61.24-3.22.46-4.82.66l-.68.08c-1.38.16-2.76.32-4.14.46l-1.39.14-3.79.33-1,.08c-1.55.11-3.09.21-4.62.29l-1.1.05c-1.21.05-2.41.1-3.6.13l-1.32,0c-1.4,0-2.8.05-4.19.05H107c-1.49,0-3,0-4.43-.07l-1.24,0L98,360,96.79,360c-1.43-.09-2.85-.19-4.26-.31l-.66-.07c-1.2-.11-2.4-.23-3.59-.36l-1.23-.15c-1.13-.14-2.24-.28-3.35-.44l-.84-.12c-1.35-.21-2.69-.43-4-.67l-1-.18c-1-.19-2.07-.4-3.09-.61l-1.13-.25c-1.24-.27-2.47-.55-3.69-.86l-.19,0c-1.27-.32-2.53-.67-3.77-1l-1-.31c-1-.28-1.91-.57-2.85-.88l-1-.31c-1.21-.4-2.4-.81-3.57-1.24l-.58-.22c-1-.38-2-.76-2.94-1.16l-1-.42c-.94-.4-1.86-.8-2.77-1.22l-.66-.29c-1.1-.52-2.19-1-3.26-1.59l-.8-.42c-.84-.44-1.66-.88-2.47-1.34l-.9-.5c-1-.58-2-1.17-3-1.79l-.08-.05c-1-.62-2-1.28-3-1.94l-.82-.57q-1.11-.78-2.19-1.59l-.73-.54c-.92-.7-1.82-1.42-2.71-2.16l-.46-.39c-.74-.63-1.46-1.26-2.18-1.91l-.75-.69c-.69-.65-1.38-1.31-2.05-2l-.46-.45c-.8-.81-1.58-1.64-2.35-2.49l-.58-.66c-.59-.66-1.16-1.34-1.73-2l-.63-.76c-.72-.89-1.42-1.8-2.11-2.73h0l38.81,52.87c.68.93,1.39,1.83,2.11,2.73l.63.76c.56.69,1.14,1.36,1.73,2l.58.66c.77.84,1.55,1.67,2.35,2.49l.46.45c.67.67,1.35,1.33,2,2l.75.69c.71.65,1.44,1.29,2.18,1.91l.46.4c.88.73,1.79,1.45,2.71,2.15l.73.55q1.08.81,2.19,1.59l.82.57c1,.66,2,1.31,3,1.94l.08.05c1,.61,2,1.2,3,1.78l.91.51c.81.45,1.63.9,2.46,1.33l.81.42c1.07.55,2.15,1.08,3.26,1.59l.66.3c.91.42,1.83.82,2.76,1.21l1,.42c1,.4,1.95.79,2.94,1.16l.58.22c1.17.44,2.36.85,3.57,1.25l1,.31,2.84.88,1,.3c1.25.36,2.5.7,3.78,1l.2.05c1.21.3,2.44.59,3.67.86l1.13.24c1,.22,2.06.42,3.1.62l1,.18q2,.36,4,.66l.84.12c1.11.16,2.22.31,3.35.45l1.22.14c1.2.14,2.4.26,3.61.37l.64.06c1.41.12,2.84.22,4.28.31l1.14.06c1.12.06,2.25.11,3.38.15l1.22,0c1.47,0,3,.07,4.44.07h.33c1.39,0,2.79,0,4.2,0l1.32,0c1.19,0,2.4-.07,3.6-.13l1.1-.05c1.53-.08,3.07-.17,4.62-.29l1-.08,3.8-.33,1.39-.14c1.38-.14,2.76-.29,4.15-.46l.67-.08c1.6-.2,3.2-.42,4.82-.65l1.31-.2,3.78-.6,1.35-.23q2.47-.42,5-.9l.08,0,.51-.1c1.35-.26,2.7-.54,4.06-.83.51-.1,1-.22,1.52-.33,1.08-.23,2.16-.47,3.24-.73l1.64-.38,3.41-.83,1.37-.34q2.37-.62,4.77-1.27l.09,0,2.56-.72,1.49-.42c1.22-.36,2.44-.72,3.67-1.1l.64-.19c1.35-.41,2.7-.83,4.05-1.27l1.44-.47,2.68-.88.07,0q3.25-1.1,6.53-2.28l1.19-.43q3.18-1.16,6.38-2.4l.49-.18.81-.33q2.56-1,5.15-2.06l.88-.36c1.94-.81,3.89-1.63,5.84-2.48l.59-.25.87-.39q2.28-1,4.58-2l1.19-.54c1.86-.86,3.72-1.73,5.58-2.63l.41-.19,2.25-1.1,1.41-.69q2.1-1,4.21-2.11c1.46-.74,2.92-1.5,4.37-2.26l.47-.25,4-2.12,1.66-.9c1.86-1,3.72-2.05,5.56-3.1l.06,0,.92-.53c1.5-.86,3-1.72,4.48-2.6l1.92-1.15c1.16-.69,2.32-1.38,3.47-2.08l.49-.29c.56-.34,1.1-.69,1.66-1,1.07-.66,2.14-1.32,3.2-2l2.24-1.43,3.06-2,.89-.58c.45-.29.9-.6,1.35-.9l3-2,2.23-1.52,3-2,1.26-.87.9-.65c1.08-.75,2.14-1.52,3.2-2.28l2-1.45c1.14-.83,2.28-1.68,3.41-2.52l1.38-1,.31-.24q2.6-1.95,5.14-3.93l.63-.5c1.49-1.16,3-2.33,4.43-3.51l.44-.34,1.13-.94q1.83-1.47,3.63-3l1.8-1.51c1.16-1,2.3-1.94,3.44-2.91.36-.32.73-.63,1.1-.94l.53-.47c1.76-1.52,3.5-3.06,5.22-4.6l.39-.36c1.59-1.43,3.16-2.88,4.72-4.33.21-.19.42-.37.62-.57l.76-.72c1.7-1.59,3.37-3.19,5-4.8l.67-.64q2.71-2.67,5.37-5.37c.19-.19.39-.38.58-.58l1.17-1.21,1.83-1.89c.67-.69,1.33-1.4,2-2.1l1.79-1.89,1.95-2.13c.59-.63,1.17-1.27,1.74-1.9l1.93-2.16c.56-.63,1.13-1.26,1.69-1.9l.52-.58.66-.78q2.08-2.39,4.09-4.79c.3-.36.61-.71.9-1.07,1.54-1.84,3.05-3.7,4.53-5.56l1-1.27c1.28-1.62,2.55-3.25,3.79-4.88l.78-1c1.42-1.87,2.8-3.76,4.17-5.64l.37-.51.73-1c.81-1.14,1.61-2.29,2.41-3.43l1.16-1.68q1.28-1.87,2.52-3.75l.83-1.23q1.62-2.48,3.18-5l.7-1.13q1.2-1.93,2.36-3.87c.34-.56.67-1.12,1-1.68.68-1.15,1.35-2.3,2-3.46l.94-1.65c.75-1.34,1.49-2.69,2.21-4l.54-1q1.32-2.49,2.58-5c.23-.45.45-.9.67-1.34q.91-1.85,1.8-3.69c.12-.26.25-.51.37-.77l.77-1.65c.17-.39.36-.77.53-1.16.6-1.3,1.18-2.61,1.75-3.91l.11-.26c.52-1.22,1-2.43,1.53-3.65l.5-1.22c.37-.93.74-1.86,1.1-2.79l.48-1.25c.41-1.07.81-2.15,1.19-3.22.08-.23.17-.46.25-.68.46-1.29.9-2.58,1.33-3.87.12-.35.23-.7.34-1.05.2-.62.41-1.24.61-1.85.09-.29.17-.57.25-.86.2-.64.39-1.28.59-1.92s.43-1.49.64-2.23.36-1.29.54-1.93.39-1.48.58-2.22l.48-1.91c.18-.74.35-1.47.52-2.21s.29-1.27.43-1.9c.06-.31.14-.62.21-.93.11-.54.21-1.08.32-1.62.07-.38.15-.76.22-1.13.24-1.26.47-2.52.68-3.77a2.34,2.34,0,0,1,0-.26c.19-1.16.36-2.33.52-3.49.06-.39.1-.78.15-1.16s.14-1,.19-1.45.1-.9.15-1.35c0-.29.07-.59.1-.88C458.05,156.8,458.16,155.61,458.24,154.42Z"/><path class="cls-2" d="M107.53,358.29c-27.86,0-52-6.4-69.94-18.52C19,327.16,7.49,309.06,3.5,286c-13.71-79.44,68-191.39,182.17-249.56C229.85,13.9,273.62,2,312.26,2c27.86,0,52,6.4,69.94,18.52,18.63,12.61,30.1,30.71,34.09,53.8,13.71,79.44-68,191.39-182.18,249.56C189.94,346.39,146.16,358.29,107.53,358.29Z"/><path class="cls-3" d="M312.27,4c27.45,0,51.25,6.28,68.81,18.18,18.16,12.29,29.35,30,33.24,52.48,3.27,19,1.1,40.2-6.45,63.05-7.38,22.28-19.52,45.13-36.11,67.91-34.24,47-83.45,88.4-138.56,116.48-43.89,22.37-87.35,34.19-125.67,34.19-27.46,0-51.26-6.28-68.82-18.17-18.17-12.3-29.35-30-33.24-52.49-3.28-19-1.11-40.2,6.45-63,7.37-22.28,19.52-45.13,36.1-67.91,34.25-47,83.46-88.4,138.56-116.48C230.48,15.82,273.93,4,312.26,4h0m0-4c-37.44,0-81.63,11.26-127.49,34.62C69.69,93.26-12.35,205.94,1.53,286.31c8.35,48.34,49.49,74,106,74C145,360.29,189.16,349,235,325.67,350.1,267,432.13,154.35,418.26,74c-8.35-48.34-49.49-74-106-74Z"/><path class="cls-4" d="M224.85,91.61l5.67,7.72.4,55-38.5-12.64L186.79,134l35.82,11.77,2.65.87,0-2.79-.38-52.21m-2-6.16.42,58.39-41.75-13.72,9.7,13.22,41.76,13.71-.43-58.39-9.7-13.21Z"/><polygon class="cls-5" points="222.81 85.45 223.24 143.84 181.48 130.12 181.38 115.78 222.81 85.45"/><path class="cls-4" d="M225.4,166l5.66,7.71.3,40.63-109-35.81-5.63-7.67,106.33,34.93,2.65.87,0-2.78L225.4,166m-2.05-6.16.33,44L111.41,167l9.7,13.22,112.27,36.88-.32-44.06-9.71-13.21Z"/><polygon class="cls-5" points="152.84 136.68 223.35 159.84 223.68 203.89 111.41 167.01 152.84 136.68"/><polygon class="cls-6" points="100.63 179.52 142.39 193.24 142.92 267.64 101.49 297.97 100.63 179.52"/><path class="cls-4" d="M144.43,199.41l5.66,7.71.53,72.73-39,28.54-7.33-10,39.81-29.15.83-.6v-1l-.49-68.22m-2-6.17.53,74.4L101.49,298l9.7,13.22,41.44-30.33-.54-74.4-9.7-13.22Z"/><path class="cls-4" d="M212.47,219.2l7.33,10-39,28.55-12-3.94-5.63-7.67,7.66,2.51,1,.32.83-.6,39.83-29.16m.43-2.8-41.44,30.34-13.59-4.46,9.7,13.22L181.16,260l41.44-30.34-9.7-13.22Z"/><polygon class="cls-6" points="157.54 198.22 212.9 216.4 171.46 246.74 157.87 242.28 157.54 198.22"/><path class="cls-4" d="M281.58,99l5.66,7.71.53,72.73-39,28.55-7.33-10,39.81-29.16.83-.6v-1L281.58,99m-2.05-6.17.54,74.4-41.43,30.34,9.7,13.21,41.43-30.33-.53-74.4-9.71-13.22Z"/><polygon class="cls-6" points="237.78 79.11 279.54 92.82 280.07 167.22 238.64 197.56 237.78 79.11"/><polygon class="cls-6" points="294.7 97.8 350.05 115.99 308.61 146.32 295.02 141.86 294.7 97.8"/><path class="cls-4" d="M349.62,118.78l7.33,10-39,28.55-12-3.94-5.63-7.67,7.66,2.51,1,.32.83-.6,39.82-29.16m.43-2.79-41.44,30.33L295,141.86l9.71,13.22,13.59,4.46,41.43-30.34L350.05,116Z"/></g></g></svg>