<svg xmlns="http://www.w3.org/2000/svg" xmlns:xlink="http://www.w3.org/1999/xlink" viewBox="0 0 621.66 658.72"><defs><style>.cls-1{fill:url(#未命名的渐变_142);}.cls-2{fill:url(#未命名的渐变_142-2);}.cls-3{fill:url(#未命名的渐变_121);}.cls-4{fill:url(#未命名的渐变_150);}</style><linearGradient id="未命名的渐变_142" x1="95.18" y1="232.75" x2="280.37" y2="615.21" gradientUnits="userSpaceOnUse"><stop offset="0" stop-color="#f552ff"/><stop offset="1" stop-color="#6f00ff" stop-opacity="0"/></linearGradient><linearGradient id="未命名的渐变_142-2" x1="138.63" y1="185.06" x2="621.66" y2="185.06" xlink:href="#未命名的渐变_142"/><radialGradient id="未命名的渐变_121" cx="217.51" cy="239.64" r="90.19" gradientUnits="userSpaceOnUse"><stop offset="0" stop-color="#f5e7ff"/><stop offset="1" stop-color="#6f00ff"/></radialGradient><linearGradient id="未命名的渐变_150" x1="188.01" y1="198.81" x2="416.36" y2="501.76" gradientUnits="userSpaceOnUse"><stop offset="0" stop-color="#f552ff"/><stop offset="0.69" stop-color="#6f00ff" stop-opacity="0"/></linearGradient></defs><g id="图层_2" data-name="图层 2"><g id="图层_1-2" data-name="图层 1"><path class="cls-1" d="M267.4,658.72l-11.95-1.08c6-66.51-3.7-137-29-209.59C206.22,389.81,176,330.14,136.6,270.69,78.87,183.53,18.13,122.34,1.82,106.52a6,6,0,0,1-.23-8.37h0a6,6,0,0,1,8.58-.24c16.77,16.28,78.2,78.23,136.44,166.16,39.93,60.28,70.61,120.85,91.21,180C263.65,518.29,273.6,590.5,267.4,658.72Z"/><path class="cls-2" d="M621.61,364.87a6,6,0,0,1-6.82,5.19c-65.08-9.15-130.27-33.47-193.85-72.36-52.3-32-103.64-73.82-152.59-124.37C197.14,99.81,151.53,28.7,139.52,9.14A6,6,0,0,1,141.63.81h0a6,6,0,0,1,8.11,2.05c11.68,19,56.8,89.45,127.43,162.33,48.24,49.78,98.76,90.94,150.17,122.36,62.15,38,125.76,61.73,189.19,70.64a6,6,0,0,1,5.08,6.68Z"/><path class="cls-3" d="M205.92,172.54c53.06-27,101.26-18.91,107.66,18.15s-31.43,89-84.49,116.06S127.83,325.66,121.43,288.6,152.86,199.58,205.92,172.54Z"/><path class="cls-4" d="M436.88,534.15,70.65,57.88a6,6,0,0,1,1.1-8.41h0a6,6,0,0,1,8.41,1.1L446.4,526.84Z"/></g></g></svg>