<svg xmlns="http://www.w3.org/2000/svg" viewBox="0 0 18 8" class="design-iconfont">
  <defs>
    <linearGradient x1="50%" y1="86.3940976%" x2="50%" y2="0%" id="k018vuzvm__ko42zq3z5a">
      <stop stop-color="#DB76FF" offset="0%"/>
      <stop stop-color="#00F4B9" offset="99.9344406%"/>
    </linearGradient>
  </defs>
  <path d="M7.0475598,-3.04759343 C7.0475598,-3.99435932 7.8150652,-4.76186473 8.7618311,-4.76186473 C9.70859699,-4.76186473 10.4761024,-3.99435932 10.4761024,-3.04759343 L10.4761024,6.66661062 L11.6189499,6.66661062 C11.8662281,6.66661062 12.1068359,6.74681323 12.3046585,6.89518012 C12.8096003,7.27388648 12.9119343,7.99022486 12.533228,8.49516667 L12.533228,8.49516667 L9.67610913,12.3046585 C9.61113339,12.3912928 9.53417394,12.4682522 9.44753962,12.533228 C8.94259781,12.9119343 8.22625943,12.8096003 7.84755307,12.3046585 L7.84755307,12.3046585 L4.99043423,8.49516667 C4.84206733,8.29734414 4.76186473,8.05673632 4.76186473,7.80945815 C4.76186473,7.17828089 5.273535,6.66661062 5.90471226,6.66661062 L5.90471226,6.66661062 L7.0475598,6.66661062 L7.0475598,-3.04759343 Z" fill="url(#k018vuzvm__ko42zq3z5a)" transform="scale(-1 1) rotate(90 0 -4.761865)" fill-rule="evenodd"/>
</svg>
