<svg xmlns="http://www.w3.org/2000/svg" viewBox="0 0 14 14" class="design-iconfont">
  <defs>
    <linearGradient x1="50%" y1="0%" x2="50%" y2="100%" id="olutmv2hz__8bx3xy2nha">
      <stop stop-color="#65D1AB" offset="0%"/>
      <stop stop-color="#9733C9" offset="100%"/>
    </linearGradient>
  </defs>
  <g fill="none" fill-rule="evenodd">
    <path fill="url(#olutmv2hz__8bx3xy2nha)" d="M7 0A7 7 0 1 0 7 14A7 7 0 1 0 7 0Z"/>
    <path d="M5.78472222,9.52777778 C5.38201459,9.52777778 5.05555556,9.20131874 5.05555556,8.79861111 C5.05555556,8.39590348 5.38201459,8.06944444 5.78472222,8.06944444 L7.97155556,8.06911111 L7.97222222,2.96527778 C7.97222222,2.56257015 8.29868126,2.23611111 8.70138889,2.23611111 C9.10409652,2.23611111 9.43055556,2.56257015 9.43055556,2.96527778 L9.43055556,8.06944444 L9.42755556,8.12611111 L9.42387972,8.20989168 C9.3576306,8.9031942 8.80597197,9.45485282 8.11266945,9.52110194 L7.97222222,9.52777778 L5.78472222,9.52777778 Z" fill="#FFF" transform="rotate(45 7.243056 5.881944)"/>
  </g>
</svg>
