<svg xmlns="http://www.w3.org/2000/svg" viewBox="0 0 32 32" class="design-iconfont">
  <path d="M26.5576106,9.145448 L26.5576106,26.2848507 C26.5576106,26.7397366 26.3769079,27.1759915 26.055255,27.4976444 C25.7336021,27.8192973 25.2973472,28 24.8424613,28 L7.71514933,28 C7.26026345,28 6.8240085,27.8192973 6.50235561,27.4976444 C6.18070271,27.1759915 6,26.7397366 6,26.2848507 L6,9.145448 L26.5576106,9.145448 Z M16.3383951,16.8575747 L11.1333573,16.8575747 C10.7007876,16.883085 10.355701,17.2281716 10.3301907,17.6607413 C10.3111693,18.1239813 10.6702031,18.515444 11.1333573,18.536452 L11.1333573,18.536452 L16.3392587,18.536452 C16.7718284,18.5109416 17.116915,18.165855 17.1424253,17.7332854 C17.1614386,17.2697231 16.8018919,16.8781222 16.3383951,16.8575747 L16.3383951,16.8575747 Z M20.4397265,13.4151853 L11.0849946,13.4151853 C10.6328952,13.4356248 10.2768714,13.8081082 10.2768714,14.2606693 C10.2768714,14.7132304 10.6328952,15.0857138 11.0849946,15.1061533 L11.0849946,15.1061533 L20.4397265,15.1061533 C20.8642861,15.0773801 21.2024296,14.7396053 21.231666,14.3150774 C21.2463301,14.0906437 21.1710587,13.8696032 21.0224717,13.7007618 C20.8738848,13.5319203 20.6642038,13.4291654 20.4397265,13.4151853 L20.4397265,13.4151853 Z M23.1273119,4 C23.5968122,4.00189316 23.9769481,4.38202908 23.9788413,4.85152934 L23.9788413,7.41820801 L25.6939906,7.41820801 C26.1634909,7.42010117 26.5436268,7.80023707 26.5455199,8.26973731 L26.5455199,9.12126665 L6,9.12126665 L6,5.71514933 C6,4.76775817 6.75566752,4 7.70305864,4 L23.1273119,4 Z M22.2757826,5.71514933 L8.56667863,5.71514933 C8.09717839,5.71704252 7.71704249,6.09717843 7.71514933,6.56667867 C7.71704249,7.03617892 8.09717839,7.41631483 8.56667863,7.41820801 L22.2757826,7.41820801 L22.2757826,5.71514933 Z" fill="#6A6991" fill-rule="nonzero"/>
</svg>
