<svg xmlns="http://www.w3.org/2000/svg" viewBox="0 0 20 20" class="design-iconfont">
  <g fill-rule="nonzero" fill="none">
    <path d="M11.6560885,3 C11.8956423,3 12.1289488,3.10530787 12.2876317,3.29759724 L13.0240014,4.18980615 C13.1494278,4.34177221 13.325461,4.44339629 13.5197831,4.47602132 L14.6606369,4.66762133 C15.0048454,4.72544404 15.2745349,4.99515094 15.3323356,5.33936313 L15.5239787,6.48021689 C15.5566025,6.67453758 15.6582457,6.85056209 15.8102369,6.97595553 L16.7024028,7.71232517 C16.9715989,7.93449137 17.0703238,8.30290644 16.9482902,8.62991128 L16.5437629,9.7137202 C16.474869,9.89832643 16.474869,10.1015874 16.5437629,10.2861936 L16.9482902,11.3700026 C17.0703238,11.6970074 16.9715989,12.0654225 16.7024028,12.2875887 L15.8102369,13.0239583 C15.6582508,13.1493809 15.5565979,13.325411 15.5239356,13.51974 L15.3323356,14.6605938 C15.2745349,15.004806 15.0048454,15.2745129 14.6606369,15.3323356 L13.5197831,15.5239356 C13.3254495,15.5565571 13.1494107,15.6581997 13.0240014,15.8101938 L12.2876317,16.7023597 C12.0654433,16.9715212 11.6970524,17.0702396 11.3700456,16.9482471 L10.2862367,16.5437199 C10.1016064,16.4748771 9.89835049,16.4748771 9.7137202,16.5437199 L8.62991128,16.9482471 C8.30290775,17.0703082 7.93447651,16.9715789 7.71232517,16.7023597 L6.97595553,15.8101938 C6.85054938,15.6582177 6.67453093,15.5565779 6.48021689,15.5239356 L5.33936313,15.3323356 C4.99515465,15.2745129 4.72546505,15.004806 4.66766442,14.6605938 L4.47606441,13.51974 C4.44341703,13.3254158 4.34177924,13.1493854 4.18980615,13.0239583 L3.29759724,12.2875887 C3.0284011,12.0654225 2.92967617,11.6970074 3.05170984,11.3700026 L3.45619397,10.2861936 C3.52508788,10.1015874 3.52508788,9.89832643 3.45619397,9.7137202 L3.05170984,8.62991128 C2.92967617,8.30290644 3.0284011,7.93449137 3.29759724,7.71232517 L4.18980615,6.97595553 C4.34177231,6.85054746 4.44339763,6.67452745 4.47602132,6.48021689 L4.66762133,5.33936313 C4.72544404,4.99515465 4.99515094,4.72546505 5.33936313,4.66766442 L6.48021689,4.47606441 C6.67452561,4.44340726 6.85053922,4.34177034 6.97595553,4.18980615 L7.71232517,3.29759724 C7.93449137,3.0284011 8.30290644,2.92967617 8.62991128,3.05170984 L9.7137202,3.45619397 C9.89833481,3.52504148 10.101579,3.52504148 10.2861936,3.45619397 L11.3700456,3.05170984 C11.4615386,3.01752486 11.5584177,3 11.6560885,3 L11.6560885,3 Z" fill="#6A6991"/>
    <path d="M7.86725965,12.8220615 C7.69581403,12.8222847 7.53135319,12.7541496 7.41029772,12.6327444 C7.15790445,12.3803942 7.15790445,11.9711707 7.41029772,11.7187775 L11.7619058,7.36716941 C12.014256,7.11477614 12.4234795,7.11477614 12.6758727,7.36716941 C12.928266,7.61956267 12.928266,8.02874309 12.6758727,8.28113636 L8.32426467,12.6327444 C8.20318784,12.7541441 8.03871642,12.8222771 7.86725965,12.8220615 L7.86725965,12.8220615 Z" fill="#030222"/>
    <path d="M11.3787058,12.1973251 C11.3787058,12.6732314 11.764504,13.0590297 12.2404103,13.0590297 C12.7163166,13.0590297 13.1021149,12.6732314 13.1021149,12.1973251 C13.1021149,11.8894677 12.937875,11.6049957 12.6712626,11.451067 C12.4046503,11.2971383 12.0761704,11.2971383 11.809558,11.451067 C11.5429457,11.6049957 11.3787058,11.8894677 11.3787058,12.1973251 L11.3787058,12.1973251 Z" fill="#030222"/>
    <path d="M7.0422637,7.83080955 C7.0422637,8.30671584 7.42806197,8.69251412 7.90396827,8.69251412 C8.37987456,8.69251412 8.76567283,8.30671584 8.76567283,7.83080955 C8.76567283,7.35490326 8.37987456,6.96910498 7.90396827,6.96910498 C7.42806197,6.96910498 7.0422637,7.35490326 7.0422637,7.83080955 L7.0422637,7.83080955 Z" fill="#030222"/>
  </g>
</svg>
