<svg xmlns="http://www.w3.org/2000/svg" viewBox="0 0 14 14" class="design-iconfont">
  <g fill="none" fill-rule="evenodd">
    <path fill="#FFF" transform="matrix(-1 0 0 1 14 0)" d="M7 0A7 7 0 1 0 7 14A7 7 0 1 0 7 0Z"/>
    <path d="M8.40710678,5.60710678 L10.1928932,7.39289322 C10.5834175,7.78341751 10.5834175,8.41658249 10.1928932,8.80710678 C10.0053568,8.99464316 9.75100293,9.1 9.48578644,9.1 L5.91421356,9.1 C5.36192881,9.1 4.91421356,8.65228475 4.91421356,8.1 C4.91421356,7.83478351 5.0195704,7.5804296 5.20710678,7.39289322 L6.99289322,5.60710678 C7.38341751,5.21658249 8.01658249,5.21658249 8.40710678,5.60710678 Z" fill="#161527" transform="matrix(1 0 0 -1 -.7 14.7)"/>
  </g>
</svg>
