<svg xmlns="http://www.w3.org/2000/svg" viewBox="0 0 40 40"><defs><style>.cls-1{fill:#c93d4b;}</style></defs><g id="图层_2" data-name="图层 2"><g id="图层_1-2" data-name="图层 1"><path class="cls-1" d="M20,0A20,20,0,1,0,40,20,20,20,0,0,0,20,0M4,20A16,16,0,0,1,20,4h.49a6.12,6.12,0,0,1,5.63,6.08,6,6,0,0,1-.83,3.07h0A6,6,0,0,1,21.63,16a5.81,5.81,0,0,1-1.62.22h0A5.83,5.83,0,0,1,18.37,16a6.13,6.13,0,0,1-3.65-2.82h0a9.82,9.82,0,0,0-4.56,1.11l0,0A9.87,9.87,0,0,0,5.31,20a9.71,9.71,0,0,0-.49,3.06,9.86,9.86,0,0,0,.92,4.17A16,16,0,0,1,4,20M31.3,31.3a16,16,0,0,1-22.6,0,16.07,16.07,0,0,1-2.8-3.76A6.2,6.2,0,0,1,5.33,25a6.11,6.11,0,0,1,6.11-6.11h0A6,6,0,0,1,15,20a5,5,0,0,1,.7.59,5.69,5.69,0,0,1,1,1.31,5.81,5.81,0,0,1,.63,1.52,6,6,0,0,1-.63,4.6,0,0,0,0,0,0,0,9.89,9.89,0,0,0,16.63.74A16.58,16.58,0,0,1,31.3,31.3m2.24-2.81A6.1,6.1,0,0,1,23.27,28h0A6.12,6.12,0,0,1,22.44,25a6.15,6.15,0,0,1,.83-3.07,5.86,5.86,0,0,1,1-1.3A5.61,5.61,0,0,1,25,20a6,6,0,0,1,3.56-1.15h0a9.8,9.8,0,0,0,1.32-4.53v0c0-.12,0-.25,0-.38A9.89,9.89,0,0,0,21,4.05,16,16,0,0,1,33.54,28.49"/></g></g></svg>