<svg xmlns="http://www.w3.org/2000/svg" xmlns:xlink="http://www.w3.org/1999/xlink" viewBox="0 0 1388.31 414.14"><defs><style>.cls-1{fill:url(#未命名的渐变_10);}.cls-2{fill:#191743;}.cls-3{fill:#db76ff;}.cls-4{fill:#010035;}.cls-5{fill:#00f4b9;}.cls-6{fill:#fff;}.cls-7{fill:url(#未命名的渐变_10-2);}</style><linearGradient id="未命名的渐变_10" x1="63.63" y1="63.63" x2="356.47" y2="356.47" gradientUnits="userSpaceOnUse"><stop offset="0" stop-color="#db76ff"/><stop offset="0.98" stop-color="#00f4b9"/></linearGradient><linearGradient id="未命名的渐变_10-2" x1="498.99" y1="311.85" x2="853.38" y2="311.85" xlink:href="#未命名的渐变_10"/></defs><g id="图层_2" data-name="图层 2"><g id="图层_1-2" data-name="图层 1"><circle class="cls-1" cx="207.07" cy="207.07" r="207.07"/><circle class="cls-2" cx="207.07" cy="207.07" r="189.82"/><polygon class="cls-3" points="80.89 278.62 138.32 139.05 160.25 192.33 124.74 278.62 80.89 278.62"/><path class="cls-4" d="M138.32,144.75l19.58,47.58-23.59,57.32-11,26.8H84.13L118.07,194l20.25-49.23m0-11.39-24.26,59L77.65,280.79h48.54l12.13-29.49,24.27-59-24.27-59Z"/><polygon class="cls-3" points="151.91 278.62 144.71 261.13 166.64 207.85 195.76 278.62 151.91 278.62"/><path class="cls-4" d="M166.64,213.55l25.88,62.9H153.37l-6.31-15.32,3.36-8.18,16.22-39.4m0-11.39L146.41,251.3l-4,9.83,8.09,19.66H199l-32.36-78.63Z"/><polygon class="cls-3" points="218.38 278.62 275.82 139.05 297.74 192.33 262.23 278.62 218.38 278.62"/><path class="cls-4" d="M275.82,144.75l19.58,47.58-23.59,57.32-11,26.8H221.62L255.56,194l20.26-49.23m0-11.39-24.27,59-36.4,88.46h48.53l12.14-29.49,24.27-59-24.27-59Z"/><polygon class="cls-3" points="289.41 278.62 282.21 261.13 304.13 207.85 333.25 278.62 289.41 278.62"/><path class="cls-4" d="M304.13,213.55,330,276.45H290.86l-6.31-15.32,3.37-8.18,16.21-39.4m0-11.39L283.91,251.3l-4.05,9.83,8.1,19.66h48.53l-32.36-78.63Z"/><polygon class="cls-5" points="149.74 135.52 193.58 135.52 229.09 221.82 207.17 275.09 149.74 135.52"/><path class="cls-4" d="M192.13,137.69l11,26.81,23.59,57.32-19.58,47.57-20.26-49.22L153,137.69h39.16m2.91-4.33H146.5l36.4,88.46,24.27,59,24.27-59-24.27-59L195,133.36Z"/><polygon class="cls-5" points="213.56 153.02 220.76 135.52 264.61 135.52 235.48 206.29 213.56 153.02"/><path class="cls-4" d="M261.37,137.69l-25.89,62.9L219.27,161.2,215.91,153l6.3-15.33h39.16m6.47-4.33H219.31L211.22,153l4,9.83L235.48,212l32.36-78.63Z"/><polygon class="cls-6" points="548.94 169.36 583.61 106.91 618.27 169.36 671.55 169.36 610.25 58.91 556.97 58.91 495.67 169.36 548.94 169.36"/><polygon class="cls-6" points="765.49 58.91 730.82 121.37 696.16 58.91 642.88 58.91 704.18 169.36 757.46 169.36 818.76 58.91 765.49 58.91"/><polygon class="cls-6" points="1119.77 58.91 1069.64 58.91 1069.64 132.98 1033.32 132.98 1015.21 100.35 1015.21 58.91 965.08 58.91 965.08 109.84 998.12 169.36 1000.24 169.36 1000.24 169.36 1053.51 169.36 1053.51 169.36 1119.77 169.36 1119.77 58.91"/><polygon class="cls-6" points="843.37 169.36 878.03 106.91 912.7 169.36 965.97 169.36 904.67 58.91 851.4 58.91 790.09 169.36 843.37 169.36"/><polygon class="cls-6" points="1267.39 132.98 1197.18 132.98 1197.18 58.91 1147.06 58.91 1147.06 169.36 1267.39 169.36 1267.39 132.98"/><polygon class="cls-6" points="1388.31 58.91 1344.63 58.91 1294.5 58.91 1250.82 58.91 1250.82 95.3 1294.5 95.3 1294.5 169.36 1344.63 169.36 1344.63 95.3 1388.31 95.3 1388.31 58.91"/><path class="cls-7" d="M507.15,231h268.2a78,78,0,0,1,78,78v5.71a78,78,0,0,1-78,78H577a78,78,0,0,1-78-78V239.13a8.16,8.16,0,0,1,8.16-8.16Z"/><path class="cls-2" d="M663,274.49l-24.42,74.72h-24l16.45-50.44-26,50.44h-17l6.05-49.29L578,349.21H554l24.41-74.72H613.9q-.63,6.75-1.94,15.89l-2.32,19,17.7-34.89Z"/><path class="cls-2" d="M739.19,274.49l-38.36,74.72H659.19l8.57-74.72h28.91q-5,30.88-9.87,52.25,9.18-21.6,17-38.35l6.44-13.9Z"/><path class="cls-2" d="M743.81,274.49h27.61q11.21,0,16.82,1.25c3.74.83,6.37,2,7.87,3.6a7.82,7.82,0,0,1,2.24,5.7q0,3.34-2.31,10.36l-2.12,6.51q-2.34,7.15-5.5,10.43t-9.29,5A55.86,55.86,0,0,1,764,319.12h-7.35l-9.84,30.09H719.4Zm23.24,12.79-6.21,19c.77,0,1.44,0,2,0a9.93,9.93,0,0,0,5.67-1.32c1.27-.87,2.35-2.7,3.25-5.47l2-6.13c.84-2.56.81-4.22-.06-5S770.61,287.28,767.05,287.28Z"/></g></g></svg>