<svg xmlns="http://www.w3.org/2000/svg" xmlns:xlink="http://www.w3.org/1999/xlink" viewBox="0 0 156 40" class="design-iconfont">
  <defs>
    <linearGradient x1="14.9310261%" y1="18.7474056%" x2="82.7886719%" y2="86.2387396%" id="fa3r8v87i__ngkocdx2cb">
      <stop stop-color="#A428D0" offset="0%"/>
      <stop stop-color="#20D4A9" offset="100%"/>
    </linearGradient>
    <path d="M20,0 C8.95416667,0 0,8.95416667 0,20 L0,20 C0,31.0458333 8.95416667,40 20,40 L20,40 C31.0458333,40 40,31.0458333 40,20 L40,20 C40,8.95416667 31.0458333,0 20,0 Z" id="fa3r8v87i__suaibrv3ya"/>
  </defs>
  <g fill="none" fill-rule="evenodd">
    <g>
      <mask id="fa3r8v87i__cph0qmn8lc" fill="#fff">
        <use xlink:href="#fa3r8v87i__suaibrv3ya"/>
      </mask>
      <path d="M20,0 C8.95416667,0 0,8.95416667 0,20 L0,20 C0,31.0458333 8.95416667,40 20,40 L20,40 C31.0458333,40 40,31.0458333 40,20 L40,20 C40,8.95416667 31.0458333,0 20,0 Z" fill="url(#fa3r8v87i__ngkocdx2cb)" mask="url(#fa3r8v87i__cph0qmn8lc)"/>
      <path d="M38,20 C38,29.9413182 29.9413182,38 20,38 C10.0586818,38 2,29.9413182 2,20 C2,10.0586818 10.0586818,2 20,2 C29.9413182,2 38,10.0586818 38,20" fill="#191743" mask="url(#fa3r8v87i__cph0qmn8lc)"/>
      <g mask="url(#fa3r8v87i__cph0qmn8lc)">
        <path fill="#CC64F2" d="M0.325173875 14.591571L6.09415016 0.571914287 8.29678716 5.92358987 4.72958122 14.591571z" transform="translate(7 13)"/>
        <path d="M6.09441016,0 L3.65690609,5.92367654 L0,14.8091913 L4.87544146,14.8091913 L6.09441016,11.8469197 L8.53191422,5.92367654 L6.09441016,0 Z M6.09441016,1.14443524 L8.0608801,5.92367654 L5.69140949,11.6813861 L4.58337431,14.3736906 L0.650434417,14.3736906 L4.05947343,6.08921015 L6.09441016,1.14443524 Z" fill="#010035" transform="translate(7 13)"/>
        <path fill="#CC64F2" d="M7.45928243 14.591571L6.73604789 12.8344014 8.93825156 7.48315914 11.8636898 14.591571z" transform="translate(7 13)"/>
        <path d="M8.93833823,6.91081152 L6.90686818,11.8469197 L6.50083417,12.8344881 L7.31333552,14.8091913 L12.188777,14.8091913 L8.93833823,6.91081152 Z M8.93833823,8.05524676 L11.5383426,14.3736906 L7.60540268,14.3736906 L6.97186829,12.8344881 L7.30986885,12.0128867 L8.93833823,8.05524676 Z" fill="#010035" transform="translate(7 13)"/>
        <path fill="#CC64F2" d="M14.1363969 14.591571L19.9053732 0.571914287 22.1080102 5.92358987 18.5408042 14.591571z" transform="translate(7 13)"/>
        <path d="M19.9055898,0 L17.4680858,5.92367654 L13.8111797,14.8091913 L18.6866211,14.8091913 L19.9055898,11.8469197 L22.3430939,5.92367654 L19.9055898,0 Z M19.9055898,1.14443524 L21.8720598,5.92367654 L19.5025892,11.6813861 L18.394554,14.3736906 L14.4616141,14.3736906 L17.8706531,6.08921015 L19.9055898,1.14443524 Z" fill="#010035" transform="translate(7 13)"/>
        <path fill="#CC64F2" d="M21.2705488 14.591571L20.5473142 12.8344014 22.7495179 7.48315914 25.6749561 14.591571z" transform="translate(7 13)"/>
        <path d="M22.7495612,6.91081152 L20.7180912,11.8469197 L20.3120572,12.8344881 L21.1245585,14.8091913 L26,14.8091913 L22.7495612,6.91081152 Z M22.7495612,8.05524676 L25.3495656,14.3736906 L21.4166257,14.3736906 L20.7830913,12.8344881 L21.1210919,12.0128867 L22.7495612,8.05524676 Z" fill="#010035" transform="translate(7 13)"/>
        <path fill="#20D4A9" d="M7.24070873 0.217923697L11.6451161 0.217923697 15.212322 8.88590481 13.009685 14.2375804z" transform="translate(7 13)"/>
        <path d="M11.7908897,0 L6.91544819,0 L10.5723543,8.88594814 L13.0098583,14.8091913 L15.4477957,8.88594814 L13.0098583,2.9622716 L11.7908897,0 Z M11.4992558,0.435500726 L12.607291,3.12823855 L14.9767616,8.88594814 L13.0098583,13.6647561 L10.9749216,8.7199812 L7.56588261,0.435500726 L11.4992558,0.435500726 Z" fill="#010035" transform="translate(7 13)"/>
        <path fill="#20D4A9" d="M13.6518861 1.97496329L14.3746873 0.217793696 18.779528 0.217793696 15.8540898 7.32663888z" transform="translate(7 13)"/>
        <path d="M19.1043985,0 L14.228957,0 L13.4164557,1.97513663 L13.8224897,2.9622716 L15.8539598,7.89837983 L19.1043985,0 Z M18.4539641,0.435500726 L15.8539598,6.75394459 L14.2254904,2.79673799 L13.8874898,1.97513663 L14.5210242,0.435500726 L18.4539641,0.435500726 Z" fill="#010035" transform="translate(7 13)"/>
      </g>
    </g>
    <g fill="#FFF">
      <path d="M6.44546882 13.3628119L10.6397214 5.80655938 14.8335564 13.3628119 21.2794428 13.3628119 13.862247 0 7.41677822 0 0 13.3628119z" transform="translate(48 13)"/>
      <path d="M32.6448067 0L28.4505541 7.55625257 24.2567191 0 17.8108327 0 25.2280285 13.3628119 31.6734973 13.3628119 39.0902755 0z" transform="translate(48 13)"/>
      <path d="M75.5094085 0L69.4443622 0 69.4443622 8.96101817 65.0496674 8.96101817 62.8585839 5.01356001 62.8585839 0 56.7935376 0 56.7935376 6.16192666 60.7902711 13.3628119 61.0470877 13.3628119 67.4929741 13.3628119 75.5094085 13.3628119z" transform="translate(48 13)"/>
      <path d="M42.0675936 13.3628119L46.2618462 5.80655938 50.4556812 13.3628119 56.9015676 13.3628119 49.4843718 0 43.038903 0 35.6221247 13.3628119z" transform="translate(48 13)"/>
      <path d="M93.3697671 8.96105993L84.8756122 8.96105993 84.8756122 0.0000417587873 78.8105659 0.0000417587873 78.8105659 13.3628537 93.3697671 13.3628537z" transform="translate(48 13)"/>
      <path d="M108 0L102.715008 0 96.6499616 0 91.3653871 0 91.3653871 4.40179377 96.6499616 4.40179377 96.6499616 13.3628119 102.715008 13.3628119 102.715008 4.40179377 108 4.40179377z" transform="translate(48 13)"/>
    </g>
  </g>
</svg>
