<svg xmlns="http://www.w3.org/2000/svg" xmlns:xlink="http://www.w3.org/1999/xlink" viewBox="0 0 40 40"><defs><style>.cls-1{fill:#150847;}.cls-2{fill-rule:evenodd;fill:url(#未命名的渐变_2);}</style><linearGradient id="未命名的渐变_2" x1="-1511.44" y1="2473.08" x2="-1511.44" y2="2472.99" gradientTransform="matrix(180, 0, 0, -180, 272078.38, 445166.47)" gradientUnits="userSpaceOnUse"><stop offset="0" stop-color="#ffcdec"/><stop offset="1" stop-color="#6c7dff"/></linearGradient></defs><g id="图层_2" data-name="图层 2"><g id="图层_1-2" data-name="图层 1"><g id="编组-3"><circle id="椭圆形备份-7" class="cls-1" cx="20" cy="20" r="20"/><g id="编组-2"><g id="编组"><path id="形状结合" class="cls-2" d="M24.73,16A4.27,4.27,0,0,1,29,20.28v4.45A4.27,4.27,0,0,1,24.73,29h-10a3.42,3.42,0,0,1-3.42-3.36v-.06H23.2a3.08,3.08,0,1,0,0-6.15H17.61a1.54,1.54,0,0,1-1.53-1.54V16Zm.47-5a3.41,3.41,0,0,1,3.41,3.36v.06H16.8a3.08,3.08,0,1,0,0,6.15h5.29a1.83,1.83,0,0,1,1.83,1.84V24H15.27A4.27,4.27,0,0,1,11,19.72V15.27A4.27,4.27,0,0,1,15.27,11Z"/></g></g></g></g></g></svg>