<svg xmlns="http://www.w3.org/2000/svg" viewBox="0 0 12 12" class="design-iconfont">
  <g fill="none" fill-rule="evenodd">
    <path fill="#E3A357" d="M6 0A6 6 0 1 0 6 12A6 6 0 1 0 6 0Z"/>
    <path d="M5.95833333,7 C6.31100527,7 6.60421994,6.72847408 6.63126865,6.37684095 L6.84316586,3.62217722 C6.88075659,3.13349771 6.51507688,2.70687138 6.02639737,2.66928065 C6.00375117,2.66753864 5.98104644,2.66666667 5.95833333,2.66666667 C5.46821016,2.66666667 5.07088682,3.06399 5.07088682,3.55411318 C5.07088682,3.57682628 5.0717588,3.59953101 5.07350081,3.62217722 L5.28539802,6.37684095 C5.31244672,6.72847408 5.6056614,7 5.95833333,7 Z M6,9.66666667 C6.55228475,9.66666667 7,9.21895142 7,8.66666667 C7,8.11438192 6.55228475,7.66666667 6,7.66666667 C5.44771525,7.66666667 5,8.11438192 5,8.66666667 C5,9.21895142 5.44771525,9.66666667 6,9.66666667 Z" fill="#010010"/>
  </g>
</svg>
