<svg xmlns="http://www.w3.org/2000/svg" viewBox="0 0 20 20" class="design-iconfont">
  <path d="M10,2 C5.58178571,2 2,5.58178571 2,10 C2,14.4182143 5.58178571,18 10,18 C14.4182143,18 18,14.4182143 18,10 C18,5.58178571 14.4182143,2 10,2 Z M9.42857143,6.54071429 C8.66107143,6.47642857 7.92910714,6.28910714 7.25446429,5.99125 C7.80089286,4.55321429 8.60821429,3.57678571 9.42857143,3.25875 L9.42857143,6.54071429 Z M9.42857143,7.68375 L9.42857143,9.42857143 L6.58732143,9.42857143 C6.62392857,8.58125 6.73946429,7.79571429 6.91571429,7.08607143 C7.69767857,7.41553571 8.5425,7.62053571 9.42857143,7.68375 Z M9.42857143,10.5714286 L9.42857143,12.31625 C8.5425,12.3794643 7.69767857,12.5844643 6.91571429,12.9139286 C6.73928571,12.2042857 6.62392857,11.41875 6.58732143,10.5714286 L9.42857143,10.5714286 Z M9.42857143,13.4592857 L9.42857143,16.74125 C8.60821429,16.4232143 7.80089286,15.4466071 7.25446429,14.00875 C7.92910714,13.7107143 8.66107143,13.5233929 9.42857143,13.4592857 Z M10.5714286,13.4592857 C11.3389286,13.5235714 12.0708929,13.7108929 12.7455357,14.00875 C12.1991071,15.4467857 11.3917857,16.4233929 10.5714286,16.74125 L10.5714286,13.4592857 Z M10.5714286,12.31625 L10.5714286,10.5714286 L13.4126786,10.5714286 C13.3760714,11.41875 13.2607143,12.2042857 13.0842857,12.9139286 C12.3023214,12.5842857 11.4575,12.3794643 10.5714286,12.31625 Z M10.5714286,9.42857143 L10.5714286,7.68375 C11.4575,7.62053571 12.3023214,7.41553571 13.0842857,7.08607143 C13.2607143,7.79571429 13.3760714,8.58125 13.4126786,9.42857143 L10.5714286,9.42857143 L10.5714286,9.42857143 Z M10.5714286,6.54071429 L10.5714286,3.25875 C11.3917857,3.57660714 12.1991071,4.55339286 12.7455357,5.99125 C12.0708929,6.28928571 11.3389286,6.47660714 10.5714286,6.54071429 Z M12.8742857,3.78267857 C13.4712753,4.05980294 14.0253333,4.42129674 14.5194643,4.85607143 C14.2791071,5.06803571 14.0196429,5.2575 13.7514286,5.43464286 C13.5042857,4.81446429 13.2092857,4.25785714 12.8742857,3.78267857 L12.8742857,3.78267857 Z M6.24875,5.43482143 C5.98053571,5.2575 5.72107143,5.06821429 5.48071429,4.85625 C5.97479997,4.42141566 6.52886693,4.05991599 7.12589286,3.78285714 C6.79071429,4.25785714 6.49571429,4.81446429 6.24875,5.43482143 L6.24875,5.43482143 Z M5.87839286,6.55714286 C5.63767857,7.43803571 5.48660714,8.40553571 5.44517857,9.42857143 L3.17196429,9.42857143 C3.28946429,8.01375 3.83482143,6.71928571 4.68303571,5.67785714 C5.05160714,6.0075 5.45339286,6.29946429 5.87839286,6.55714286 L5.87839286,6.55714286 Z M5.445,10.5714286 C5.48642857,11.5944643 5.6375,12.5619643 5.87821429,13.4428571 C5.45321429,13.7005357 5.05160714,13.9925 4.68267857,14.3221429 C3.83446429,13.2807143 3.28910714,11.98625 3.17160714,10.5714286 L5.445,10.5714286 Z M6.24875,14.5651786 C6.49571429,15.1855357 6.79071429,15.7423214 7.12589286,16.2173214 C6.52890326,15.9401971 5.9748453,15.5787033 5.48071429,15.1439286 C5.72107143,14.9317857 5.98053571,14.7423214 6.24875,14.5651786 L6.24875,14.5651786 Z M13.75125,14.5651786 C14.0194643,14.7425 14.2789286,14.9317857 14.5192857,15.14375 C14.0252,15.5785843 13.4711331,15.940084 12.8741071,16.2171429 C13.2092857,15.7421429 13.5042857,15.1855357 13.75125,14.5651786 L13.75125,14.5651786 Z M14.1216071,13.4428571 C14.3623214,12.5619643 14.5133929,11.5944643 14.5548214,10.5714286 L16.8280357,10.5714286 C16.7105357,11.98625 16.1651786,13.2807143 15.3169643,14.3221429 C14.9483929,13.9925 14.5466071,13.7005357 14.1216071,13.4428571 Z M14.555,9.42857143 C14.5135714,8.40553571 14.3625,7.43803571 14.1217857,6.55714286 C14.5467857,6.29946429 14.9483929,6.0075 15.3173214,5.67785714 C16.1655357,6.71928571 16.7108929,8.01375 16.8283929,9.42857143 L14.555,9.42857143 Z" fill="#6A698E" fill-rule="nonzero"/>
</svg>
