<svg xmlns="http://www.w3.org/2000/svg" viewBox="0 0 30 30" class="design-iconfont">
  <g fill="none" fill-rule="evenodd">
    <path d="M30,15 C30,23.2845 23.2845,30 15,30 C6.7155,30 0,23.2845 0,15 C0,6.7155 6.7155,0 15,0 C23.2845,0 30,6.7155 30,15" fill="#E9A2FF"/>
    <path d="M14.12325,18.60855 L8.11425,19.99905 C7.89525,20.05455 7.73025,20.27355 7.73025,20.49405 L7.73025,24.63105 C7.73025,24.97755 8.00475,25.19805 8.35125,25.12455 L16.73475,23.18355 C17.08125,23.11155 17.22825,22.78155 17.08125,22.47105 L15.56625,19.34055 C15.32925,18.84705 15.56625,18.33405 16.09575,18.22455 L21.57525,16.90605 C21.95775,16.81455 22.28775,16.41255 22.28775,16.00905 L22.28775,12.18405 C22.28775,11.83605 22.01325,11.59905 21.66675,11.69055 L13.75725,13.57455 C13.26525,13.68555 13.04625,14.16105 13.26525,14.61855 L14.65275,17.49255 C14.88975,17.98605 14.65275,18.48105 14.12325,18.60855" fill="#000"/>
    <path d="M10.16025,8.26725 L11.73075,11.48925 C11.93175,11.90925 11.73075,12.34875 11.27475,12.44025 L8.37075,13.11825 C8.00475,13.20975 7.71225,13.57575 7.71225,13.94175 L7.71225,17.40075 C7.71225,17.98575 8.18775,18.35175 8.75325,18.22425 L11.45625,17.60175 C11.82225,17.52825 12.11475,17.14425 12.11475,16.77825 L12.13275,13.22775 C12.13275,12.73275 12.53475,12.23925 13.00875,12.12975 L21.86775,10.00575 C22.08675,9.95175 22.25025,9.73125 22.25025,9.51225 L22.25025,5.37525 C22.25025,5.02725 21.97725,4.79025 21.62925,4.88175 L10.50675,7.55325 C10.16025,7.62675 10.01475,7.95675 10.16025,8.26725" fill="#000"/>
  </g>
</svg>
