<?xml version="1.0" encoding="UTF-8"?>
<svg width="480px" height="264px" viewBox="0 0 480 264" version="1.1" xmlns="http://www.w3.org/2000/svg" xmlns:xlink="http://www.w3.org/1999/xlink">
    <title>UI Element/Airdrop/主页卡片</title>
    <defs>
        <linearGradient x1="95.4850329%" y1="37.3042796%" x2="35.4531171%" y2="61.1548296%" id="linearGradient-1">
            <stop stop-color="#28A0F0" offset="0%"></stop>
            <stop stop-color="#2D374B" offset="100%"></stop>
        </linearGradient>
        <rect id="path-2" x="0" y="0" width="480" height="264" rx="20"></rect>
        <radialGradient cx="79.0773471%" cy="9.34517846%" fx="79.0773471%" fy="9.34517846%" r="97.6322004%" id="radialGradient-4">
            <stop stop-color="#59B6F5" offset="0%"></stop>
            <stop stop-color="#CA44B5" offset="34.2821241%"></stop>
            <stop stop-color="#707E40" offset="71.0609703%"></stop>
            <stop stop-color="#114263" offset="100%"></stop>
        </radialGradient>
        <filter x="-31.4%" y="-31.4%" width="162.8%" height="162.8%" filterUnits="objectBoundingBox" id="filter-5">
            <feGaussianBlur stdDeviation="43" in="SourceGraphic"></feGaussianBlur>
        </filter>
        <linearGradient x1="79.0773471%" y1="9.34517846%" x2="18.2360829%" y2="85.7021501%" id="linearGradient-6">
            <stop stop-color="#203552" offset="0%"></stop>
            <stop stop-color="#38B2C2" offset="100%"></stop>
        </linearGradient>
        <linearGradient x1="79.0773471%" y1="9.34517846%" x2="18.2360829%" y2="85.7021501%" id="linearGradient-7">
            <stop stop-color="#59B6F5" offset="0%"></stop>
            <stop stop-color="#114263" offset="100%"></stop>
        </linearGradient>
        <linearGradient x1="49.724104%" y1="60.00262%" x2="49.724104%" y2="0.275895979%" id="linearGradient-8">
            <stop stop-color="#FFFFFF" stop-opacity="0" offset="0%"></stop>
            <stop stop-color="#29D4EC" offset="100%"></stop>
        </linearGradient>
        <linearGradient x1="50%" y1="6.16297582e-31%" x2="50%" y2="87.967971%" id="linearGradient-9">
            <stop stop-color="#E9A2FF" offset="0%"></stop>
            <stop stop-color="#65D1AB" stop-opacity="0.00144777098" offset="100%"></stop>
        </linearGradient>
        <linearGradient x1="50%" y1="6.16297582e-31%" x2="50%" y2="87.8156922%" id="linearGradient-10">
            <stop stop-color="#3F9FB1" offset="0%"></stop>
            <stop stop-color="#65D1AB" stop-opacity="0" offset="100%"></stop>
        </linearGradient>
        <polygon id="path-11" points="0 0 44.5350111 0 44.5350111 50 0 50"></polygon>
        <linearGradient x1="79.0773471%" y1="48.5796202%" x2="18.2360829%" y2="51.2473456%" id="linearGradient-13">
            <stop stop-color="#FFFFFF" offset="0%"></stop>
            <stop stop-color="#28A0F0" offset="100%"></stop>
        </linearGradient>
        <polygon id="path-14" points="0 0 49.773648 0 49.773648 55.8814815 0 55.8814815"></polygon>
    </defs>
    <g id="UI-Element/Airdrop/主页卡片" stroke="none" stroke-width="1" fill="none" fill-rule="evenodd">
        <g id="椭圆形">
            <mask id="mask-3" fill="white">
                <use xlink:href="#path-2"></use>
            </mask>
            <use id="蒙版" fill="url(#linearGradient-1)" xlink:href="#path-2"></use>
            <circle fill="url(#radialGradient-4)" filter="url(#filter-5)" mask="url(#mask-3)" cx="331.573171" cy="82.5731707" r="205.5"></circle>
            <circle id="椭圆形备份" fill="url(#linearGradient-6)" opacity="0.376395089" mask="url(#mask-3)" cx="404.195122" cy="225.365854" r="131.707317"></circle>
            <circle fill="url(#linearGradient-7)" opacity="0.3" mask="url(#mask-3)" cx="379.02439" cy="35.1219512" r="158.04878"></circle>
            <path d="M-26.683532,146.628291 C95.2364475,146.628291 117.44307,256.896871 88.9042357,281.350991 C60.365401,305.80511 396.752685,113.100711 249.532502,154.895366 C102.312319,196.690022 307.26226,-0.495020018 430.878654,-0.495020018" id="路径" stroke="url(#linearGradient-8)" stroke-width="12" opacity="0.409179688" stroke-linecap="round" stroke-linejoin="round" mask="url(#mask-3)"></path>
        </g>
        <g id="编组" transform="translate(102.000000, 94.000000)">
            <polygon id="矩形" fill="url(#linearGradient-9)" opacity="0.567220052" points="0 32.8571429 60 32.8571429 40 167.142857 20 167.142857"></polygon>
            <g id="icon/coin/Lifi">
                <path d="M60,30 C60,46.569 46.569,60 30,60 C13.431,60 0,46.569 0,30 C0,13.431 13.431,0 30,0 C46.569,0 60,13.431 60,30" id="Fill-1" fill="#E9A2FF"></path>
                <path d="M28.2465,37.2171 L16.2285,39.9981 C15.7905,40.1091 15.4605,40.5471 15.4605,40.9881 L15.4605,49.2621 C15.4605,49.9551 16.0095,50.3961 16.7025,50.2491 L33.4695,46.3671 C34.1625,46.2231 34.4565,45.5631 34.1625,44.9421 L31.1325,38.6811 C30.6585,37.6941 31.1325,36.6681 32.1915,36.4491 L43.1505,33.8121 C43.9155,33.6291 44.5755,32.8251 44.5755,32.0181 L44.5755,24.3681 C44.5755,23.6721 44.0265,23.1981 43.3335,23.3811 L27.5145,27.1491 C26.5305,27.3711 26.0925,28.3221 26.5305,29.2371 L29.3055,34.9851 C29.7795,35.9721 29.3055,36.9621 28.2465,37.2171" id="Fill-3" fill="#000000"></path>
                <path d="M20.3205,16.5345 L23.4615,22.9785 C23.8635,23.8185 23.4615,24.6975 22.5495,24.8805 L16.7415,26.2365 C16.0095,26.4195 15.4245,27.1515 15.4245,27.8835 L15.4245,34.8015 C15.4245,35.9715 16.3755,36.7035 17.5065,36.4485 L22.9125,35.2035 C23.6445,35.0565 24.2295,34.2885 24.2295,33.5565 L24.2655,26.4555 C24.2655,25.4655 25.0695,24.4785 26.0175,24.2595 L43.7355,20.0115 C44.1735,19.9035 44.5005,19.4625 44.5005,19.0245 L44.5005,10.7505 C44.5005,10.0545 43.9545,9.5805 43.2585,9.7635 L21.0135,15.1065 C20.3205,15.2535 20.0295,15.9135 20.3205,16.5345" id="Fill-5" fill="#000000"></path>
            </g>
        </g>
        <g id="编组备份" transform="translate(30.000000, 94.000000)">
            <polygon id="矩形" fill="url(#linearGradient-10)" opacity="0.567220052" points="0 32.8571429 60 32.8571429 40 167.142857 20 167.142857"></polygon>
            <circle id="椭圆形" fill="#3F9FB1" cx="30" cy="30" r="30"></circle>
            <g id="icon/coin/Arbitrum" transform="translate(7.500000, 5.000000)">
                <path d="M29.3021847,43.0878269 L22.4052709,32.2624398 L26.6154525,25.1184133 L35.6733664,39.3953463 L29.3021847,43.0878269 Z M27.9016738,22.9098441 L31.5731499,16.6788988 L41.470629,32.0944032 L41.4755713,35.0529594 L41.4434466,14.6952021 C41.4199709,14.1972701 41.1555604,13.7419651 40.7342334,13.4732301 L22.9149407,3.22361542 C22.4979381,3.01912971 21.969117,3.02160084 21.55335,3.23041102 C21.4971319,3.25882898 21.4446205,3.28910027 21.3939624,3.32246048 L21.3315664,3.3619985 L4.03553479,13.3848873 L3.96819659,13.4157764 C3.88170717,13.4546966 3.79459996,13.5059725 3.71243501,13.564044 C3.38439298,13.7994187 3.16693385,14.1472298 3.09650675,14.53705 C3.08600446,14.596357 3.0779733,14.6562818 3.07426661,14.7174422 L3.101449,31.3067317 L12.3206039,17.0180609 C13.4814156,15.1233247 16.0099957,14.5129565 18.3581836,14.5463167 L21.1128717,14.6185972 L4.87880668,40.6543852 L6.79207632,41.7558898 L23.2213604,14.6451618 L30.4827654,14.6185972 L14.096726,42.4138272 L20.9250661,46.3416827 L21.7411556,46.8105789 C22.0864956,46.9508153 22.4929959,46.9576109 22.8408069,46.8322013 L40.9109189,36.3601852 L37.4556664,38.3624154 L27.9016738,22.9098441 Z" id="Fill-1" fill="#2D374B"></path>
                <polygon id="Fill-3" fill="#28A0F0" points="22.404962 32.2629958 29.3018758 43.0877652 35.6730575 39.3952845 26.6151436 25.1183516"></polygon>
                <path d="M41.4754477,35.0532065 L41.4711233,32.0946504 L31.5730263,16.6791459 L27.9015503,22.9100912 L37.4561606,38.3626625 L40.9107953,36.3610501 C41.2493397,36.0855195 41.4550609,35.6814904 41.4760655,35.2459543 L41.4754477,35.0532065 Z" id="Fill-5" fill="#28A0F0"></path>
                <path d="M0,37.8431082 L4.87862135,40.6540145 L21.1133042,14.6188443 L18.3579982,14.545946 C16.0104281,14.5132036 13.4812302,15.1235718 12.3204186,17.0176902 L3.10126367,31.3069788 L0,36.0719283 L0,37.8431082 Z" id="Fill-7" fill="#FFFFFF"></path>
                <polygon id="Fill-9" fill="#FFFFFF" points="30.4829507 14.6188443 23.2209279 14.6454089 6.79226165 41.7561369 12.5345417 45.0618863 14.0962936 42.4134565"></polygon>
                <g id="编组" transform="translate(0.000247, 0.000000)">
                    <mask id="mask-12" fill="white">
                        <use xlink:href="#path-11"></use>
                    </mask>
                    <g id="Clip-12"></g>
                    <path d="M44.5352582,14.5813449 C44.4747156,13.0628377 43.6524483,11.6728291 42.3643737,10.8635352 L24.3115596,0.481715319 C23.0376939,-0.16015977 21.4462885,-0.160777552 20.1693339,0.481097538 C20.0185952,0.557084675 2.61383398,10.6516361 2.61383398,10.6516361 C2.37289915,10.7671613 2.14061327,10.9043088 1.92253636,11.0606076 C0.77284479,11.8847282 0.072280448,13.1653895 0,14.5720782 L0,36.0727315 L3.10126367,31.3071641 L3.07408127,14.7172569 C3.07778796,14.6567143 3.08581913,14.5967895 3.09632141,14.5381002 C3.16613073,14.1476622 3.38420764,13.7998512 3.71224967,13.5644764 C3.79441463,13.5057872 21.4963288,3.25864364 21.5525469,3.23022569 C21.9689317,3.0214155 22.4977528,3.01894438 22.9141376,3.22404787 L40.7334302,13.4736625 C41.1547573,13.7417797 41.4191678,14.1970848 41.4426435,14.6950167 L41.4426435,35.2455219 C41.4210212,35.6810579 41.2486601,36.0850871 40.9101158,36.3599999 L37.455481,38.3622301 L35.6725633,39.3951609 L29.3013816,43.0876416 L22.8406216,46.8320159 C22.4921927,46.9574256 22.0850747,46.95063 21.7403525,46.8103936 L14.0959229,42.4136419 L12.534171,45.0620716 L19.4045203,49.0171095 C19.6312461,49.1462258 19.8338785,49.2611332 20.0000617,49.3544182 C20.2570589,49.4983613 20.4325089,49.5947353 20.494287,49.6250066 C20.9829523,49.8622347 21.68537,50 22.3179783,50 C22.898693,50 23.464581,49.8937416 24.0001976,49.6836958 L42.7671673,38.8156818 C43.8445784,37.9810588 44.4784223,36.7220199 44.5352582,35.3591937 L44.5352582,14.5813449 Z" id="Fill-11" fill="#96BEDC" mask="url(#mask-12)"></path>
                </g>
            </g>
        </g>
        <text id="Arbitrum" fill="url(#linearGradient-13)" fill-rule="nonzero" font-family="Poppins" font-size="40" font-weight="bold" line-spacing="40">
            <tspan x="30" y="75">ARBITRUM</tspan>
        </text>
        <g id="生态" transform="translate(354.000000, 138.000000)">
            <polygon id="多边形" fill="#96BEDC" points="48 0 81.9411255 14.0588745 96 48 81.9411255 81.9411255 48 96 14.0588745 81.9411255 0 48 14.0588745 14.0588745"></polygon>
            <polygon id="多边形" fill="#1A1933" points="47.5259259 4.85925926 77.6958153 17.3560366 90.1925926 47.5259259 77.6958153 77.6958153 47.5259259 90.1925926 17.3560366 77.6958153 4.85925926 47.5259259 17.3560366 17.3560366"></polygon>
            <g id="icon/coin/Arbitrum" transform="translate(23.081481, 20.651852)">
                <path d="M32.7489899,48.1562321 L25.0407946,36.0574587 L29.7462183,28.073083 L39.8696113,44.0294063 L32.7489899,48.1562321 Z M31.1837374,25.6047206 L35.2870878,18.6408315 L46.3488038,35.869656 L46.3543274,39.176226 L46.3184239,16.4237933 C46.2921868,15.8672897 45.9966737,15.3584273 45.5257861,15.0580811 L25.6104167,3.60280811 C25.1443622,3.37426882 24.5533362,3.37703063 24.0886626,3.61040307 C24.0258316,3.64216382 23.9671432,3.67599592 23.9105262,3.71328028 L23.8407907,3.75746914 L4.51023325,14.9593466 L4.43497409,14.9938692 C4.33831095,15.0373676 4.24095735,15.094675 4.14912736,15.1595774 C3.78249787,15.4226393 3.53945911,15.8113632 3.46074769,16.2470378 C3.44901002,16.3133211 3.44003416,16.3802948 3.43589145,16.4486495 L3.4662713,34.989331 L13.769872,19.0198891 C15.0672295,16.9022758 17.8932455,16.2201102 20.5176499,16.2573946 L23.596371,16.3381773 L5.45269891,45.4365455 L7.59102574,46.6676196 L25.9528804,16.3678667 L34.0684418,16.3381773 L15.7549187,47.40295 L23.3864739,51.7928376 L24.2985597,52.31689 C24.6845218,52.4736223 25.1388386,52.4812173 25.5275626,52.3410557 L45.7232551,40.6372204 L41.8615625,42.8749721 L31.1837374,25.6047206 Z" id="Fill-1" fill="#2D374B"></path>
                <polygon id="Fill-3" fill="#28A0F0" points="25.0404494 36.0580801 32.7486446 48.156163 39.8692661 44.0293372 29.7458731 28.073014"></polygon>
                <path d="M46.3541893,39.1765022 L46.3493561,35.8699322 L35.2869497,18.6411077 L31.1835993,25.6049968 L41.8621149,42.8752483 L45.723117,40.638187 C46.1014842,40.3302458 46.3314044,39.8786909 46.3548797,39.3919229 L46.3541893,39.1765022 Z" id="Fill-5" fill="#28A0F0"></path>
                <path d="M0,42.294579 L5.45249177,45.4361312 L23.5968543,16.3384535 L20.5174428,16.2569803 C17.8937288,16.2203864 15.0670223,16.902552 13.7696649,19.0194749 L3.46606416,34.9896071 L0,40.3150559 L0,42.294579 Z" id="Fill-7" fill="#FFFFFF"></path>
                <polygon id="Fill-9" fill="#FFFFFF" points="34.0686489 16.3384535 25.9523971 16.3681429 7.59123287 46.6678958 14.0089752 50.3624993 15.7544354 47.4025357"></polygon>
                <g id="编组" transform="translate(0.000276, -0.000000)">
                    <mask id="mask-15" fill="white">
                        <use xlink:href="#path-14"></use>
                    </mask>
                    <g id="Clip-12"></g>
                    <path d="M49.7739242,16.2965431 C49.70626,14.5994145 48.7872697,13.0458997 47.3476793,12.1414088 L27.1713193,0.538379314 C25.7476093,-0.178999304 23.9690074,-0.179689755 22.5418452,0.537688863 C22.3733751,0.622614339 2.9212983,11.9045841 2.9212983,11.9045841 C2.6520224,12.0336985 2.39241281,12.1869786 2.1486836,12.3616627 C0.863754236,13.2827244 0.0807827703,14.7140294 0,16.2861864 L0,40.3159535 L3.46606416,34.9898143 L3.43568432,16.4484424 C3.43982702,16.3807782 3.44880289,16.3138044 3.46054055,16.2482116 C3.53856152,15.8118465 3.78229073,15.4231226 4.14892023,15.1600607 C4.24075022,15.0944679 24.024934,3.64195669 24.087765,3.61019594 C24.553129,3.37682349 25.1441551,3.37406169 25.6095191,3.60329143 L45.5248885,15.0585644 C45.9957761,15.3582202 46.2912892,15.8670826 46.3175263,16.4235861 L46.3175263,39.3914396 C46.2933605,39.8782075 46.1007247,40.3297625 45.7223575,40.6370132 L41.8613554,42.874765 L39.8687137,44.0291991 L32.7480923,48.1560249 L25.5273554,52.3408486 C25.137941,52.4810102 24.6829338,52.4734152 24.2976621,52.3166828 L15.7540211,47.4027429 L14.0085609,50.3627064 L21.6870668,54.7829739 C21.9404623,54.9272782 22.1669303,55.0557021 22.3526616,55.1599602 C22.6398892,55.3208352 22.8359773,55.4285456 22.9050224,55.4623777 C23.4511692,55.7275109 24.236212,55.8814815 24.9432338,55.8814815 C25.5922578,55.8814815 26.224711,55.7627239 26.823332,55.5279706 L47.7978533,43.3815561 C49.0019999,42.4487567 49.7104027,41.0416175 49.7739242,39.5184826 L49.7739242,16.2965431 Z" id="Fill-11" fill="#96BEDC" mask="url(#mask-15)"></path>
                </g>
            </g>
        </g>
    </g>
</svg>