<svg xmlns="http://www.w3.org/2000/svg" xmlns:xlink="http://www.w3.org/1999/xlink" viewBox="0 0 69 69" class="design-iconfont">
  <defs>
    <linearGradient x1="50%" y1="0%" x2="50%" y2="100%" id="jx6rfvrvo__qjmjztng1b">
      <stop stop-color="#9733C9" offset="0%"/>
      <stop stop-color="#65D1AB" stop-opacity="0" offset="100%"/>
    </linearGradient>
    <linearGradient x1="50%" y1="0%" x2="50%" y2="100%" id="jx6rfvrvo__7g6m8h086c">
      <stop stop-color="#9733C9" offset="0%"/>
      <stop stop-color="#65D1AB" offset="100%"/>
    </linearGradient>
    <linearGradient x1="50%" y1="0%" x2="50%" y2="100%" id="jx6rfvrvo__ebzybq1e0e">
      <stop stop-color="#65D1AB" offset="0%"/>
      <stop stop-color="#9733C9" offset="100%"/>
    </linearGradient>
    <linearGradient x1="50%" y1="0%" x2="50%" y2="100%" id="jx6rfvrvo__dpigh3l84g">
      <stop stop-color="#9733C9" offset="0%"/>
      <stop stop-color="#65D1AB" stop-opacity="0" offset="100%"/>
    </linearGradient>
    <linearGradient x1="50%" y1="0%" x2="50%" y2="100%" id="jx6rfvrvo__w4gbev1byh">
      <stop stop-color="#6AEA90" offset="0%"/>
      <stop stop-color="#65D1AB" stop-opacity="0" offset="100%"/>
    </linearGradient>
    <linearGradient x1="50%" y1="0%" x2="50%" y2="100%" id="jx6rfvrvo__fnqo9pumik">
      <stop stop-color="#6AEA90" offset="0%"/>
      <stop stop-color="#65D1AB" stop-opacity="0" offset="100%"/>
    </linearGradient>
    <linearGradient x1="50%" y1="0%" x2="50%" y2="100%" id="jx6rfvrvo__txspqy1ian">
      <stop stop-color="#E76AEA" offset="0%"/>
      <stop stop-color="#65D1AB" stop-opacity="0" offset="100%"/>
    </linearGradient>
    <linearGradient x1="50%" y1="0%" x2="50%" y2="100%" id="jx6rfvrvo__ywwtnydjju">
      <stop stop-color="#6A70EA" offset="0%"/>
      <stop stop-color="#65D1AB" stop-opacity="0" offset="100%"/>
    </linearGradient>
    <linearGradient x1="50%" y1="0%" x2="50%" y2="100%" id="jx6rfvrvo__uzd4ck2knx">
      <stop stop-color="#EAD66A" offset="0%"/>
      <stop stop-color="#65D1AB" stop-opacity="0" offset="100%"/>
    </linearGradient>
    <path id="jx6rfvrvo__l26hh5co5a" d="M0 0H12.5652174V27.7037037H0z"/>
    <path id="jx6rfvrvo__g6f768za7f" d="M0 0H12.5925926V27.7037037H0z"/>
    <path id="jx6rfvrvo__84emcdfq6j" d="M0 0H12.5652174V27.7037037H0z"/>
    <path id="jx6rfvrvo__lx1t81d1pm" d="M0 0H12.5925926V27.7037037H0z"/>
    <path id="jx6rfvrvo__gewjvk6h9p" d="M0 0H12.5652174V27.7037037H0z"/>
    <path id="jx6rfvrvo__tznts6qb1r" d="M0 0H12.5925926V27.7037037H0z"/>
    <path id="jx6rfvrvo__pp37v6tsat" d="M0 0H12.5652174V27.7037037H0z"/>
    <path id="jx6rfvrvo__1j3rbbx7lw" d="M0 0H12.5925926V27.7037037H0z"/>
  </defs>
  <g fill="none" fill-rule="evenodd">
    <g transform="translate(28.324067 6.91168)">
      <mask id="jx6rfvrvo__70x18pnl8d" fill="#fff">
        <use xlink:href="#jx6rfvrvo__l26hh5co5a"/>
      </mask>
      <use fill="url(#jx6rfvrvo__qjmjztng1b)" xlink:href="#jx6rfvrvo__l26hh5co5a"/>
      <path fill="url(#jx6rfvrvo__7g6m8h086c)" mask="url(#jx6rfvrvo__70x18pnl8d)" d="M0 0L12.5652174 0 8.37681159 27.7037037 4.1884058 27.7037037z"/>
    </g>
    <path fill="url(#jx6rfvrvo__ebzybq1e0e)" d="M6.2826087 0A6.2826087 6.2962963 0 1 0 6.2826087 12.5925926A6.2826087 6.2962963 0 1 0 6.2826087 0Z" transform="translate(28.324067 .615384)"/>
    <g transform="rotate(-135 22.06772438 25.2197327)">
      <mask id="jx6rfvrvo__hp3n9hdmmi" fill="#fff">
        <use xlink:href="#jx6rfvrvo__g6f768za7f"/>
      </mask>
      <use fill="url(#jx6rfvrvo__dpigh3l84g)" xlink:href="#jx6rfvrvo__g6f768za7f"/>
      <path fill="url(#jx6rfvrvo__w4gbev1byh)" mask="url(#jx6rfvrvo__hp3n9hdmmi)" d="M0 0L12.5925926 0 8.39506173 27.7037037 4.19753086 27.7037037z"/>
    </g>
    <path fill="#6AEA90" d="M6.2962963 0A6.2962963 6.2962963 0 1 0 6.2962963 12.5925926A6.2962963 6.2962963 0 1 0 6.2962963 0Z" transform="rotate(-135 20.76371878 28.3678807)"/>
    <g transform="rotate(-180 20.4446425 31.159544)">
      <mask id="jx6rfvrvo__t0v8tz3otl" fill="#fff">
        <use xlink:href="#jx6rfvrvo__84emcdfq6j"/>
      </mask>
      <use fill="url(#jx6rfvrvo__qjmjztng1b)" xlink:href="#jx6rfvrvo__84emcdfq6j"/>
      <path fill="url(#jx6rfvrvo__fnqo9pumik)" mask="url(#jx6rfvrvo__t0v8tz3otl)" d="M0 0L12.5652174 0 8.37681159 27.7037037 4.1884058 27.7037037z"/>
    </g>
    <path fill="#6AEA90" d="M6.2826087 0A6.2826087 6.2962963 0 1 0 6.2826087 12.5925926A6.2826087 6.2962963 0 1 0 6.2826087 0Z" transform="rotate(-180 20.4446425 34.307692)"/>
    <g transform="rotate(135 19.20481262 37.0993549)">
      <mask id="jx6rfvrvo__1vejdlvldo" fill="#fff">
        <use xlink:href="#jx6rfvrvo__lx1t81d1pm"/>
      </mask>
      <use fill="url(#jx6rfvrvo__dpigh3l84g)" xlink:href="#jx6rfvrvo__lx1t81d1pm"/>
      <path fill="url(#jx6rfvrvo__txspqy1ian)" mask="url(#jx6rfvrvo__1vejdlvldo)" d="M0 0L12.5925926 0 8.39506173 27.7037037 4.19753086 27.7037037z"/>
    </g>
    <path fill="#E76AEA" d="M6.2962963 0A6.2962963 6.2962963 0 1 0 6.2962963 12.5925926A6.2962963 6.2962963 0 1 0 6.2962963 0Z" transform="rotate(135 20.50881822 40.2475029)"/>
    <g>
      <g transform="rotate(-90 23.9004825 16.9975105)">
        <mask id="jx6rfvrvo__o94sumhqtq" fill="#fff">
          <use xlink:href="#jx6rfvrvo__gewjvk6h9p"/>
        </mask>
        <use fill="url(#jx6rfvrvo__qjmjztng1b)" xlink:href="#jx6rfvrvo__gewjvk6h9p"/>
        <path fill="url(#jx6rfvrvo__fnqo9pumik)" mask="url(#jx6rfvrvo__o94sumhqtq)" d="M0 0L12.5652174 0 8.37681159 27.7037037 4.1884058 27.7037037z"/>
      </g>
      <path fill="#6AEA90" d="M6.2826087 0A6.2826087 6.2962963 0 1 0 6.2826087 12.5925926A6.2826087 6.2962963 0 1 0 6.2826087 0Z" transform="rotate(-90 20.7523345 20.1456585)"/>
    </g>
    <g>
      <g transform="rotate(-45 28.97940478 -3.4602123)">
        <mask id="jx6rfvrvo__asfzub49as" fill="#fff">
          <use xlink:href="#jx6rfvrvo__tznts6qb1r"/>
        </mask>
        <use fill="url(#jx6rfvrvo__dpigh3l84g)" xlink:href="#jx6rfvrvo__tznts6qb1r"/>
        <path fill="url(#jx6rfvrvo__w4gbev1byh)" mask="url(#jx6rfvrvo__asfzub49as)" d="M0 0L12.5925926 0 8.39506173 27.7037037 4.19753086 27.7037037z"/>
      </g>
      <path fill="#6AEA90" d="M6.2962963 0A6.2962963 6.2962963 0 1 0 6.2962963 12.5925926A6.2962963 6.2962963 0 1 0 6.2962963 0Z" transform="rotate(-45 21.37910318 -.3120643)"/>
    </g>
    <g>
      <g transform="rotate(90 16.9888025 45.3215775)">
        <mask id="jx6rfvrvo__5jxv53a3cv" fill="#fff">
          <use xlink:href="#jx6rfvrvo__pp37v6tsat"/>
        </mask>
        <use fill="url(#jx6rfvrvo__qjmjztng1b)" xlink:href="#jx6rfvrvo__pp37v6tsat"/>
        <path fill="url(#jx6rfvrvo__ywwtnydjju)" mask="url(#jx6rfvrvo__5jxv53a3cv)" d="M0 0L12.5652174 0 8.37681159 27.7037037 4.1884058 27.7037037z"/>
      </g>
      <path fill="#6A70EA" d="M6.2826087 0A6.2826087 6.2962963 0 1 0 6.2826087 12.5925926A6.2826087 6.2962963 0 1 0 6.2826087 0Z" transform="rotate(90 20.1369505 48.4697255)"/>
    </g>
    <g>
      <g transform="rotate(45 12.29313222 65.7792999)">
        <mask id="jx6rfvrvo__yqo4yt4w4y" fill="#fff">
          <use xlink:href="#jx6rfvrvo__1j3rbbx7lw"/>
        </mask>
        <use fill="url(#jx6rfvrvo__dpigh3l84g)" xlink:href="#jx6rfvrvo__1j3rbbx7lw"/>
        <path fill="url(#jx6rfvrvo__uzd4ck2knx)" mask="url(#jx6rfvrvo__yqo4yt4w4y)" d="M0 0L12.5925926 0 8.39506173 27.7037037 4.19753086 27.7037037z"/>
      </g>
      <path fill="#EAD66A" d="M6.2962963 0A6.2962963 6.2962963 0 1 0 6.2962963 12.5925926A6.2962963 6.2962963 0 1 0 6.2962963 0Z" transform="rotate(45 19.89343382 68.9274479)"/>
    </g>
  </g>
</svg>
