<svg xmlns="http://www.w3.org/2000/svg" viewBox="0 0 105.15 105.15"><defs><style>.cls-1{fill:#f0b90b;}.cls-2{fill:#fff;}</style></defs><g id="图层_2" data-name="图层 2"><g id="图层_1-2" data-name="图层 1"><circle class="cls-1" cx="52.57" cy="52.57" r="52.57"/><path class="cls-2" d="M32.37,26.16,52.57,14.5,72.78,26.16l-7.43,4.31L52.57,23.12,39.8,30.47ZM72.78,40.87l-7.43-4.31L52.57,43.92,39.8,36.56l-7.43,4.31v8.62l12.77,7.35V71.55l7.43,4.31L60,71.55V56.84l12.78-7.35Zm0,23.33V55.58l-7.43,4.31v8.62Zm5.27,3L65.28,74.6v8.62l20.2-11.67V48.23l-7.43,4.31ZM70.62,33.52l7.43,4.31v8.61l7.43-4.3V33.52l-7.43-4.31ZM45.14,77.72v8.62l7.43,4.31L60,86.34V77.72L52.57,82ZM32.37,64.2l7.43,4.31V59.89l-7.43-4.31ZM45.14,33.52l7.43,4.31L60,33.52l-7.43-4.31Zm-18,4.31,7.43-4.31-7.43-4.31-7.43,4.31v8.62l7.43,4.3Zm0,14.71-7.43-4.31V71.55L39.87,83.22V74.6L27.09,67.24Z"/></g></g></svg>