<svg xmlns="http://www.w3.org/2000/svg" xmlns:xlink="http://www.w3.org/1999/xlink" viewBox="0 0 520.19 438.03"><defs><style>.cls-1{fill:url(#未命名的渐变_187);}.cls-2{fill:#4e93c4;}.cls-3{fill:#fff;}</style><linearGradient id="未命名的渐变_187" y1="293.91" x2="520.19" y2="293.91" gradientUnits="userSpaceOnUse"><stop offset="0" stop-color="#5c326b"/><stop offset="0.98" stop-color="#009674"/></linearGradient></defs><g id="图层_2" data-name="图层 2"><g id="图层_1-2" data-name="图层 1"><path class="cls-1" d="M520.12,154.2c0,.65-.06,1.31-.1,2s-.06,1.14-.11,1.7-.11,1.32-.18,2-.11,1.12-.18,1.68-.17,1.33-.27,2-.15,1.11-.24,1.67-.24,1.33-.36,2-.2,1.1-.31,1.65-.29,1.31-.44,2-.24,1.1-.37,1.65-.35,1.33-.53,2-.29,1.08-.44,1.62-.42,1.35-.63,2c-.16.52-.32,1-.49,1.56-.23.71-.49,1.41-.74,2.11-.18.49-.35,1-.53,1.48-.39,1-.8,2-1.23,3.07l-.21.55c-.51,1.2-1.05,2.4-1.61,3.6-.17.36-.35.72-.53,1.08-.4.84-.8,1.67-1.23,2.5-.23.47-.49.93-.73,1.39-.39.72-.77,1.45-1.18,2.17-.24.43-.5.86-.74,1.28-.47.82-.95,1.64-1.45,2.45-.29.48-.6.95-.9,1.43-.48.76-1,1.51-1.46,2.27l-1,1.47c-.5.74-1,1.48-1.55,2.22-.35.48-.69,1-1.05,1.45-.56.76-1.14,1.51-1.72,2.27l-1.16,1.5-.57.71c-.69.85-1.39,1.7-2.11,2.54l-.38.46c-.82,1-1.67,1.92-2.52,2.87l-.63.69c-.76.83-1.53,1.66-2.32,2.49l-.44.46c-.91.94-1.84,1.88-2.78,2.81l-.69.68c-.83.8-1.67,1.61-2.53,2.41l-.51.48c-.52.49-1.07,1-1.61,1.45l-1.95,1.76-1.67,1.42c-.66.57-1.32,1.14-2,1.7L472,238.29c-.69.56-1.37,1.12-2.07,1.67l-1.84,1.41c-.71.54-1.41,1.09-2.14,1.63s-1.27.93-1.92,1.4-1.45,1.06-2.2,1.59-1.33.93-2,1.39-1.49,1-2.26,1.55-1.39.92-2.09,1.38l-2.33,1.52L451,253.19l-2.41,1.49c-1.28.77-2.57,1.55-3.89,2.31-1.94,1.13-3.91,2.23-5.9,3.32l-1.72.92q-2.31,1.25-4.66,2.44l-1.58.81q-3,1.53-6.16,3c-.36.18-.73.34-1.1.51q-2.62,1.23-5.28,2.4l-1.9.84c-1.74.75-3.48,1.49-5.24,2.21l-1.31.55q-3.24,1.31-6.54,2.57l-1.64.61c-1.73.64-3.47,1.28-5.21,1.9l-2,.69c-2.1.73-4.21,1.45-6.33,2.14l-.5.16c-1.92.63-3.85,1.23-5.79,1.82l-1.34.4c-1.5.45-3,.9-4.51,1.33-.72.21-1.45.4-2.18.6l-3.73,1-2.45.63-3.52.91c-.86.22-1.73.42-2.6.63-1.14.28-2.27.56-3.41.82l-2.7.61c-1.12.26-2.25.51-3.38.75l-2.75.58-3.36.69-2.8.55c-1.12.21-2.24.43-3.37.63l-2.43.44q-2.87.51-5.73,1l-1.78.3q-3.68.57-7.36,1.1l-1.59.21q-3,.4-6,.77l-2.24.27c-2.06.24-4.13.46-6.2.68l-1.41.14q-3.35.33-6.71.62l-1.16.09c-1.86.15-3.72.29-5.58.41l-2.36.15-4.43.26-2.62.13-4.21.17-2.79.1-3.55.1-2.91.06-3.58,0-2.88,0H258.6l-2.83,0-3.71-.07-2.76-.05-3.4-.11-2.93-.1-3.44-.16-2.87-.14-3.51-.21-2.8-.18c-1.21-.08-2.41-.18-3.62-.27l-2.66-.2-3.83-.35-2.43-.22c-1.47-.14-2.92-.3-4.38-.45l-1.87-.2q-3.12-.34-6.23-.74l-.55-.08q-2.84-.36-5.65-.75l-1.44-.22c-1.62-.23-3.24-.47-4.86-.73l-2.29-.37c-1.33-.22-2.65-.43-4-.66l-2.56-.46c-1.22-.22-2.45-.43-3.67-.67-.89-.16-1.77-.34-2.66-.51l-3.53-.7-2.49-.53c-1.36-.28-2.71-.58-4-.87l-2.53-.58c-1.33-.3-2.65-.61-4-.93l-2.47-.6c-1.38-.34-2.76-.7-4.13-1.05l-2.22-.58q-2.53-.68-5-1.39l-1.2-.33q-3.6-1-7.16-2.13l-1.91-.6q-2.88-.9-5.72-1.85l-1.58-.53q-3.48-1.17-6.91-2.42l-1.52-.57q-2.79-1-5.55-2.11l-2.14-.83-2.27-.92-2.87-1.19-2.25-1c-.94-.4-1.89-.81-2.83-1.23l-2.21-1c-.94-.42-1.88-.85-2.81-1.29l-2.15-1-2.83-1.37-2.06-1c-1-.48-1.93-1-2.9-1.47l-1.9-1-3.14-1.68-1.58-.86q-2.34-1.28-4.64-2.61C25.87,227.41.28,188.58.39,149.8L0,286.75c-.11,38.77,25.48,77.61,76.72,107.19,1.53.89,3.08,1.75,4.64,2.61l1.57.85c1,.56,2.09,1.13,3.15,1.68l1.9,1,2.91,1.48,2,1,2.83,1.36,2.15,1c.93.43,1.87.87,2.81,1.29l2.21,1,2.84,1.23,2.25,1,2.86,1.18,2.28.92,1,.43,1.08.41q2.76,1.08,5.55,2.11l1.52.56q3.43,1.25,6.91,2.43l1.58.53c1.9.63,3.8,1.24,5.72,1.85l1.91.6c2.38.73,4.76,1.44,7.17,2.13l.12,0c.35.11.72.2,1.07.3,1.68.47,3.36.94,5.05,1.39l2.22.57,4.13,1.06,2.47.6,4,.93,2.53.57,4.05.88,1.62.35.87.17,3.53.71,2.66.51,3.68.67,2.55.46c1.32.23,2.65.44,4,.66l2.3.37,4.84.73,1.36.2h.1q2.81.41,5.64.76l.55.07c2.08.27,4.15.51,6.23.75l1.87.19c1.46.16,2.92.32,4.38.46l2.43.22c1.28.12,2.55.24,3.83.34l.24,0,2.42.19L230,437l2.8.17,3.5.22,2.88.14,3.43.15,2.93.11c1.13,0,2.26.08,3.4.1l.61,0,2.15,0,3.71.07,2.83,0h3.63l2.88,0,3.58-.05q1.45,0,2.91-.06c1.19,0,2.37-.06,3.55-.09l1.38,0,1.41-.06c1.4,0,2.81-.11,4.21-.18l2.63-.12,4.42-.26,2.36-.15c1.86-.13,3.73-.27,5.59-.42.38,0,.77-.05,1.15-.09,2.24-.18,4.48-.39,6.72-.61l.34,0,1.07-.12q3.1-.32,6.19-.67l2.24-.27c2-.25,4-.5,6-.77l1.59-.22q3.69-.51,7.37-1.1l1.77-.29q2.88-.46,5.73-1c.4-.07.81-.13,1.21-.21l1.23-.23,3.36-.63,2.8-.55,3.37-.69,2.74-.58c1.13-.24,2.26-.5,3.38-.75l2.7-.61,3.41-.82,2.61-.63,3.51-.91,2.45-.64c1.25-.33,2.49-.68,3.74-1l2.17-.6c1.51-.43,3-.88,4.51-1.33l1.34-.4q2.91-.88,5.79-1.82l.09,0,.41-.14c2.13-.69,4.23-1.4,6.33-2.13l2-.7c1.75-.61,3.48-1.25,5.2-1.89l1.65-.62q3.3-1.25,6.54-2.57l1.31-.54c1.76-.73,3.51-1.46,5.24-2.22l1.9-.83q2.65-1.17,5.28-2.4l1.11-.51q3.11-1.47,6.15-3l1.59-.81c1.56-.8,3.11-1.62,4.65-2.44l1.72-.93q3-1.62,5.91-3.31l3.17-1.88.71-.44,2.41-1.48,2.17-1.36,2.33-1.52,2.09-1.38c.77-.51,1.51-1,2.26-1.55l2-1.39,2.19-1.59,1.93-1.41,2.13-1.62c.62-.47,1.24-.94,1.84-1.42s1.38-1.1,2.07-1.66,1.18-.94,1.75-1.42,1.34-1.13,2-1.7l1.66-1.43c.66-.58,1.31-1.17,2-1.75.46-.42.94-.83,1.39-1.25.08-.06.15-.14.22-.2l.51-.48c.86-.8,1.7-1.61,2.53-2.42l.69-.67c.94-.93,1.87-1.87,2.78-2.81.15-.15.29-.31.44-.47.79-.82,1.56-1.65,2.32-2.48l.63-.69c.86-1,1.7-1.91,2.52-2.87l.39-.46q1.07-1.27,2.1-2.55l.57-.7.42-.53.74-1c.58-.76,1.16-1.51,1.72-2.27l1.05-1.45q.79-1.11,1.56-2.22l1-1.48c.5-.75,1-1.5,1.46-2.26.31-.48.61-.95.9-1.43.5-.82,1-1.63,1.45-2.45.19-.33.4-.66.59-1l.15-.28c.41-.72.79-1.45,1.18-2.18.24-.46.5-.92.74-1.38.42-.83.82-1.66,1.23-2.5.17-.36.36-.72.53-1.08.56-1.2,1.09-2.4,1.6-3.61.07-.18.14-.36.22-.54.42-1,.83-2.05,1.22-3.08a.61.61,0,0,0,.05-.12c.17-.45.32-.9.48-1.35.25-.7.51-1.41.74-2.11.17-.52.33-1,.49-1.56.21-.68.43-1.36.63-2,.16-.53.29-1.07.44-1.61s.36-1.33.53-2,.25-1.09.38-1.64.3-1.32.43-2c0-.11.06-.23.08-.34.09-.44.15-.87.23-1.3.13-.67.25-1.34.36-2s.17-1.12.25-1.68.19-1.32.26-2,.13-1.13.18-1.69.13-1.31.19-2,.07-1.13.1-1.7.08-1.31.1-2c0-.21,0-.43,0-.64,0-.76,0-1.52,0-2.28l.39-137C520.19,152.26,520.16,153.23,520.12,154.2Z"/><path class="cls-2" d="M261.13,298.09c-68.9,0-133.72-15.52-182.52-43.69-48.45-28-75.17-65-75.22-104.23-.06-39,26.23-75.71,74-103.48C125.9,18.51,190.54,3,259.44,3S393.17,18.52,442,46.69c48.45,28,75.16,65,75.22,104.22,0,39-26.24,75.71-74,103.49C394.68,282.57,330,298.09,261.13,298.09Z"/><path class="cls-3" d="M259.46,6c68.38,0,132.66,15.37,181,43.29,24.21,14,42.91,30.2,55.58,48.23,12,17.07,18.11,35,18.14,53.4s-6,36.07-17.76,53c-12.46,17.89-30.89,34-54.78,47.87-24.22,14.08-52.53,25-84.15,32.42a421.48,421.48,0,0,1-96.37,10.87,423.11,423.11,0,0,1-96.49-10.87c-31.71-7.44-60.15-18.35-84.53-32.42-24.21-14-42.91-30.21-55.59-48.23-12-17.08-18.11-35-18.13-53.4s6-36.08,17.75-53c12.47-17.88,30.9-34,54.79-47.87,24.21-14.07,52.52-25,84.15-32.41A421.51,421.51,0,0,1,259.46,6h0m0-6C192.93,0,126.49,14.7,75.91,44.09-25.26,102.88-24.71,198.21,77.11,257c50.91,29.4,117.51,44.1,184,44.1s133-14.7,183.53-44.1c101.17-58.79,100.63-154.11-1.19-212.9C392.55,14.69,326,0,259.44,0Z"/></g></g></svg>