<svg xmlns="http://www.w3.org/2000/svg" xmlns:xlink="http://www.w3.org/1999/xlink" viewBox="0 0 717.13 341.83"><defs><style>.cls-1{fill:url(#未命名的渐变_316);}</style><linearGradient id="未命名的渐变_316" y1="170.92" x2="717.13" y2="170.92" gradientUnits="userSpaceOnUse"><stop offset="0" stop-color="#cd36ff"/><stop offset="0.82" stop-color="#15ffb3" stop-opacity="0"/></linearGradient></defs><g id="图层_2" data-name="图层 2"><g id="图层_1-2" data-name="图层 1"><path class="cls-1" d="M689.74,50C677.2,32.17,660.74,15.63,640.6.57V20.9c39.28,32.38,60.47,70.56,60.53,110.38.07,51.08-34.69,99.43-97.89,136.16-134,77.89-352.84,77.89-487.75,0C51.4,230.43,16.07,181.72,16,130.26,15.94,90.59,36.92,52.57,75.89,20.35V0C26.61,36.85-.07,82.24,0,130.29c0,28.13,9.26,55.47,27.39,81.26,18.45,26.24,45.4,49.71,80.1,69.74,67.62,39,157.2,60.54,252.22,60.54s184.37-21.5,251.57-60.56c68.34-39.71,105.93-93,105.85-150C717.09,103.13,707.87,75.78,689.74,50Z"/></g></g></svg>