<svg xmlns="http://www.w3.org/2000/svg" viewBox="0 0 98.07 110.11"><defs><style>.cls-1{fill:#2d374b;}.cls-2{fill:#28a0f0;}.cls-3{fill:#fff;}.cls-4{fill:#96bedc;}</style></defs><g id="图层_2" data-name="图层 2"><g id="图层_1-2" data-name="图层 1"><g id="SYMBOL_VER_1-1" data-name="SYMBOL VER 1-1"><g id="Symbol_-_Original" data-name="Symbol - Original"><path class="cls-1" d="M61.44,50.45l8.09-13.72,21.79,34v6.51l-.07-44.83a3.36,3.36,0,0,0-1.56-2.69L50.46,7.1a3.47,3.47,0,0,0-3,0,4.05,4.05,0,0,0-.35.21L47,7.4,8.89,29.47l-.15.07a3.57,3.57,0,0,0-.56.33A3.32,3.32,0,0,0,6.82,32c0,.13,0,.26-.05.4l.06,36.53,20.3-31.46C29.69,33.3,35.26,32,40.43,32l6.06.16L10.74,89.52,15,92l36.18-59.7,16-.06L31,93.4l15,8.65,1.8,1a3.42,3.42,0,0,0,2.42,0L90.09,80.07l-7.61,4.41Zm3.09,44.43L49.34,71.05l9.27-15.74,20,31.44Z"/><polygon class="cls-2" points="49.34 71.05 64.53 94.88 78.56 86.75 58.61 55.31 49.34 71.05"/><path class="cls-2" d="M91.33,77.19V70.68l-21.79-34L61.44,50.45l21,34,7.61-4.41a3.34,3.34,0,0,0,1.24-2.45Z"/><path class="cls-3" d="M0,83.33l10.74,6.19L46.49,32.19,40.43,32c-5.17-.07-10.74,1.27-13.3,5.45L6.83,68.94,0,79.43Z"/><polygon class="cls-3" points="67.13 32.19 51.13 32.25 14.96 91.95 27.6 99.23 31.04 93.4 67.13 32.19"/><path class="cls-4" d="M98.07,32.11a10.17,10.17,0,0,0-4.78-8.19L53.54,1.06a10.36,10.36,0,0,0-9.12,0c-.34.17-38.66,22.4-38.66,22.4a9.44,9.44,0,0,0-1.53.9A10.1,10.1,0,0,0,0,32.09V79.44l6.83-10.5L6.77,32.41c0-.13,0-.27.05-.4a3.32,3.32,0,0,1,1.36-2.14c.18-.13,39.16-22.69,39.28-22.76a3.47,3.47,0,0,1,3,0L89.7,29.67a3.36,3.36,0,0,1,1.56,2.69V77.61a3.34,3.34,0,0,1-1.17,2.46l-7.61,4.41-3.92,2.27-14,8.13L50.3,103.13a3.42,3.42,0,0,1-2.42,0L31,93.4,27.6,99.23l15.13,8.71,1.31.74,1.09.6a9.88,9.88,0,0,0,4,.83,10.13,10.13,0,0,0,3.7-.7L94.18,85.48a10.1,10.1,0,0,0,3.89-7.62Z"/></g></g></g></g></svg>