<svg xmlns="http://www.w3.org/2000/svg" xmlns:xlink="http://www.w3.org/1999/xlink" viewBox="0 0 92.53 92.53"><defs><style>.cls-1{fill:url(#未命名的渐变_2);}.cls-2{fill:#fff;}</style><linearGradient id="未命名的渐变_2" y1="46.27" x2="92.53" y2="46.27" gradientUnits="userSpaceOnUse"><stop offset="0" stop-color="#e6007a"/><stop offset="0.21" stop-color="#703ac2"/><stop offset="0.46" stop-color="#0070eb"/><stop offset="0.77" stop-color="#0297fb"/><stop offset="1" stop-color="#0ae2ff"/></linearGradient></defs><g id="图层_2" data-name="图层 2"><g id="图层_1-2" data-name="图层 1"><circle class="cls-1" cx="46.27" cy="46.27" r="46.27"/><g id="图层_2-2" data-name="图层 2"><g id="图层_1-2-2" data-name="图层 1-2"><path class="cls-2" d="M52.06,57.78a30.59,30.59,0,0,0,5.76-8.38,26.71,26.71,0,0,0,1.35-3.22,18.76,18.76,0,0,1,6.73,8.73,11.69,11.69,0,0,1-1.61,10.61,10.73,10.73,0,0,1-1.55,1.68h0A26.59,26.59,0,0,1,29,66.44a27,27,0,0,0,16.92-3.69c8.43,5.88,13.9,5,16.48,2,.07-.09.14-.17.2-.26a5.7,5.7,0,1,0-9.1-6.88,6.07,6.07,0,0,0-.44.68l-1-.52m-10-10.41L41.88,47h0a24,24,0,0,1-1.52-4.26,25.42,25.42,0,0,1,7.06-.67h.36a25,25,0,0,1,4.46.8,25.86,25.86,0,0,1-3,6.45c-.07.09-.13.19-.2.29h0a24.28,24.28,0,0,1-2.92,3.47A25.3,25.3,0,0,1,42,47.33M29,59a11.69,11.69,0,0,1-8.37-6.7,10.72,10.72,0,0,1-.7-2.21c-.09-.65-.17-1.3-.21-2a26.69,26.69,0,0,1,17.76-27v0a27.19,27.19,0,0,0-5.26,16.5C22.9,42,20.9,47.15,22.28,50.9l.12.31A5.7,5.7,0,0,0,33,47.1l-.12-.29a7,7,0,0,0-.4-.7c.29-.19.6-.38.94-.58a30.45,30.45,0,0,0,4.36,9.19,28.48,28.48,0,0,0,2.11,2.77A20.12,20.12,0,0,1,32,59.24,14.73,14.73,0,0,1,29,59M43.91,25A11.67,11.67,0,0,1,53.9,21a10.47,10.47,0,0,1,2.27.5l.13.06h0A26.62,26.62,0,0,1,72.47,51.23v0h0A26.94,26.94,0,0,0,60.82,38.38c.83-10.25-2.64-14.56-6.57-15.27l-.32-.05a5.69,5.69,0,0,0-1.49,11.29,6.12,6.12,0,0,0,.85,0c0,.35,0,.72,0,1.1a30.31,30.31,0,0,0-10.13-.79,29.1,29.1,0,0,0-3.47.43A18.68,18.68,0,0,1,43.92,25m0-12.7a33.91,33.91,0,0,0-23.3,11.52h0l-.11.16a34,34,0,0,0-8.29,24.64c.06.89.16,1.77.29,2.63h0v.12c.09.57.19,1.14.31,1.7h0v0c.1.5.21,1,.34,1.52h0a34.09,34.09,0,1,0,33.1-42.4c-.78,0-1.56,0-2.34.08"/><path class="cls-2" d="M52.06,57.78a30.59,30.59,0,0,0,5.76-8.38,26.71,26.71,0,0,0,1.35-3.22,18.76,18.76,0,0,1,6.73,8.73,11.69,11.69,0,0,1-1.61,10.61,10.73,10.73,0,0,1-1.55,1.68h0A26.59,26.59,0,0,1,29,66.44a27,27,0,0,0,16.92-3.69c8.43,5.88,13.9,5,16.48,2,.07-.09.14-.17.2-.26a5.7,5.7,0,1,0-9.1-6.88,6.07,6.07,0,0,0-.44.68l-1-.52m-10-10.41L41.88,47h0a24,24,0,0,1-1.52-4.26,25.42,25.42,0,0,1,7.06-.67h.36a25,25,0,0,1,4.46.8,25.86,25.86,0,0,1-3,6.45c-.07.09-.13.19-.2.29h0a24.28,24.28,0,0,1-2.92,3.47A25.3,25.3,0,0,1,42,47.33M29,59a11.69,11.69,0,0,1-8.37-6.7,10.72,10.72,0,0,1-.7-2.21c-.09-.65-.17-1.3-.21-2a26.69,26.69,0,0,1,17.76-27v0a27.19,27.19,0,0,0-5.26,16.5C22.9,42,20.9,47.15,22.28,50.9l.12.31A5.7,5.7,0,0,0,33,47.1l-.12-.29a7,7,0,0,0-.4-.7c.29-.19.6-.38.94-.58a30.45,30.45,0,0,0,4.36,9.19,28.48,28.48,0,0,0,2.11,2.77A20.12,20.12,0,0,1,32,59.24,14.73,14.73,0,0,1,29,59M43.91,25A11.67,11.67,0,0,1,53.9,21a10.47,10.47,0,0,1,2.27.5l.13.06h0A26.62,26.62,0,0,1,72.47,51.23v0h0A26.94,26.94,0,0,0,60.82,38.38c.83-10.25-2.64-14.56-6.57-15.27l-.32-.05a5.69,5.69,0,0,0-1.49,11.29,6.12,6.12,0,0,0,.85,0c0,.35,0,.72,0,1.1a30.31,30.31,0,0,0-10.13-.79,29.1,29.1,0,0,0-3.47.43A18.68,18.68,0,0,1,43.92,25m0-12.7a33.91,33.91,0,0,0-23.3,11.52h0l-.11.16a34,34,0,0,0-8.29,24.64c.06.89.16,1.77.29,2.63h0v.12c.09.57.19,1.14.31,1.7h0v0c.1.5.21,1,.34,1.52h0a34.09,34.09,0,1,0,33.1-42.4c-.78,0-1.56,0-2.34.08"/></g></g></g></g></svg>