<svg xmlns="http://www.w3.org/2000/svg" xmlns:xlink="http://www.w3.org/1999/xlink" viewBox="0 0 566.18 648.18"><defs><style>.cls-1{fill:url(#未命名的渐变_354);}.cls-2{opacity:0.25;}.cls-3{fill:url(#未命名的渐变_338);}.cls-4{fill:#4895ad;}.cls-5{fill:#fff;}</style><linearGradient id="未命名的渐变_354" x1="22.77" y1="385.36" x2="543.41" y2="385.36" gradientUnits="userSpaceOnUse"><stop offset="0" stop-color="#8d4da3"/><stop offset="0.98" stop-color="#00d6a6"/></linearGradient><linearGradient id="未命名的渐变_338" y1="406.36" x2="566.18" y2="406.36" gradientUnits="userSpaceOnUse"><stop offset="0" stop-color="#ad5ec9"/><stop offset="0.98" stop-color="#00ffc5"/></linearGradient></defs><g id="图层_2" data-name="图层 2"><g id="图层_1-2" data-name="图层 1"><path class="cls-1" d="M543.34,167.39c0,.65-.06,1.31-.1,2s-.06,1.14-.11,1.7-.12,1.32-.18,2-.11,1.12-.18,1.68-.17,1.33-.27,2-.15,1.11-.24,1.67-.24,1.33-.36,2-.2,1.1-.31,1.65-.29,1.31-.44,2-.24,1.1-.38,1.65-.35,1.33-.53,2-.28,1.08-.43,1.62-.42,1.35-.63,2c-.17.52-.32,1.05-.49,1.57q-.36,1.05-.75,2.1c-.17.49-.34,1-.52,1.48-.39,1-.8,2-1.23,3.07-.07.18-.14.37-.22.55-.5,1.2-1,2.4-1.6,3.6-.17.36-.35.72-.53,1.08-.4.84-.8,1.67-1.23,2.51-.24.46-.49.92-.74,1.38-.38.72-.77,1.45-1.17,2.18l-.74,1.27c-.48.82-1,1.64-1.45,2.45l-.9,1.43c-.48.76-1,1.51-1.46,2.27l-1,1.47c-.51.74-1,1.48-1.55,2.22l-1.05,1.45c-.56.76-1.14,1.52-1.72,2.27-.39.5-.77,1-1.17,1.5-.18.24-.37.47-.56.71-.69.85-1.39,1.7-2.11,2.55l-.38.45c-.82,1-1.67,1.92-2.53,2.87-.2.23-.42.46-.63.69-.75.83-1.53,1.66-2.31,2.48l-.45.48c-.9.94-1.83,1.87-2.78,2.8-.22.23-.46.45-.69.68-.82.81-1.66,1.61-2.52,2.41l-.51.48c-.53.49-1.07,1-1.61,1.45s-1.29,1.17-2,1.76L499,248.36c-.67.57-1.33,1.14-2,1.7l-1.76,1.43c-.69.55-1.36,1.11-2.06,1.66l-1.85,1.42-2.13,1.62-1.92,1.41-2.2,1.58c-.66.47-1.33.93-2,1.39l-2.26,1.56-2.09,1.37c-.77.51-1.55,1-2.34,1.52s-1.44.91-2.16,1.36l-2.41,1.49c-1.28.77-2.57,1.55-3.89,2.31-1.94,1.13-3.91,2.23-5.9,3.32l-1.72.92q-2.31,1.24-4.66,2.44l-1.58.81c-2,1-4.09,2-6.16,3-.36.18-.73.34-1.1.51q-2.62,1.23-5.29,2.41l-1.89.83c-1.74.75-3.48,1.49-5.24,2.21l-1.31.55q-3.24,1.31-6.54,2.57l-1.65.61q-2.59,1-5.2,1.9l-2,.69c-2.1.73-4.21,1.45-6.33,2.14l-.51.17q-2.86.93-5.78,1.81l-1.34.4c-1.5.45-3,.9-4.51,1.33l-2.19.61-3.72,1-2.47.64c-1.16.3-2.33.61-3.5.9-.86.22-1.74.42-2.6.63-1.14.28-2.28.56-3.42.82l-2.69.61c-1.13.26-2.25.51-3.38.75l-2.76.59-3.35.68-2.81.55-3.36.64-2.44.43q-2.85.51-5.71,1L353,309c-2.45.38-4.9.75-7.37,1.1l-1.58.21q-3,.4-6,.77l-2.26.27c-2.05.24-4.11.46-6.17.68-.48,0-1,.1-1.43.15-2.24.22-4.47.42-6.72.61l-1.11.08c-1.88.15-3.75.3-5.63.42l-2.34.15-4.44.26-2.62.13-4.22.18-2.78.09-3.56.1-2.9.06-3.59,0-2.87,0H281.8l-2.81,0-3.73-.06-2.74-.06-3.43-.11-2.9-.1-3.47-.16-2.84-.14-3.54-.21-2.76-.18c-1.22-.08-2.44-.18-3.65-.27l-2.65-.2-3.78-.34-2.48-.23-4.25-.44-2-.21q-3.12-.34-6.22-.74l-.6-.08c-1.87-.24-3.74-.49-5.59-.75l-1.52-.23c-1.6-.23-3.19-.46-4.78-.71l-2.33-.38c-1.31-.22-2.63-.43-3.94-.66l-2.57-.46-3.66-.66-2.68-.52-3.51-.7-2.51-.53c-1.34-.28-2.69-.57-4-.87l-2.54-.58c-1.33-.3-2.64-.61-4-.93l-2.48-.6c-1.38-.34-2.75-.7-4.12-1.05l-2.22-.58q-2.53-.67-5-1.38l-1.21-.34c-2.4-.68-4.79-1.4-7.16-2.13l-1.92-.6c-1.91-.6-3.82-1.22-5.71-1.85l-1.58-.53q-3.48-1.17-6.92-2.42l-1.51-.57c-1.86-.68-3.71-1.39-5.55-2.1l-2.14-.85-2.26-.91c-1-.39-1.93-.79-2.88-1.19l-2.25-.95-2.83-1.24-2.21-1-2.82-1.3-2.14-1-2.83-1.37-2.06-1c-1-.48-1.94-1-2.9-1.47l-1.9-1-3.16-1.69L105,272.8q-2.34-1.29-4.64-2.61C49.09,240.6,23.5,201.77,23.61,163l-.84,293.46c-.11,38.78,25.49,77.61,76.73,107.19,1.53.89,3.08,1.76,4.63,2.62.52.28,1.05.55,1.56.84,1,.56,2.1,1.13,3.17,1.69l1.9,1c1,.5,1.93,1,2.9,1.48l2.06,1,2.83,1.37,2.14,1,2.82,1.3,2.2,1,2.84,1.24,2.24,1,2.88,1.19,2.26.91,1.06.43,1.09.41c1.84.72,3.68,1.42,5.55,2.11l1.51.56c2.29.84,4.59,1.65,6.92,2.43l1.58.53c1.89.63,3.8,1.25,5.71,1.85l1.92.6c2.37.73,4.75,1.44,7.16,2.13l.12,0,1.08.29q2.52.72,5.05,1.39l2.22.58c1.37.35,2.74.71,4.12,1.05l2.48.6c1.31.32,2.63.63,3.95.93l2.55.58,4,.87,1.63.35.88.18,3.51.69,2.68.53,3.66.66,2.57.46c1.31.23,2.62.44,3.94.65l2.33.38c1.58.25,3.18.49,4.77.72.48.07.95.15,1.43.21l.09,0c1.85.26,3.71.5,5.56.74l.64.09q3.1.39,6.22.74l2,.21,4.26.44,2.48.23,3.78.34.25,0,2.4.18,3.64.27,2.76.17,3.55.22,2.84.14,3.47.16,2.9.1,3.43.11.61,0,2.12,0,3.74.07,2.81,0h3.65l2.86,0,3.6,0,2.9-.06,3.56-.1,1.38,0,1.4-.06,4.22-.17,2.61-.13,4.45-.26,2.34-.15c1.88-.12,3.75-.27,5.63-.42l1.11-.08q3.36-.29,6.72-.62l.34,0,1.08-.12q3.1-.31,6.18-.67l2.25-.27q3-.36,6-.77l1.58-.21q3.69-.53,7.37-1.1l1.78-.3q2.87-.47,5.72-1l1.21-.2,1.23-.24,3.36-.63,2.81-.55c1.12-.22,2.23-.45,3.35-.69l2.76-.58c1.13-.24,2.25-.49,3.38-.75l2.69-.61c1.14-.26,2.28-.54,3.42-.82l2.6-.63c1.17-.29,2.34-.6,3.5-.9l2.47-.65c1.24-.33,2.49-.68,3.73-1,.72-.2,1.45-.39,2.17-.6,1.52-.43,3-.88,4.53-1.34.44-.13.89-.25,1.32-.39,1.94-.59,3.87-1.19,5.79-1.82l.09,0,.41-.14c2.13-.69,4.24-1.41,6.34-2.14l2-.69c1.75-.62,3.48-1.25,5.21-1.9l1.65-.61c2.19-.84,4.38-1.7,6.54-2.58.44-.17.87-.36,1.3-.54q2.64-1.08,5.24-2.21l1.9-.84q2.67-1.17,5.29-2.4l1.1-.51q3.11-1.47,6.16-3l1.58-.81q2.34-1.2,4.65-2.44c.58-.31,1.16-.61,1.73-.93,2-1.08,4-2.18,5.9-3.31,1.07-.62,2.12-1.24,3.17-1.87l.71-.44,2.42-1.49c.72-.45,1.45-.9,2.16-1.36s1.57-1,2.34-1.52,1.4-.91,2.08-1.37l2.28-1.56,2-1.39,2.2-1.59c.64-.47,1.29-.93,1.92-1.4s1.43-1.09,2.13-1.63,1.24-.94,1.84-1.41,1.39-1.11,2.07-1.67,1.18-.94,1.75-1.42,1.35-1.14,2-1.71l1.65-1.41c.67-.59,1.32-1.18,2-1.77.46-.41.93-.82,1.37-1.23l.23-.21.51-.49c.86-.79,1.7-1.6,2.52-2.4l.69-.68c.94-.93,1.87-1.86,2.78-2.8l.45-.48c.79-.82,1.55-1.65,2.31-2.48l.63-.69c.86-.95,1.7-1.91,2.52-2.87.14-.15.26-.31.39-.46.72-.84,1.42-1.69,2.1-2.54l.57-.71c.14-.18.29-.35.42-.53s.49-.64.74-1c.58-.75,1.16-1.51,1.73-2.27l1-1.45q.79-1.11,1.56-2.22l1-1.47c.49-.76,1-1.51,1.46-2.27l.9-1.43,1.45-2.45.58-1,.15-.28c.41-.73.8-1.46,1.18-2.19.25-.46.5-.92.74-1.38.43-.83.83-1.66,1.23-2.5.17-.36.36-.72.53-1.08.56-1.2,1.09-2.4,1.6-3.6.08-.18.14-.37.22-.55.42-1,.84-2,1.23-3.07a.5.5,0,0,1,0-.13l.47-1.35c.25-.7.51-1.4.75-2.11.17-.52.32-1,.49-1.56.21-.68.43-1.36.62-2s.3-1.08.44-1.62.37-1.33.53-2,.25-1.1.38-1.65.3-1.32.44-2c0-.12,0-.24.07-.35.09-.43.16-.87.24-1.3.12-.67.25-1.33.35-2s.17-1.12.25-1.67.19-1.33.27-2,.12-1.12.18-1.69.13-1.31.18-2,.08-1.13.11-1.7.07-1.31.1-2c0-.21,0-.42,0-.63,0-.76,0-1.53,0-2.29l.84-293.45C543.4,165.45,543.37,166.42,543.34,167.39Z"/><g class="cls-2"><path class="cls-3" d="M566.11,169.32c0,.71-.07,1.42-.11,2.13s-.07,1.24-.12,1.85-.13,1.44-.2,2.15-.12,1.22-.19,1.83-.19,1.44-.29,2.16-.17,1.22-.27,1.82-.26,1.45-.39,2.18-.21,1.19-.34,1.79-.31,1.43-.47,2.14-.27,1.2-.41,1.8-.38,1.44-.58,2.17c-.16.58-.31,1.17-.48,1.75-.21.74-.45,1.48-.68,2.21-.18.57-.34,1.14-.53,1.7-.26.77-.54,1.53-.81,2.29-.19.54-.37,1.07-.57,1.61-.42,1.12-.87,2.23-1.34,3.34l-.23.6c-.55,1.31-1.14,2.61-1.75,3.91-.18.4-.38.79-.57,1.18-.44.91-.88,1.82-1.34,2.72-.26.5-.53,1-.8,1.5-.42.79-.84,1.59-1.28,2.37-.26.47-.54.93-.81,1.39-.51.89-1,1.78-1.57,2.66-.32.53-.65,1-1,1.56q-.78,1.25-1.59,2.46c-.35.54-.72,1.08-1.08,1.61-.55.81-1.12,1.61-1.69,2.41l-1.15,1.58c-.6.82-1.23,1.65-1.87,2.47-.42.54-.83,1.09-1.26,1.63l-.62.77c-.75.92-1.51,1.85-2.29,2.77l-.41.49c-.9,1.05-1.81,2.09-2.75,3.13l-.68.75q-1.25,1.35-2.52,2.7l-.49.51q-1.47,1.53-3,3.05l-.75.73c-.9.88-1.81,1.76-2.74,2.63l-.56.52c-.57.53-1.16,1-1.74,1.58l-2.13,1.91-1.81,1.54c-.72.62-1.44,1.24-2.18,1.86l-1.91,1.55-2.25,1.8c-.66.52-1.33,1-2,1.54s-1.53,1.18-2.32,1.77l-2.09,1.53c-.8.57-1.58,1.15-2.39,1.72l-2.18,1.52-2.47,1.69-2.27,1.49c-.84.55-1.68,1.11-2.54,1.65s-1.57,1-2.36,1.48-1.73,1.08-2.62,1.62c-1.39.84-2.79,1.69-4.22,2.52-2.11,1.22-4.26,2.42-6.42,3.6l-1.87,1q-2.52,1.35-5.07,2.65l-1.72.88q-3.32,1.67-6.69,3.27l-1.2.55q-2.85,1.33-5.75,2.61l-2.06.91c-1.89.81-3.79,1.62-5.7,2.4l-1.42.6q-3.54,1.43-7.12,2.79l-1.79.67c-1.88.7-3.76,1.39-5.66,2.06l-2.14.76c-2.28.79-4.57,1.57-6.88,2.32l-.55.18c-2.09.68-4.18,1.34-6.29,2l-1.46.43c-1.63.49-3.26,1-4.91,1.45l-2.37.66L402.93,314l-2.68.69-3.81,1-2.83.69-3.72.89-2.93.66-3.67.82-3,.63-3.65.75-3.05.59c-1.21.24-2.43.47-3.65.69l-2.65.48q-3.1.54-6.22,1.05l-1.95.32q-4,.63-8,1.2l-1.73.23q-3.24.44-6.49.84l-2.45.29q-3.36.39-6.72.74l-1.55.16c-2.43.24-4.87.46-7.3.66l-1.22.1c-2,.16-4.08.32-6.12.46l-2.54.15c-1.61.11-3.22.2-4.84.29l-2.84.13c-1.53.08-3.06.14-4.59.2l-3,.1-3.88.11-3.15.06-3.91,0-3.11,0h-4l-3.06,0-4.06-.07-3-.06-3.73-.12-3.14-.11-3.78-.18-3.09-.15L254,328.1l-3-.19-4-.3-2.88-.22L240,327l-2.69-.25c-1.55-.15-3.09-.32-4.63-.48l-2.16-.23q-3.39-.37-6.77-.81l-.66-.08q-3-.39-6.08-.82l-1.65-.24c-1.74-.26-3.47-.51-5.2-.78l-2.53-.42c-1.43-.23-2.86-.46-4.28-.71l-2.8-.5c-1.32-.23-2.65-.47-4-.72-1-.18-2-.38-2.92-.57l-3.82-.76-2.73-.57c-1.46-.31-2.92-.62-4.38-.95-.92-.2-1.85-.41-2.77-.63-1.44-.33-2.87-.66-4.3-1l-2.69-.65c-1.5-.37-3-.76-4.49-1.15l-2.41-.62c-1.84-.49-3.67-1-5.49-1.51l-1.31-.36c-2.61-.75-5.21-1.53-7.79-2.32l-2.08-.65q-3.12-1-6.21-2c-.58-.19-1.15-.37-1.72-.57-2.53-.85-5-1.73-7.52-2.64l-1.65-.61q-3-1.12-6-2.29l-2.34-.92c-.82-.32-1.63-.66-2.45-1l-3.13-1.3-2.44-1c-1-.45-2.06-.89-3.09-1.35l-2.4-1.07-3.06-1.4-2.33-1.1L102,290.47l-2.24-1.1-3.15-1.6-2.07-1.07c-1.15-.6-2.29-1.22-3.43-1.83L89.38,284c-1.69-.93-3.38-1.88-5-2.84C28.62,248.94.79,206.71.91,164.54L0,483.67c-.12,42.17,27.71,84.4,83.43,116.57q2.5,1.44,5,2.84c.56.31,1.13.61,1.7.91,1.14.62,2.28,1.24,3.43,1.84l2.07,1.07,3.16,1.6,2.23,1.1,3.08,1.49,2.33,1.09,3.07,1.41,2.39,1.06L115,616l2.44,1,3.13,1.29,2.46,1,1.15.46,1.18.45q3,1.17,6,2.29l1.65.61q3.74,1.36,7.52,2.64l1.72.58q3.09,1,6.21,2l2.09.65c2.58.8,5.17,1.57,7.79,2.32l.13,0,1.18.32q2.73.78,5.48,1.51l2.42.63c1.49.38,3,.77,4.48,1.14l2.7.65c1.43.35,2.86.69,4.3,1l2.77.62c1.45.33,2.92.64,4.38,1l1.77.38,1,.2c1.27.26,2.54.5,3.82.75,1,.19,1.94.39,2.91.57,1.32.25,2.65.49,4,.72l2.79.5c1.43.25,2.86.48,4.29.71.84.14,1.68.29,2.53.42l5.19.78,1.55.23h.11c2,.29,4,.56,6,.81l.69.1c2.26.28,4.51.55,6.77.8l2.17.23,4.62.48,2.7.25,4.12.37.26,0,2.61.2,4,.29,3,.19,3.85.23c1,.06,2.07.11,3.1.15,1.26.07,2.51.13,3.77.18l3.15.11,3.73.12.66,0,2.32,0,4.06.07,3,0c1.33,0,2.65,0,4,0l3.12,0c1.3,0,2.61,0,3.91,0l3.15-.06,3.88-.11,1.49,0c.51,0,1,0,1.52-.06l4.6-.19,2.84-.14,4.84-.28,2.54-.16c2-.14,4.08-.3,6.12-.46l1.21-.09q3.66-.32,7.3-.67l.38,0,1.17-.13q3.38-.35,6.72-.74l2.45-.29q3.25-.4,6.5-.84l1.72-.23q4-.57,8-1.2l1.94-.32c2.08-.33,4.16-.69,6.22-1.05l1.32-.23,1.34-.25,3.65-.69,3.05-.59c1.22-.24,2.43-.5,3.65-.75l3-.63,3.67-.82,2.93-.66,3.71-.89,2.83-.69,3.82-1,2.67-.7,4.06-1.12,2.37-.66c1.65-.47,3.29-1,4.92-1.45l1.44-.43q3.17-1,6.3-2l.1,0,.44-.15c2.31-.75,4.61-1.53,6.89-2.32l2.14-.76q2.83-1,5.66-2.06l1.79-.67q3.58-1.37,7.11-2.79l1.42-.59q2.88-1.18,5.7-2.41l2.06-.91c1.94-.85,3.85-1.72,5.76-2.61l1.19-.55q3.39-1.6,6.7-3.27l1.72-.88q2.55-1.31,5.06-2.65l1.87-1c2.17-1.18,4.31-2.37,6.42-3.6l3.45-2,.78-.48L490,596.1l2.35-1.47,2.55-1.66c.76-.5,1.52-1,2.26-1.49s1.66-1.13,2.48-1.7,1.46-1,2.17-1.51,1.6-1.15,2.4-1.72l2.09-1.53,2.32-1.77c.67-.51,1.34-1,2-1.54s1.5-1.2,2.25-1.81,1.28-1,1.9-1.54l2.2-1.87,1.79-1.53c.73-.64,1.43-1.28,2.14-1.92.5-.45,1-.89,1.49-1.34l.24-.23.57-.53c.92-.86,1.84-1.74,2.74-2.61l.75-.74q1.53-1.51,3-3.05c.16-.17.32-.35.49-.52.85-.89,1.69-1.79,2.51-2.69l.69-.75c.93-1,1.85-2.08,2.74-3.12l.42-.51c.78-.91,1.54-1.84,2.28-2.76l.63-.77.45-.57c.28-.35.53-.71.81-1.06.63-.82,1.26-1.65,1.87-2.47.39-.53.76-1.05,1.14-1.58.58-.8,1.14-1.6,1.69-2.41.37-.53.73-1.07,1.09-1.6q.81-1.23,1.59-2.46c.32-.52.66-1,1-1.56.55-.89,1.07-1.78,1.58-2.67l.64-1.08.16-.3c.45-.79.86-1.58,1.29-2.38.26-.5.54-1,.8-1.5.46-.9.9-1.81,1.34-2.72.18-.39.39-.78.57-1.17.61-1.31,1.19-2.61,1.74-3.92.09-.2.16-.4.24-.59.46-1.12.91-2.23,1.33-3.35l.06-.14c.18-.48.34-1,.51-1.46.28-.77.56-1.53.81-2.3.19-.56.36-1.13.54-1.7.23-.74.47-1.47.68-2.21.17-.58.32-1.17.48-1.76s.39-1.44.57-2.16.28-1.2.41-1.8.33-1.43.48-2.14c0-.13.06-.25.08-.38.1-.47.17-.94.26-1.41.13-.73.27-1.45.38-2.18s.18-1.21.27-1.82.21-1.43.29-2.15.13-1.23.2-1.84.14-1.43.2-2.14.08-1.24.11-1.85.09-1.43.11-2.14c0-.23,0-.46,0-.68,0-.83,0-1.66,0-2.49l.9-319.13C566.18,167.21,566.14,168.26,566.11,169.32Z"/></g><path class="cls-4" d="M284.42,323.47c-74.81,0-145.18-16.84-198.14-47.42C33.82,245.76,4.89,205.73,4.83,163.33,4.77,121.23,33.24,81.49,85,51.41,137.6,20.84,207.77,4,282.58,4S427.77,20.84,480.73,51.42c52.47,30.29,81.39,70.32,81.45,112.72.06,42.1-28.41,81.84-80.15,111.91C429.41,306.63,359.23,323.47,284.42,323.47Z"/><path class="cls-5" d="M282.61,8a458.35,458.35,0,0,1,104.6,11.78c34.34,8,65.13,19.87,91.52,35.1,26.15,15.1,46.33,32.6,60,52,12.89,18.32,19.43,37.58,19.46,57.24s-6.38,38.64-19,56.81C525.7,240.23,505.81,257.6,480,272.59c-26.22,15.24-56.87,27.05-91.12,35.1a456.79,456.79,0,0,1-104.48,11.78,458.41,458.41,0,0,1-104.6-11.78c-34.35-8.06-65.15-19.87-91.54-35.11-26.15-15.09-46.33-32.59-60-52C15.41,202.24,8.86,183,8.83,163.32s6.38-38.64,19-56.81C41.31,87.23,61.2,69.86,87,54.87c26.21-15.23,56.87-27,91.12-35.09A457.4,457.4,0,0,1,282.61,8h0m0-8C210.25,0,138,16,83,48c-110,63.94-109.44,167.61,1.31,231.55,55.37,32,127.8,48,200.14,48s144.6-16,199.62-48c110-63.94,109.44-167.61-1.31-231.56C427.35,16,354.94,0,282.58,0Z"/></g></g></svg>