<svg xmlns="http://www.w3.org/2000/svg" xmlns:xlink="http://www.w3.org/1999/xlink" viewBox="0 0 711.2 746.84"><defs><style>.cls-1{opacity:0.47;}.cls-2{fill:url(#未命名的渐变_319);}.cls-3{fill:url(#未命名的渐变_10);}.cls-4{fill:url(#未命名的渐变_121);}.cls-5{fill:#fff;}.cls-6{fill:#db76ff;}.cls-7{fill:#030222;}.cls-8{fill:#00f4b9;}</style><linearGradient id="未命名的渐变_319" x1="355.6" y1="-71.64" x2="355.6" y2="517.04" gradientUnits="userSpaceOnUse"><stop offset="0.37" stop-color="#b31cd9" stop-opacity="0"/><stop offset="1" stop-color="#36ffad" stop-opacity="0.3"/></linearGradient><linearGradient id="未命名的渐变_10" x1="158.57" y1="658.68" x2="552.45" y2="658.68" gradientUnits="userSpaceOnUse"><stop offset="0" stop-color="#db76ff"/><stop offset="0.98" stop-color="#00f4b9"/></linearGradient><radialGradient id="未命名的渐变_121" cx="355.6" cy="571.08" r="158.93" gradientUnits="userSpaceOnUse"><stop offset="0" stop-color="#f5e7ff"/><stop offset="1" stop-color="#6f00ff"/></radialGradient></defs><g id="图层_2" data-name="图层 2"><g id="图层_1-2" data-name="图层 1"><g class="cls-1"><path class="cls-2" d="M0,0,167.37,658.68h2.85c-10.21-42.32,7.05-87.41,51.85-120.09,73.27-53.44,192.44-53.44,266.19,0,45.1,32.67,62.75,77.77,52.92,120.09h2.65L711.2,0Z"/></g><path class="cls-3" d="M552.4,573.85c0,.5,0,1-.08,1.49s0,.86-.08,1.29-.09,1-.14,1.49-.08.85-.13,1.28-.13,1-.21,1.51-.11.84-.18,1.26-.18,1-.27,1.52-.15.83-.24,1.24-.22,1-.33,1.5-.18.83-.28,1.24-.27,1-.41,1.52-.21.81-.33,1.22-.31,1-.48,1.55-.23.78-.36,1.17-.38,1.07-.57,1.61c-.13.37-.26.74-.4,1.11-.3.79-.62,1.59-.95,2.38,0,.12-.09.24-.14.36-.38.91-.79,1.82-1.21,2.73-.13.28-.28.55-.41.83-.3.63-.6,1.26-.93,1.88-.18.35-.37.7-.56,1.05-.29.55-.58,1.1-.89,1.65l-.56,1-1.09,1.85c-.23.36-.46.72-.68,1.09-.37.57-.73,1.14-1.11,1.71l-.75,1.11c-.39.57-.78,1.13-1.19,1.69-.26.37-.52.73-.79,1.09-.42.58-.86,1.16-1.31,1.73-.25.33-.5.66-.76,1-.8,1-1.62,2-2.47,3-.14.16-.29.32-.43.49-.72.84-1.47,1.67-2.23,2.5l-.85.91c-.7.74-1.42,1.48-2.15,2.22l-.76.77c-1,1-2,1.92-3,2.87l-1.15,1-1.49,1.33c-.41.36-.84.72-1.26,1.07s-1,.87-1.52,1.3l-1.33,1.08c-.52.42-1,.84-1.56,1.25L513,639.88l-1.62,1.23-1.46,1.06-1.66,1.2c-.5.36-1,.71-1.53,1.06L505,645.6l-1.58,1-1.77,1.15-1.64,1c-.6.38-1.21.76-1.83,1.13-1,.59-1.94,1.18-2.94,1.76-1.47.85-3,1.68-4.47,2.51l-1.3.7c-1.17.62-2.34,1.24-3.53,1.84l-1.2.62q-2.31,1.15-4.66,2.27l-.83.39c-1.33.61-2.66,1.22-4,1.82l-1.44.63c-1.31.57-2.63,1.13-4,1.67l-1,.42c-1.63.66-3.29,1.31-5,1.94l-1.25.47c-1.3.49-2.62,1-3.94,1.44l-1.49.52c-1.59.55-3.18,1.09-4.79,1.62l-.39.13c-1.45.47-2.91.93-4.38,1.37l-1,.31c-1.13.34-2.26.68-3.4,1l-1.64.46c-.94.26-1.89.53-2.84.78l-1.85.48c-.89.23-1.77.47-2.66.69l-2,.48-2.59.62-2,.46-2.56.57-2.09.44-2.54.52-2.13.42-2.54.48-1.85.33-4.34.74-1.34.22q-2.79.43-5.58.83l-1.21.16c-1.5.21-3,.4-4.52.59l-1.7.2-4.68.51-1.08.11c-1.69.17-3.39.33-5.09.47l-.88.07c-1.41.11-2.81.22-4.23.31l-1.77.11-3.36.2-2,.1-3.19.13-2.12.07-2.68.08-2.2,0-2.72,0-2.18,0h-4.9l-2.81-.05-2.08,0-2.6-.08-2.19-.08c-.88,0-1.75-.07-2.62-.12l-2.17-.1-2.67-.16-2.1-.13-2.76-.21-2-.16-2.91-.26-1.84-.16-3.3-.35-1.43-.15c-1.57-.17-3.15-.36-4.71-.56l-.51-.07c-1.4-.18-2.8-.36-4.19-.56l-1.13-.17c-1.22-.17-2.43-.35-3.64-.54l-1.76-.29-3-.49-1.95-.35c-.93-.17-1.85-.33-2.77-.51-.68-.12-1.35-.26-2-.39l-2.66-.53-1.9-.4q-1.53-.31-3.06-.66l-1.92-.44-3-.7-1.88-.46-3.11-.79-1.69-.44q-1.92-.51-3.81-1l-.92-.25q-2.73-.78-5.43-1.62l-1.45-.45-4.33-1.4-1.19-.4q-2.64-.9-5.24-1.84l-1.16-.43c-1.4-.52-2.8-1.05-4.19-1.59l-1.63-.64-1.7-.69-2.19-.91c-.57-.23-1.13-.47-1.69-.72l-2.16-.93-1.66-.75-2.14-1-1.63-.76-2.13-1-1.57-.77-2.2-1.12L224,655.6l-2.39-1.27-1.19-.65c-1.18-.64-2.35-1.3-3.51-2-38.81-22.41-58.2-51.82-58.11-81.19l-.18,61.74c-.08,29.37,19.3,58.78,58.11,81.19q1.74,1,3.51,2l1.19.64,2.39,1.28,1.43.73,2.21,1.12L229,720l2.15,1,1.62.76,2.14,1,1.67.75,2.15.94,1.69.71,2.2.91,1.69.69.81.32.83.32c1.39.54,2.78,1.07,4.18,1.59l1.17.43q2.6.95,5.23,1.84l1.2.4c1.43.48,2.87.94,4.32,1.4l1.46.45c1.8.56,3.6,1.1,5.42,1.62l.09,0,.83.22q1.9.54,3.81,1l1.7.44c1,.27,2.07.54,3.11.79l1.88.46,3,.71,1.93.43q1.53.35,3.06.66l1.23.27.66.13,2.67.53,2,.39,2.78.51,1.94.35,3,.49,1.76.29q1.8.28,3.63.54l1.06.16h.08c1.38.2,2.76.38,4.15.56l.54.07c1.57.2,3.14.39,4.72.56l1.44.16,3.29.34,1.84.17,2.9.26h.18l1.83.14,2.75.21,2.11.13,2.67.16,2.17.11,2.61.12,2.2.07,2.59.09h.47l1.61,0,2.82.05h7.08l2.71,0,2.21,0,2.68-.08,1.05,0,1.07,0,3.18-.13,2-.1,3.36-.2,1.78-.11c1.41-.09,2.82-.2,4.23-.31l.88-.07c1.7-.14,3.39-.3,5.08-.46l.26,0,.82-.09c1.56-.16,3.13-.33,4.68-.51l1.7-.2c1.51-.19,3-.38,4.52-.59l1.21-.16q2.81-.39,5.58-.83l1.35-.22c1.45-.24,2.89-.48,4.33-.74l.92-.16.93-.17,2.55-.48,2.12-.41,2.55-.53,2.08-.44c.86-.18,1.71-.37,2.57-.57l2-.46,2.58-.62c.66-.16,1.32-.31,2-.48l2.65-.68,1.87-.49,2.83-.78,1.64-.46c1.14-.32,2.27-.66,3.4-1l1-.3q2.2-.68,4.38-1.38l.07,0,.31-.11q2.42-.78,4.79-1.62l1.5-.52c1.32-.47,2.63-.95,3.94-1.44l1.24-.46q2.5-1,5-1.95l1-.41c1.33-.55,2.66-1.11,4-1.68l1.43-.63c1.35-.6,2.69-1.2,4-1.82l.83-.39q2.35-1.11,4.67-2.27l1.2-.61c1.18-.61,2.36-1.23,3.52-1.85l1.31-.7c1.5-.82,3-1.66,4.47-2.51l2.4-1.42.54-.33,1.83-1.14,1.63-1,1.78-1.15,1.58-1c.58-.39,1.14-.79,1.71-1.18l1.52-1c.57-.4,1.12-.81,1.67-1.21l1.45-1.06,1.62-1.23,1.39-1.07,1.57-1.26,1.32-1.08,1.53-1.29,1.25-1.08c.51-.44,1-.89,1.5-1.34.34-.31.7-.61,1-.93l.12-.11c1-1,2-1.91,3-2.87l.76-.77c.73-.74,1.45-1.48,2.15-2.22l.85-.91c.76-.83,1.5-1.66,2.22-2.5l.44-.49c.85-1,1.67-2,2.47-3,.06-.09.14-.17.2-.25l.56-.74,1.31-1.72.79-1.1c.4-.56.8-1.12,1.18-1.68.25-.37.51-.74.75-1.12q.57-.86,1.11-1.71l.68-1.09c.38-.61.74-1.23,1.1-1.85.14-.25.3-.5.44-.75l.12-.22c.31-.55.6-1.1.89-1.65.19-.35.38-.7.56-1.05.32-.62.62-1.25.93-1.88.13-.28.27-.55.4-.83.43-.91.83-1.82,1.22-2.73l.14-.36c.33-.79.65-1.59,1-2.38a.42.42,0,0,1,0-.1c.12-.33.23-.68.36-1,.19-.54.38-1.07.56-1.6s.25-.8.37-1.19.33-1,.48-1.54.22-.82.33-1.23.28-1,.4-1.5.19-.84.29-1.25.23-1,.33-1.5l.06-.26c.06-.33.11-.65.17-1,.1-.51.19-1,.27-1.52s.13-.84.19-1.27.14-1,.2-1.5.09-.85.14-1.28.1-1,.14-1.49,0-.86.08-1.29.06-1,.07-1.49l0-.47,0-1.73.17-61.74C552.45,572.38,552.43,573.12,552.4,573.85Z"/><path class="cls-4" d="M356.24,683.1C304,683.1,254.86,671.34,217.86,650c-36.79-21.24-57.07-49.36-57.11-79.18,0-29.61,19.92-57.53,56.21-78.62,36.76-21.36,85.77-33.12,138-33.12s101.38,11.76,138.38,33.13c36.79,21.23,57.07,49.35,57.11,79.18,0,29.6-19.92,57.52-56.2,78.61C457.49,671.34,408.48,683.1,356.24,683.1Z"/><path class="cls-5" d="M355,461.06c51.89,0,100.68,11.67,137.38,32.86,18.4,10.62,32.63,23,42.27,36.69,9.17,13,13.82,26.74,13.84,40.76,0,28.86-19.57,56.16-55.21,76.88-36.46,21.19-85.11,32.85-137,32.85s-100.68-11.67-137.38-32.86c-18.41-10.62-32.63-23-42.28-36.68-9.16-13-13.81-26.74-13.83-40.76,0-28.87,19.57-56.17,55.21-76.89,36.46-21.18,85.11-32.85,137-32.85h0m0-4c-50.38,0-100.7,11.13-139,33.39-76.62,44.53-76.22,116.73.91,161.26,38.56,22.26,89,33.39,139.38,33.39s100.7-11.13,139-33.39c76.62-44.53,76.21-116.73-.91-161.26-38.57-22.26-89-33.39-139.38-33.39Z"/><polygon class="cls-6" points="372.94 494.84 350.82 525.81 270.73 545.18 239.45 527.12 372.94 494.84"/><path class="cls-7" d="M370.93,501.11l0,11.06L349.58,542,271,561,241.4,544l0-13.37,28.29,16.33.69.4.78-.18,80.1-19.38.72-.17.43-.61,18.48-25.86m2-6.27-22.11,31-80.1,19.37-31.28-18.06,0,18,31.28,18.06,80.09-19.37,22.12-31,.05-18Z"/><path class="cls-7" d="M459.48,548.51l0,13.85-58.5,14.15,0-13.86,58.5-14.14m2-2.55L399,561.08l-.05,18,62.5-15.11.05-18Z"/><polygon class="cls-8" points="461.49 545.96 398.99 561.08 421.1 530.11 430.21 527.9 461.49 545.96"/><polygon class="cls-6" points="343.53 536.03 317.65 572.27 286.37 554.21 290.14 548.93 343.53 536.03"/><path class="cls-7" d="M341.51,542.29l0,11.07L317,587.61,288.32,571l0-13.36L316.65,574l1.57.91,1.06-1.48,22.23-31.14m2-6.26-25.88,36.24-31.28-18.06-.05,18,31.28,18.06L343.48,554l0-18Z"/><polygon class="cls-8" points="414.56 518.87 381.38 565.33 327.99 578.24 383.28 500.81 414.56 518.87"/><path class="cls-7" d="M412.55,525.14l0,11.06-32.38,45.34-50.2,12.13,0-13.85,51.87-12.55.73-.17.43-.61,29.54-41.35m2-6.27-33.19,46.46L328,578.24l-.05,18,53.39-12.91,33.18-46.45.06-18Z"/><polygon class="cls-6" points="471.8 551.92 449.68 582.88 369.58 602.26 338.31 584.2 471.8 551.92"/><path class="cls-7" d="M469.78,558.18l0,11.07-21.32,29.84-78.59,19L340.26,601l0-13.36L368.58,604l.7.4.77-.19,80.1-19.37.72-.18.44-.6,18.47-25.87m2-6.26-22.12,31-80.1,19.38L338.31,584.2l-.06,18,31.28,18.06,80.1-19.37,22.12-31,.05-18Z"/><path class="cls-7" d="M440.37,599.37l0,11.06-24.46,34.25-28.7-16.57,0-13.36,28.28,16.33,1.58.91,1.05-1.48,22.24-31.14m2-6.27L416.5,629.35l-31.27-18.06-.05,18,31.27,18.06,25.89-36.25.05-18Z"/><polygon class="cls-6" points="442.39 593.1 416.5 629.35 385.23 611.29 388.99 606.01 442.39 593.1"/></g></g></svg>