<svg xmlns="http://www.w3.org/2000/svg" xmlns:xlink="http://www.w3.org/1999/xlink" viewBox="0 0 577.87 244.56"><defs><style>.cls-1{fill:url(#未命名的渐变_306);}</style><linearGradient id="未命名的渐变_306" y1="122.28" x2="577.87" y2="122.28" gradientUnits="userSpaceOnUse"><stop offset="0.22" stop-color="#b31cd9" stop-opacity="0"/><stop offset="1" stop-color="#36ffad"/></linearGradient></defs><g id="图层_2" data-name="图层 2"><g id="图层_1-2" data-name="图层 1"><path class="cls-1" d="M548.31,0V19.16c11.82,17.7,18,36.62,18,56,.06,41.52-28.15,80.79-79.42,110.59-108.46,63-285.52,63-394.7,0-52-30-80.65-69.58-80.71-111.4,0-18.84,5.78-37.21,16.91-54.44V.42C9.79,23.13,0,48.27,0,74.39c.07,46.1,30.78,89.21,86.47,121.36,54.52,31.48,126.75,48.81,203.39,48.81s148.68-17.33,202.86-48.82c55-32,85.22-74.77,85.15-120.57C577.84,48.61,567.61,23.05,548.31,0Z"/></g></g></svg>