<svg  fill="#fff" id="图层_1" data-name="图层 1" xmlns="http://www.w3.org/2000/svg" viewBox="0 0 294 121"><path d="M264.51,61v5.6c0,.65-.06.7-.73.71h-1.41c-.64,0-.68,0-.68-.69,0-3.12,0-6.23,0-9.35a1.14,1.14,0,0,0,0-.32,4.93,4.93,0,0,0-.23-.46c-.15.11-.38.19-.45.34-.48,1-.93,2-1.39,3-.84,1.86-1.67,3.72-2.52,5.57a3.39,3.39,0,0,1-.68,1.11,2.67,2.67,0,0,1-1.23.68,7.77,7.77,0,0,1-1.87,0,2.28,2.28,0,0,1-2-1.63c-.9-2-1.78-3.93-2.67-5.9-.43-1-.85-1.91-1.3-2.85-.08-.17-.3-.27-.46-.41a1.54,1.54,0,0,0-.24.55c0,3,0,6.1,0,9.15,0,1.12,0,1.12-1.09,1.12-.4,0-.8,0-1.2,0s-.54-.16-.54-.54c0-3.82,0-7.63,0-11.45,0-1.21.46-1.61,1.67-1.65.73,0,1.47,0,2.2,0a1.92,1.92,0,0,1,2,1.36c1.17,2.74,2.36,5.47,3.55,8.2a8.9,8.9,0,0,0,.47,1c.11.19.33.41.5.41s.41-.23.49-.41c1.33-3,2.66-6,3.93-9.06a2.14,2.14,0,0,1,2.3-1.55c.64,0,1.29,0,1.93,0,1.18,0,1.6.45,1.64,1.64,0,.88,0,1.77,0,2.66Z"/><path d="M143.08,60.32a3,3,0,0,1,1.31,3,13.68,13.68,0,0,1-.14,1.82,2.44,2.44,0,0,1-2.21,2,7.3,7.3,0,0,1-1.14.09c-3.75,0-7.5,0-11.24,0-.75,0-.85-.1-.85-.83v-12c0-.73.1-.84.85-.84,3.59,0,7.18,0,10.77,0a8.34,8.34,0,0,1,1.86.2A2.33,2.33,0,0,1,144.22,56a14.2,14.2,0,0,1,0,2.44A2.62,2.62,0,0,1,143.08,60.32Zm-11.31,1.15c0,.92,0,1.76,0,2.59,0,.49.16.62.63.62,2.42,0,4.84,0,7.26,0,1.65,0,2-.4,1.83-2.05a1.09,1.09,0,0,0-1.09-1.11c-.26,0-.52,0-.78,0h-7.84Zm0-2.15a2.88,2.88,0,0,0,.35,0H140a3.33,3.33,0,0,0,.77-.11.87.87,0,0,0,.7-.87,9,9,0,0,0,0-1,.89.89,0,0,0-.71-.87,3.19,3.19,0,0,0-.87-.1h-5.28c-.79,0-1.57,0-2.36,0-.15,0-.43.17-.43.28C131.76,57.53,131.78,58.41,131.78,59.32Z"/><path d="M106.49,63.09v3.52c0,.63-.06.7-.67.71h-1.68c-.44,0-.62-.17-.61-.62,0-1.29,0-2.58,0-3.86V54.58c0-.79.11-.91.91-.91,3.31,0,6.61,0,9.92,0a9.48,9.48,0,0,1,1.92.2,2.77,2.77,0,0,1,2.32,2.45,16.48,16.48,0,0,1,.05,3.58,2.88,2.88,0,0,1-2.39,2.7l-.33.11c.09.14.16.26.24.36,1,1.19,1.9,2.36,2.84,3.55a1.86,1.86,0,0,1,.22.54,2.19,2.19,0,0,1-.53.14c-.72,0-1.43,0-2.15,0a1.15,1.15,0,0,1-.73-.37c-.93-1.17-1.82-2.38-2.74-3.56a.81.81,0,0,0-.53-.33c-2,0-3.9,0-5.85,0A.69.69,0,0,0,106.49,63.09Zm4.13-6.75h0c-1.17,0-2.34,0-3.5,0-.47,0-.65.11-.64.61,0,1.06,0,2.12,0,3.19,0,.44.15.55.57.55,2.21,0,4.42,0,6.64,0a7.28,7.28,0,0,0,.93-.07,1.24,1.24,0,0,0,1.12-1.08,7.59,7.59,0,0,0,.08-1.35c0-1.3-.51-1.81-1.8-1.82C112.88,56.33,111.75,56.34,110.62,56.34Z"/><path d="M204.57,62.69l1.7,2.12c.5.63,1,1.24,1.5,1.88a.55.55,0,0,1,.14.45c0,.1-.28.17-.44.17-.71,0-1.43,0-2.14,0a.93.93,0,0,1-.84-.41c-.87-1.18-1.77-2.33-2.64-3.51a.88.88,0,0,0-.78-.4c-1.76,0-3.52,0-5.28,0h-.59v1.09c0,.89,0,1.78,0,2.67,0,.37-.15.55-.53.54h-1.93c-.34,0-.49-.16-.49-.52V54.31c0-.45.23-.63.64-.63h10a12.62,12.62,0,0,1,1.51.09,3,3,0,0,1,3,2.88,14.5,14.5,0,0,1,.06,2.87A3.16,3.16,0,0,1,204.57,62.69Zm-5.24-6.35h0c-1.17,0-2.33,0-3.5,0-.47,0-.65.12-.64.61,0,1.06,0,2.13,0,3.19,0,.45.16.55.58.55,2.23,0,4.45,0,6.68,0a4,4,0,0,0,.78-.07,1.35,1.35,0,0,0,1.28-1.4c0-.36,0-.73,0-1.09,0-1.24-.51-1.76-1.74-1.77S200.48,56.34,199.33,56.34Z"/><path d="M217.24,58.76c0-1.47,0-2.93,0-4.4,0-.51.18-.69.67-.67s1.12,0,1.67,0,.61.23.61.68q0,3.65,0,7.31a9.5,9.5,0,0,0,.09,1.31,1.6,1.6,0,0,0,1.43,1.5,2.61,2.61,0,0,0,.56.08c2.17,0,4.33,0,6.49,0,1.38,0,2-.62,2-2,.05-2.65,0-5.3,0-7.95,0-.88,0-.91.91-.91.48,0,1,0,1.46,0s.6.15.6.59c0,2.84,0,5.68,0,8.52a6.7,6.7,0,0,1-.22,1.6,3.57,3.57,0,0,1-3.68,2.83c-2.87.1-5.75.12-8.62,0-2.51-.12-3.81-1.57-3.92-4.08-.07-1.47,0-2.93,0-4.39Z"/><path d="M77.31,67.34h-1c-.56,0-.63-.13-.37-.62.83-1.54,1.67-3.06,2.5-4.59,1.25-2.28,2.55-4.52,3.71-6.84.93-1.85,2.41-1.86,4.3-1.36.45.12.87.69,1.13,1.15,1.62,2.85,3.18,5.73,4.76,8.59l1.66,3c.29.53.23.64-.36.65s-1.33,0-2,0a.78.78,0,0,1-.81-.5c-.33-.66-.72-1.28-1-1.93a.6.6,0,0,0-.62-.36q-4.14,0-8.3,0a.66.66,0,0,0-.69.42c-.3.61-.65,1.19-.94,1.8a.86.86,0,0,1-1,.57C77.94,67.31,77.63,67.34,77.31,67.34Zm4.31-5.05h6.66c-.09-.19-.13-.31-.2-.43q-1.33-2.49-2.7-5c-.09-.17-.3-.41-.44-.41s-.35.24-.45.42c-.88,1.61-1.73,3.22-2.6,4.83Z"/><path d="M173.26,56.46h-5.87c-.61,0-.71-.1-.72-.68s0-1,0-1.42.19-.68.68-.68c1.54,0,3.07,0,4.6,0h10c.75,0,.8,0,.81.8,0,.43,0,.87,0,1.3s-.18.69-.67.68h-5.91V66.54c0,.75,0,.78-.8.79H174c-.6,0-.69-.09-.69-.7,0-3.07,0-6.13,0-9.2Z"/><path d="M154.27,60.51V54.4c0-.65.07-.72.72-.72h1.67c.39,0,.56.17.56.57q0,6.25,0,12.49c0,.43-.16.61-.59.59s-1.15,0-1.72,0-.65-.18-.64-.65c0-2.06,0-4.11,0-6.17Z"/><polygon points="47.41 66.31 52.93 74.97 58.02 72.02 50.78 60.59 47.41 66.31"/><path d="M62.67,68.54V66.18L54.74,53.84l-2.93,5,7.64,12.36,2.76-1.6a1.21,1.21,0,0,0,.46-.89Z"/><path d="M29.49,70.77,33.39,73l13-20.82-2.21-.06c-1.88,0-3.9.46-4.83,2L32,65.55l-2.48,3.81Z"/><polygon points="53.87 52.2 48.06 52.22 34.92 73.91 39.51 76.55 40.76 74.43 53.87 52.2"/><path d="M65.11,52.17a3.68,3.68,0,0,0-1.73-3l-14.44-8.3a3.76,3.76,0,0,0-3.32,0L31.58,49a3.16,3.16,0,0,0-.56.33,3.64,3.64,0,0,0-1.53,2.81v17.2L32,65.55l0-13.28a.71.71,0,0,1,0-.14,1.23,1.23,0,0,1,.5-.78c.06-.05,14.22-8.24,14.27-8.27a1.3,1.3,0,0,1,1.09,0l14.25,8.2a1.22,1.22,0,0,1,.57,1V68.7a1.23,1.23,0,0,1-.43.89l-2.76,1.6L58,72l-5.09,3-5.17,3a1.27,1.27,0,0,1-.88,0l-6.12-3.52-1.25,2.12L45,79.71l.48.27.39.22a3.56,3.56,0,0,0,1.46.3,3.89,3.89,0,0,0,1.35-.25l15-8.7a3.65,3.65,0,0,0,1.41-2.76Z"/></svg>