<?xml version="1.0" encoding="UTF-8"?><svg xmlns="http://www.w3.org/2000/svg" xmlns:xlink="http://www.w3.org/1999/xlink" viewBox="0 0 423.95 100"><defs><style>.e{fill:url(#d);}.f{fill:#0a6227;}.g{fill:#0a1627;}</style><linearGradient id="d" x1="43.85" y1="-26.09" x2="45.67" y2="155.54" gradientTransform="matrix(1, 0, 0, 1, 0, 0)" gradientUnits="userSpaceOnUse"><stop offset="0" stop-color="#00ffe0"/><stop offset=".11" stop-color="#00f7e1"/><stop offset=".27" stop-color="#00e2e7"/><stop offset=".47" stop-color="#00c1ef"/><stop offset=".7" stop-color="#0092fb"/><stop offset=".76" stop-color="#0086ff"/></linearGradient></defs><g id="a"/><g id="b"><g id="c"><g><path class="e" d="M45,68.94c-1.66,3.22-3.34,6.5-5.03,9.82-1.69,3.33-3.35,6.64-4.98,9.91,1.63,3.28,3.3,6.59,4.98,9.92l5.03-9.91,5.03,9.91c1.69-3.33,3.35-6.64,4.98-9.92-1.64-3.27-3.3-6.58-4.98-9.91-1.69-3.33-3.37-6.6-5.03-9.82Zm19.82-.42c-1.54-3.2-3.12-6.4-4.73-9.59-1.62-3.19-3.24-6.3-4.87-9.33-1.68-3.12-3.35-6.15-5.03-9.08-1.74-3.05-3.48-6-5.2-8.83-1.73,2.84-3.46,5.78-5.2,8.84-1.67,2.93-3.35,5.96-5.02,9.08-1.62,3.02-3.25,6.13-4.87,9.32h0c-1.62,3.2-3.2,6.4-4.73,9.6-1.58,3.3-3.12,6.61-4.61,9.9-1.55,3.43-3.04,6.85-4.48,10.24,1.44,3.39,2.94,6.81,4.48,10.24,1.51-3.37,3.08-6.79,4.7-10.23,1.56-3.32,3.15-6.66,4.79-10.02,1.58-3.26,3.22-6.53,4.88-9.81,1.66-3.28,3.32-6.5,4.98-9.62,1.7-3.23,3.4-6.38,5.08-9.45,1.68,3.07,3.38,6.21,5.08,9.45,1.66,3.12,3.32,6.34,4.98,9.62,1.66,3.28,3.3,6.55,4.88,9.81,1.64,3.36,3.24,6.7,4.79,10.02,1.62,3.44,3.18,6.86,4.7,10.24,1.55-3.43,3.04-6.85,4.49-10.25-1.44-3.39-2.94-6.81-4.48-10.24-1.49-3.3-3.03-6.6-4.61-9.91Zm21.49,8.83c-1.2-3.49-2.48-6.98-3.83-10.46-1.26-3.27-2.58-6.53-3.96-9.78-1.31-3.09-2.68-6.18-4.11-9.22-1.38-2.96-2.8-5.89-4.27-8.78-1.47-2.9-2.95-5.7-4.46-8.41-1.55-2.8-3.11-5.5-4.68-8.09-1.65-2.73-3.3-5.34-4.96-7.81-1.76-2.65-3.54-5.17-5.31-7.54-1.92-2.58-3.83-5-5.74-7.25-1.91,2.25-3.83,4.66-5.75,7.25-1.77,2.37-3.54,4.89-5.31,7.53-1.66,2.49-3.32,5.09-4.96,7.82-1.57,2.59-3.13,5.29-4.68,8.09-1.5,2.71-2.99,5.51-4.46,8.41-1.47,2.9-2.89,5.83-4.27,8.78-1.42,3.05-2.79,6.13-4.11,9.22-1.38,3.24-2.7,6.5-3.96,9.78-1.34,3.48-2.62,6.96-3.83,10.46C2.37,81.13,1.14,84.92,0,88.68c1.15,3.77,2.37,7.54,3.68,11.32,1.23-3.75,2.55-7.53,3.95-11.33,1.3-3.54,2.67-7.09,4.1-10.64,1.35-3.36,2.77-6.74,4.24-10.1,1.41-3.22,2.87-6.44,4.38-9.64,1.46-3.1,2.97-6.2,4.53-9.26,1.56-3.07,3.13-6.05,4.7-8.93,1.63-2.99,3.26-5.87,4.89-8.64,1.71-2.91,3.42-5.69,5.13-8.36,1.81-2.82,3.61-5.51,5.4-8.07,1.79,2.56,3.59,5.26,5.4,8.08,1.71,2.67,3.42,5.46,5.13,8.35,1.64,2.78,3.26,5.65,4.89,8.64,1.57,2.88,3.14,5.86,4.7,8.93,1.56,3.07,3.07,6.16,4.53,9.26,1.51,3.2,2.97,6.41,4.38,9.64,1.47,3.36,2.89,6.74,4.24,10.1,1.44,3.55,2.8,7.1,4.1,10.64,1.39,3.79,2.71,7.58,3.95,11.33,1.31-3.78,2.54-7.55,3.68-11.32-1.14-3.77-2.37-7.54-3.68-11.33Z"/><g><g><path class="f" d="M157.65,66.17h-18.34l-4.28,10.97h-8.16l18.78-45h5.88l18.66,45h-8.25l-4.28-10.97Zm-2.69-6.84l-6.5-16.62-6.47,16.62h12.97Z"/><path class="f" d="M197.09,46.82v6.56c-.39-.03-.89-.06-1.34-.06-5.7,0-9.06,4.39-9.06,10.75v13.07h-7.22v-29.84h6.98v4.93c2.2-3.56,5.55-5.4,10.45-5.4h.18Z"/><path class="f" d="M225.07,70.51v2.14c-1.96,3.18-5.14,4.96-8.79,4.96-5.82,0-7.63-4.51-7.63-8.91v-15.44h-4.37v-1.16l4.28-4.81,5.67-6.68h1.16v6.71h9.03v5.97h-9v12.86c0,2.02,0,5.37,4.28,5.37,1.51,0,3.83-.41,5.37-1.01Z"/><path class="f" d="M262.83,57.69v19.45h-7.13v-17.85c0-1.78,0-6.68-5.05-6.68-4.57,0-7.16,4.01-7.16,8.22v16.3h-7.22V32.48h7.22v18.65c2.11-2.82,5.49-4.31,9.41-4.31,7.22,0,9.92,4.84,9.92,10.87Z"/><path class="f" d="M275.53,73.48v-8.03c4.47,3.38,8.72,5.09,12.75,5.09,4.84,0,7.19-2.62,7.19-5.62,0-8.66-19.5-6.84-19.5-20.47,0-7,5.16-12.81,14.5-12.81,4.69,0,8.5,1.5,10.94,3.22v7.84c-3.09-2.69-6.81-4.25-10.53-4.25-5,0-7.16,2.91-7.16,5.53,0,8.03,20.06,7.12,20.06,20.97,0,7.16-5.31,12.69-14.97,12.69-5.06,0-9.84-1.59-13.28-4.16Z"/><path class="f" d="M355.07,47.29l-10.93,29.84h-4.13l-7.3-17.85-7.81,17.85h-4.1l-10.19-29.84h7.51l5.55,18.47,7.75-18.47h3l7.19,18.38,5.79-18.38h7.66Z"/><path class="f" d="M385.05,58.04v19.09h-5.94v-3.18c-2.17,2.76-5.61,3.65-8.79,3.65-5.94,0-9.41-3.15-9.41-8.2,0-6.62,6-9.83,17.22-11.4v-.47c0-1.78,.03-4.99-4.84-4.99-2.76,0-6.18,1.04-9.74,3.36v-6.09c2.88-1.84,7.01-3,11.08-3,10.42,0,10.42,7.66,10.42,11.22Zm-6.89,6.68v-1.75c-7.42,1.25-10.6,2.85-10.6,6.06,0,2.14,1.4,3.74,3.95,3.74,3.59,0,6.65-3.27,6.65-8.05Z"/><path class="f" d="M423.95,61.81c0,9.98-5.82,15.8-14.1,15.8-2.64,0-5.31-.59-7.54-1.96v15.38h-7.1V47.29h6.98v3.5c1.96-2.38,5.08-3.98,8.97-3.98,6.65,0,12.8,4.72,12.8,15Zm-7.19,.18c0-5.67-2.76-9.53-7.07-9.53s-7.27,3.59-7.27,8.85v7.9c1.66,1.84,4.01,2.79,6.38,2.79,4.84,0,7.96-3.98,7.96-10.01Z"/></g><g><path class="g" d="M157.65,66.17h-18.34l-4.28,10.97h-8.16l18.78-45h5.88l18.66,45h-8.25l-4.28-10.97Zm-2.69-6.84l-6.5-16.62-6.47,16.62h12.97Z"/><path class="g" d="M197.09,46.82v6.56c-.39-.03-.89-.06-1.34-.06-5.7,0-9.06,4.39-9.06,10.75v13.07h-7.22v-29.84h6.98v4.93c2.2-3.56,5.55-5.4,10.45-5.4h.18Z"/><path class="g" d="M225.07,70.51v2.14c-1.96,3.18-5.14,4.96-8.79,4.96-5.82,0-7.63-4.51-7.63-8.91v-15.44h-4.37v-1.16l4.28-4.81,5.67-6.68h1.16v6.71h9.03v5.97h-9v12.86c0,2.02,0,5.37,4.28,5.37,1.51,0,3.83-.41,5.37-1.01Z"/><path class="g" d="M262.83,57.69v19.45h-7.13v-17.85c0-1.78,0-6.68-5.05-6.68-4.57,0-7.16,4.01-7.16,8.22v16.3h-7.22V32.48h7.22v18.65c2.11-2.82,5.49-4.31,9.41-4.31,7.22,0,9.92,4.84,9.92,10.87Z"/><path class="g" d="M275.53,73.48v-8.03c4.47,3.38,8.72,5.09,12.75,5.09,4.84,0,7.19-2.62,7.19-5.62,0-8.66-19.5-6.84-19.5-20.47,0-7,5.16-12.81,14.5-12.81,4.69,0,8.5,1.5,10.94,3.22v7.84c-3.09-2.69-6.81-4.25-10.53-4.25-5,0-7.16,2.91-7.16,5.53,0,8.03,20.06,7.12,20.06,20.97,0,7.16-5.31,12.69-14.97,12.69-5.06,0-9.84-1.59-13.28-4.16Z"/><path class="g" d="M355.07,47.29l-10.93,29.84h-4.13l-7.3-17.85-7.81,17.85h-4.1l-10.19-29.84h7.51l5.55,18.47,7.75-18.47h3l7.19,18.38,5.79-18.38h7.66Z"/><path class="g" d="M385.05,58.04v19.09h-5.94v-3.18c-2.17,2.76-5.61,3.65-8.79,3.65-5.94,0-9.41-3.15-9.41-8.2,0-6.62,6-9.83,17.22-11.4v-.47c0-1.78,.03-4.99-4.84-4.99-2.76,0-6.18,1.04-9.74,3.36v-6.09c2.88-1.84,7.01-3,11.08-3,10.42,0,10.42,7.66,10.42,11.22Zm-6.89,6.68v-1.75c-7.42,1.25-10.6,2.85-10.6,6.06,0,2.14,1.4,3.74,3.95,3.74,3.59,0,6.65-3.27,6.65-8.05Z"/><path class="g" d="M423.95,61.81c0,9.98-5.82,15.8-14.1,15.8-2.64,0-5.31-.59-7.54-1.96v15.38h-7.1V47.29h6.98v3.5c1.96-2.38,5.08-3.98,8.97-3.98,6.65,0,12.8,4.72,12.8,15Zm-7.19,.18c0-5.67-2.76-9.53-7.07-9.53s-7.27,3.59-7.27,8.85v7.9c1.66,1.84,4.01,2.79,6.38,2.79,4.84,0,7.96-3.98,7.96-10.01Z"/></g></g></g></g></g></svg>