<svg id="图层_1" data-name="图层 1" xmlns="http://www.w3.org/2000/svg" viewBox="0 0 294 121"><defs><style>.cls-1{fill:#fff;}</style></defs><path class="cls-1" d="M66.85,69.59q-1.2,2.32-2.41,4.72c-.81,1.59-1.61,3.18-2.4,4.75q1.18,2.37,2.4,4.76l2.41-4.75,2.42,4.75c.81-1.59,1.6-3.18,2.39-4.76-.79-1.57-1.58-3.16-2.39-4.75S67.65,71.14,66.85,69.59Zm9.52-.2c-.74-1.53-1.5-3.07-2.27-4.6s-1.56-3-2.34-4.48-1.61-3-2.41-4.36-1.67-2.88-2.5-4.24C66,53.08,65.19,54.49,64.36,56s-1.61,2.86-2.42,4.36-1.55,2.94-2.33,4.47h0q-1.17,2.29-2.27,4.61c-.76,1.58-1.5,3.17-2.22,4.75S53.66,77.43,53,79.06q1,2.44,2.15,4.92,1.1-2.43,2.26-4.91t2.3-4.81q1.14-2.36,2.34-4.71t2.39-4.62q1.23-2.33,2.44-4.53,1.22,2.2,2.44,4.53c.8,1.5,1.59,3,2.39,4.62s1.58,3.14,2.34,4.71,1.56,3.21,2.3,4.81,1.53,3.29,2.26,4.91q1.11-2.46,2.15-4.92-1-2.44-2.15-4.91C77.87,72.56,77.13,71,76.37,69.39Zm10.31,4.24c-.57-1.67-1.19-3.35-1.83-5s-1.24-3.14-1.91-4.69-1.28-3-2-4.43-1.34-2.83-2-4.22-1.41-2.73-2.14-4-1.49-2.65-2.24-3.89S73,44.79,72.16,43.6s-1.7-2.48-2.55-3.62-1.84-2.4-2.76-3.48Q65.49,38.12,64.09,40T61.55,43.6q-1.2,1.78-2.39,3.75t-2.24,3.89c-.72,1.3-1.44,2.64-2.14,4s-1.39,2.8-2.05,4.22-1.34,2.94-2,4.43-1.3,3.12-1.91,4.69S47.6,72,47,73.63s-1.22,3.63-1.77,5.44q.82,2.72,1.77,5.43c.59-1.8,1.22-3.62,1.89-5.44s1.28-3.4,2-5.11,1.33-3.23,2-4.85S54.29,66,55,64.48s1.43-3,2.17-4.45,1.5-2.9,2.26-4.28S61,52.93,61.8,51.6s1.64-2.73,2.46-4,1.73-2.65,2.59-3.88c.86,1.23,1.73,2.53,2.6,3.88s1.64,2.62,2.46,4,1.56,2.72,2.34,4.15,1.51,2.81,2.26,4.28,1.47,3,2.17,4.45,1.43,3.08,2.11,4.62,1.38,3.24,2,4.85,1.35,3.41,2,5.11,1.3,3.64,1.89,5.44q.94-2.72,1.77-5.43C87.9,77.26,87.32,75.45,86.68,73.63Z"/><path class="cls-1" d="M115.16,51.93l-9,21.6h3.91l2.06-5.27h8.8L123,73.53h4l-9-21.6ZM113.41,65l3.1-8,3.12,8Z"/><path class="cls-1" d="M134.75,61.57V59.2H131.4V73.53h3.47V67.25c0-3,1.61-5.16,4.34-5.16.22,0,.46,0,.64,0V59h-.08A5.43,5.43,0,0,0,134.75,61.57Z"/><path class="cls-1" d="M148.65,68.25V62.08H153V59.22h-4.33V56h-.56l-2.72,3.21-2.05,2.31v.56h2.09v7.41c0,2.11.87,4.27,3.66,4.27a4.83,4.83,0,0,0,4.22-2.38v-1a8.44,8.44,0,0,1-2.58.48C148.65,70.83,148.65,69.22,148.65,68.25Z"/><path class="cls-1" d="M166.65,59A5.48,5.48,0,0,0,162.13,61V52.09h-3.46V73.53h3.46V65.7c0-2,1.24-4,3.43-4C168,61.75,168,64.1,168,65v8.57h3.42V64.19C171.41,61.3,170.11,59,166.65,59Z"/><path class="cls-1" d="M181.44,57.61c0-1.26,1-2.65,3.43-2.65a7.82,7.82,0,0,1,5.06,2V53.23a9.25,9.25,0,0,0-5.25-1.54c-4.49,0-7,2.79-7,6.15,0,6.54,9.36,5.67,9.36,9.82,0,1.44-1.13,2.7-3.45,2.7a10.3,10.3,0,0,1-6.12-2.44v3.85a10.81,10.81,0,0,0,6.37,2c4.64,0,7.19-2.66,7.19-6.09C191.07,61,181.44,61.47,181.44,57.61Z"/><polygon class="cls-1" points="209.23 68.02 205.78 59.2 204.34 59.2 200.62 68.07 197.95 59.2 194.35 59.2 199.24 73.53 201.2 73.53 204.95 64.96 208.46 73.53 210.44 73.53 215.69 59.2 212.01 59.2 209.23 68.02"/><path class="cls-1" d="M225.07,59a10.27,10.27,0,0,0-5.31,1.44v2.92a8.86,8.86,0,0,1,4.67-1.61c2.34,0,2.32,1.54,2.32,2.4v.23c-5.38.75-8.26,2.29-8.26,5.47,0,2.42,1.66,3.93,4.51,3.93A5.18,5.18,0,0,0,227.22,72v1.53h2.85V64.36C230.07,62.65,230.07,59,225.07,59Zm1.7,8.6c0,2.29-1.47,3.86-3.2,3.86a1.73,1.73,0,0,1-1.89-1.8c0-1.54,1.52-2.31,5.09-2.9Z"/><path class="cls-1" d="M242.61,59a5.47,5.47,0,0,0-4.31,1.91V59.2H235v21h3.41V72.81a6.9,6.9,0,0,0,3.62.94c4,0,6.77-2.79,6.77-7.58S245.8,59,242.61,59Zm-1.13,12.09a4.11,4.11,0,0,1-3.06-1.34V65.93c0-2.52,1.51-4.25,3.49-4.25s3.39,1.85,3.39,4.58C245.3,69.15,243.8,71.06,241.48,71.06Z"/></svg>