<svg width="230"  height="60" viewBox="0 0 400 104" fill="none" xmlns="http://www.w3.org/2000/svg" class="Header_Logo__3uD14">
<path
 d="M115.997 53.039l.753-.749c1.681-1.673 2.144-2.65 2.144-5.188v-2.478c0-2.826-.406-3.631-2.087-5.304l-1.622-1.614c-1.505-1.497-2.607-1.845-5.041-1.845H94.329c-1.275 0-1.795.52-1.795 1.786V69.81c0 1.269.522 1.786 1.795 1.786h16.915c2.434 0 3.535-.345 5.041-1.845l1.621-1.613c1.681-1.673 2.087-2.479 2.087-5.304v-2.71c0-2.825-.406-3.515-2.087-5.188l-1.909-1.897zM99.025 41.397h9.906c.696 0 1.102.115 1.505.52l1.565 1.556c.406.404.522.692.522 1.153v3.17c0 .461-.116.75-.522 1.153l-1.448 1.442c-.406.403-.812.52-1.506.52H99.025v-9.514zm14.541 21.442c0 .46-.117.748-.523 1.152l-1.564 1.557c-.406.404-.812.52-1.508.52H99.023v-9.802h11.064c.696 0 1.102.116 1.506.52l1.448 1.441c.406.404.523.692.523 1.153v3.459h.002zM167.79 56.094c0 .576-.176.98-.523 1.44l-6.546 8.704-6.546-8.703c-.347-.46-.522-.865-.522-1.441V35.86h-6.487v20.233c0 .576-.174.98-.523 1.44l-6.546 8.704-6.546-8.703c-.347-.46-.522-.865-.522-1.441V35.86h-6.487v19.944c0 2.594.463 3.516 1.738 5.188l6.836 8.992c.926 1.21 2.028 1.96 4.229 1.96h1.507c2.201 0 3.303-.748 4.229-1.96l5.331-6.974 5.33 6.974c.926 1.21 2.028 1.96 4.229 1.96h1.507c2.201 0 3.303-.748 4.229-1.96l6.836-8.992c1.275-1.67 1.738-2.594 1.738-5.188V35.861h-6.487v20.233h-.004zM203.187 38.686c-1.565-2.478-2.318-3.17-5.678-3.17h-3.127c-3.359 0-4.112.692-5.677 3.17l-5.677 9.108c-1.505 2.362-1.738 4.207-1.738 6.917V71.6h6.43v-9.165h16.452V71.6h6.43V54.71c0-2.709-.233-4.552-1.738-6.916l-5.677-9.108zm.983 18.1h-16.452v-2.19c0-1.73.289-2.71 1.042-3.92l5.271-8.647c.29-.46.463-.52.985-.52h1.855c.522 0 .695.06.985.52l5.271 8.647c.753 1.21 1.043 2.19 1.043 3.92v2.19zM242.347 58.17l1.622-1.613c1.681-1.67 2.085-2.479 2.085-5.304v-6.63c0-2.825-.406-3.63-2.085-5.303l-1.622-1.614c-1.505-1.497-2.78-1.845-5.387-1.845h-16.975c-1.275 0-1.795.52-1.795 1.786V71.6h6.49V60.013h10.138l4.692 11.586h6.893l-5.214-12.45a8.67 8.67 0 001.158-.979zm-2.723-7.033c0 .46-.116.75-.522 1.153l-1.565 1.557c-.406.404-.812.52-1.505.52h-11.355V41.512h11.298c.812 0 1.215.173 1.738.693l1.218 1.21c.522.519.695.864.695 1.556v6.166h-.002zM260.48 56.498h14.774v-5.65H260.48V41.51h17.784v-5.649h-22.478c-1.275 0-1.795.52-1.795 1.786V69.81c0 1.269.523 1.786 1.795 1.786h22.882v-5.648h-18.19v-9.45h.002zM288.23 35.861h-1.912v34.816c0 .633.233.922.926.922h18.943v-1.67H288.23V35.86zM329.997 37.821c-1.101-1.96-2.201-2.305-4.228-2.305h-2.375c-2.027 0-3.127.345-4.229 2.305l-5.85 10.433c-1.275 2.306-1.505 3.4-1.505 6.282v17.062h1.854V60.82h21.839v10.778h1.855V54.536c0-2.882-.233-3.978-1.508-6.282l-5.853-10.433zm5.504 21.27h-21.839v-4.553c0-2.421.289-3.803 1.275-5.533l5.734-10.203c.753-1.326 1.332-1.557 2.897-1.557h2.027c1.565 0 2.144.231 2.897 1.557l5.734 10.203c.986 1.73 1.275 3.112 1.275 5.533v4.553zM365.857 54.25c-.463-.46-.752-.748-1.158-.92.289-.173.638-.461.928-.75l1.102-1.096c1.332-1.325 1.564-2.074 1.564-4.035v-4.323c0-1.96-.232-2.71-1.564-4.035l-1.681-1.673c-1.275-1.268-2.201-1.557-4.462-1.557h-14.191c-.696 0-.929.289-.929.922v33.894c0 .633.233.922.929.922h15.177c2.258 0 3.186-.289 4.461-1.557l1.681-1.673c1.332-1.325 1.565-2.074 1.565-4.035v-4.208c0-1.96-.233-2.71-1.565-4.035l-1.857-1.84zm-18.479-16.773h13.092c1.622 0 2.317.232 3.127 1.037l1.565 1.557c1.042 1.037 1.216 1.382 1.216 2.998v4.496c0 1.614-.174 1.96-1.216 2.998l-.926.921c-.986.98-1.449 1.038-2.607 1.038h-14.251V37.477zm19.985 26.918c0 1.614-.174 1.961-1.216 2.998l-1.565 1.557c-.812.808-1.505 1.037-3.127 1.037h-14.077V54.078h14.308c1.391 0 1.854.345 2.953 1.441l1.508 1.498c1.042 1.037 1.216 1.385 1.216 2.998v4.38zM398.531 54.884c-1.042-.98-2.433-1.385-4.808-1.614l-10.658-.921c-1.971-.173-3.014-.461-3.65-1.097-.696-.692-1.042-1.845-1.042-3.746v-4.324c0-1.613.173-1.96 1.218-2.998l1.854-1.845c.812-.808 1.505-1.037 3.129-1.037h5.678c1.795 0 2.723.116 4.461 1.037l3.243 1.67.869-1.382-2.78-1.672c-1.911-1.153-2.954-1.441-5.387-1.441h-6.2c-2.26 0-3.186.288-4.461 1.556l-1.969 1.961c-1.332 1.326-1.564 2.075-1.564 4.035v4.38c0 2.535.406 4.092 1.448 5.073 1.042.98 2.434 1.384 4.808 1.613l10.659.922c1.97.172 3.013.46 3.649 1.096.696.692 1.043 1.845 1.043 3.747v4.38c0 1.614-.174 1.96-1.216 2.998L395 69.12c-.812.808-1.507 1.037-3.129 1.037h-7.066c-1.797 0-2.724-.116-4.462-1.037l-3.243-1.67-.869 1.382 2.78 1.672c1.912 1.153 2.954 1.441 5.388 1.441h7.591c2.258 0 3.186-.288 4.461-1.556l1.968-1.961c1.333-1.326 1.565-2.075 1.565-4.035v-4.44c-.007-2.532-.41-4.089-1.453-5.07z"  fill="#333"></path><path d="M41.855 2.182L40.371.987l-1.483 1.195-.058.046L.11 33.41v36.732l40.261 32.426 40.26-32.426V33.41L41.91 2.228l-.056-.046zm.056 4.086L75.615 33.41 55.318 49.758l2.508 2.02 19.721-15.883.038 32.17-1.711 1.882-33.963 27.341V64.597l13.41-10.799-2.509-2.02L40.37 61.8l-12.396-9.983-2.508 2.02 13.36 10.76v32.694l-33.7-27.148-1.932-2.253V35.895L22.986 51.8l2.508-2.02-20.369-16.37L38.83 6.266" fill="#FDB913"></path><path d="M41.933 3.314h-3.079v35.71L.174 70.178l40.22 32.392 40.22-32.392-38.68-31.154V3.314zm-1.54 95.222L5.184 70.178l35.21-28.359 35.211 28.359-35.21 28.358z" fill="url(#logo_svg__paint0_radial_3330_2132)"></path><defs><radialGradient id="logo_svg__paint0_radial_3330_2132" cx="0" cy="0" r="1" gradientUnits="userSpaceOnUse" gradientTransform="translate(40.394 43.243) scale(44.2912)"><stop stop-color="#FAFBFB" stop-opacity="0"></stop><stop offset="0.169" stop-color="#FBE6B0" stop-opacity="0.262"></stop><stop offset="0.337" stop-color="#FCD36D" stop-opacity="0.524"></stop><stop offset="0.477" stop-color="#FCC53C" stop-opacity="0.742"></stop><stop offset="0.584" stop-color="#FDBC1E" stop-opacity="0.907"></stop><stop offset="0.644" stop-color="#FDB913"></stop></radialGradient></defs></svg>