<svg  fill="#fff" id="图层_1" data-name="图层 1" xmlns="http://www.w3.org/2000/svg" viewBox="0 0 294 121"><path d="M77.4,38.5a12.6,12.6,0,0,0-11.59,7.87,12.76,12.76,0,0,0-.93,4.85v4.2H75.05V49.33a2.17,2.17,0,0,1,.63-1.54,2.19,2.19,0,0,1,1.53-.64h.37a2.16,2.16,0,0,1,.83.17,2.21,2.21,0,0,1,.7.47,2.17,2.17,0,0,1,.63,1.54V65.64a10.23,10.23,0,0,0,3.9-.77,10.28,10.28,0,0,0,6.28-9.45v-4.2a12.78,12.78,0,0,0-3.67-9A12.37,12.37,0,0,0,77.4,38.5Z"/><path d="M77.58,73.9h-.37a2.1,2.1,0,0,1-.82-.16,2,2,0,0,1-.71-.48,2.21,2.21,0,0,1-.47-.7,2.4,2.4,0,0,1-.16-.83V55.41a10.21,10.21,0,0,0-9.4,6.32,10.28,10.28,0,0,0-.77,3.91v4.14a12.56,12.56,0,0,0,7.7,11.75,12.46,12.46,0,0,0,9.64,0,12.58,12.58,0,0,0,4.08-2.76,12.69,12.69,0,0,0,3.62-9V65.64H79.74v6.09a2.19,2.19,0,0,1-.16.83,2.21,2.21,0,0,1-.47.7,2.08,2.08,0,0,1-.7.48A2.15,2.15,0,0,1,77.58,73.9Zm29.73-22.49h-3.57V69.6H114.2V66.17h-6.89Zm18.31,6.74a5,5,0,0,0-1.88-1.46,5,5,0,0,0-2.33-.44,5.82,5.82,0,0,0-4.43,2A7.33,7.33,0,0,0,117,68a5.82,5.82,0,0,0,4.43,2,5,5,0,0,0,4.21-1.9v1.54H129v-13h-3.34Zm-1,7.6a3.44,3.44,0,0,1-2.57,1,3.27,3.27,0,0,1-1.38-.24,3.47,3.47,0,0,1-1.18-.78,4,4,0,0,1,0-5.28,3.57,3.57,0,0,1,1.18-.78,4.12,4.12,0,0,1,2.77,0,3.62,3.62,0,0,1,1.18.78,3.93,3.93,0,0,1,0,5.28Zm12.94-.41-3.37-8.73h-3.64l5.3,12.57a4,4,0,0,1-1.26,1.92,3.29,3.29,0,0,1-2.13.57v3.12a6.07,6.07,0,0,0,4.14-1.13,8.56,8.56,0,0,0,2.67-4l4.71-13H140.4Zm13.64-9.09a6.69,6.69,0,0,0-2.66.46,6.58,6.58,0,0,0-2.25,1.5,7.23,7.23,0,0,0,0,9.81,7,7,0,0,0,5.15,2,6.41,6.41,0,0,0,5.63-2.78l-2.69-1.56a3.46,3.46,0,0,1-1.29,1,3.51,3.51,0,0,1-1.6.29c-2,0-3.2-.82-3.65-2.44h9.75a8,8,0,0,0,.12-1.38,6.9,6.9,0,0,0-1.84-4.89,6.26,6.26,0,0,0-2.14-1.49A6,6,0,0,0,151.18,56.25Zm-3.39,5.64A3.28,3.28,0,0,1,149,60a3.47,3.47,0,0,1,2.22-.69,3.37,3.37,0,0,1,2,.65,3.18,3.18,0,0,1,1.17,2Zm15.58-3V56.61H160v13h3.33V63.39a3,3,0,0,1,1.2-2.68,4,4,0,0,1,2.73-.62V56.35a4.66,4.66,0,0,0-2.39.62A3.51,3.51,0,0,0,163.37,58.84Zm20.18-4.61V51.41H171.69v3.43H179L171.5,66.73V69.6h12.19V66.17H176Zm8,2a6.53,6.53,0,0,0-4.91,2,7.21,7.21,0,0,0,0,9.81,6.93,6.93,0,0,0,5.14,2,6.39,6.39,0,0,0,5.63-2.78l-2.68-1.56a3.4,3.4,0,0,1-2.9,1.3c-2,0-3.19-.82-3.64-2.44H198a8.06,8.06,0,0,0,.13-1.38,6.86,6.86,0,0,0-1.85-4.89,6.17,6.17,0,0,0-4.69-2Zm-3.38,5.64A3.31,3.31,0,0,1,189.34,60a3.49,3.49,0,0,1,2.22-.69,3.37,3.37,0,0,1,2,.65,3.15,3.15,0,0,1,1.18,2Zm15.58-3V56.61h-3.33v13h3.33V63.39a3,3,0,0,1,1.2-2.68,3.92,3.92,0,0,1,2.73-.62V56.35a4.64,4.64,0,0,0-2.39.62A3.47,3.47,0,0,0,203.76,58.84Zm11.53-2.59A6.72,6.72,0,0,0,211,57.84a6.82,6.82,0,0,0,1.8,11.52,6.66,6.66,0,0,0,4.55.2,6.81,6.81,0,0,0,2.78-11.32,6.48,6.48,0,0,0-4.85-2Zm2.5,9.43a3.21,3.21,0,0,1-1.15.76,3.3,3.3,0,0,1-1.35.25,3.49,3.49,0,0,1-1.36-.24,3.64,3.64,0,0,1-1.14-.77,3.84,3.84,0,0,1,0-5.15,3.45,3.45,0,0,1,1.14-.76,3.8,3.8,0,0,1,2.71,0,3.21,3.21,0,0,1,1.15.76,3.79,3.79,0,0,1,0,5.15Zm11.33-.08h-4.05v4h4.05Z"/></svg>