<svg  fill="#fff" id="图层_1" data-name="图层 1" xmlns="http://www.w3.org/2000/svg" viewBox="0 0 294 121"><path d="M102.17,69,88,72.33A1.25,1.25,0,0,0,87,73.5v9.8a1.16,1.16,0,0,0,1.47,1.17l19.85-4.6a1.15,1.15,0,0,0,.82-1.69l-3.59-7.4a1.79,1.79,0,0,1,1.25-2.65l13-3.12a2.31,2.31,0,0,0,1.69-2.12V53.83A1.14,1.14,0,0,0,120,52.66l-18.72,4.47a1.68,1.68,0,0,0-1.17,2.47l3.29,6.8A1.79,1.79,0,0,1,102.17,69Z"/><path d="M92.79,44.56l3.72,7.63a1.52,1.52,0,0,1-1.08,2.25L88.56,56A2.13,2.13,0,0,0,87,58v8.19a1.92,1.92,0,0,0,2.46,1.95l6.4-1.47a2.07,2.07,0,0,0,1.56-2l0-8.41a2.82,2.82,0,0,1,2.08-2.6l21-5a1.25,1.25,0,0,0,.9-1.17V37.72a1.13,1.13,0,0,0-1.47-1.17L93.61,42.87A1.16,1.16,0,0,0,92.79,44.56Z"/><path d="M157,67.36H145V48.5H139.5v24H157Z"/><path d="M160.61,72.5h5.53v-24h-5.53Z"/><path d="M170.26,72.5h5.26V67.22h-5.26Z"/><path d="M185.16,63.14h11.57V58.41H185.16v-5h12.56V48.5H179.63v24h5.53Z"/><path d="M201.47,72.5H207v-24h-5.53Z"/></svg>