<svg id="图层_1" fill="#fff" data-name="图层 1" xmlns="http://www.w3.org/2000/svg" viewBox="0 0 294 121"><path d="M73.84,63.42H66.62v5h6.64v3.74H66.62v8H62V59.66H73.84Zm8.37,17.07a7.85,7.85,0,0,1-5.75-2,7.43,7.43,0,0,1-2.09-5.56,7.43,7.43,0,0,1,2.17-5.67,8.19,8.19,0,0,1,5.87-2,7.74,7.74,0,0,1,5.71,2,7.27,7.27,0,0,1,2.07,5.42,7.74,7.74,0,0,1-2.13,5.75A8,8,0,0,1,82.21,80.49Zm.11-11.87a3,3,0,0,0-2.48,1.09A4.87,4.87,0,0,0,79,72.83c0,2.8,1.13,4.21,3.39,4.21s3.24-1.44,3.24-4.33q0-4.09-3.26-4.09Zm23.11,11.52h-4.49V77.91h-.07A5.11,5.11,0,0,1,96.4,80.5c-3.39,0-5.09-2.06-5.09-6.16V65.52h4.5v8.42c0,2.07.82,3.1,2.45,3.1a2.43,2.43,0,0,0,1.95-.85,3.48,3.48,0,0,0,.73-2.3V65.52h4.49Zm15.58,0h-4.49V72c0-2.26-.81-3.4-2.43-3.39a2.37,2.37,0,0,0-1.92.89,3.4,3.4,0,0,0-.76,2.29v8.34h-4.52V65.52h4.52v2.31h0a5.21,5.21,0,0,1,4.7-2.67c3.24,0,4.85,2,4.85,6Zm16.3,0H132.8v-2h-.06a5.05,5.05,0,0,1-4.52,2.37,5.53,5.53,0,0,1-4.41-1.93,8,8,0,0,1-1.67-5.41A8.72,8.72,0,0,1,124,67.34a6,6,0,0,1,4.83-2.18,4.11,4.11,0,0,1,3.94,2h.05v-8.7h4.52ZM132.88,73v-1.1a3.43,3.43,0,0,0-.83-2.37,2.91,2.91,0,0,0-4.13-.16,3.42,3.42,0,0,0-.36.4,5.51,5.51,0,0,0-.84,3.24,4.72,4.72,0,0,0,.81,3A2.68,2.68,0,0,0,129.78,77a2.73,2.73,0,0,0,2.24-1.1,4.58,4.58,0,0,0,.87-2.91Zm19.56,1.09H142.9q.22,3.18,4,3.18a7.82,7.82,0,0,0,4.24-1.14V79.4a11,11,0,0,1-5.26,1.09,6.81,6.81,0,0,1-7.46-7.44,7.8,7.8,0,0,1,2.12-5.76,7,7,0,0,1,5.19-2.13,6.39,6.39,0,0,1,4.95,1.9,7.29,7.29,0,0,1,1.75,5.15Zm-4.18-2.77q0-3.15-2.55-3.15a2.46,2.46,0,0,0-1.87.9,4.05,4.05,0,0,0-1,2.24Zm15-1.76a4,4,0,0,0-1.9-.44,2.72,2.72,0,0,0-2.3,1.08,4.72,4.72,0,0,0-.83,2.93v7h-4.51V65.52h4.51v2.71h.06a3.9,3.9,0,0,1,3.85-3,2.86,2.86,0,0,1,1.12.17Zm1,10.17V76.09a9.63,9.63,0,0,0,2.22,1,7.42,7.42,0,0,0,2.09.33,4.45,4.45,0,0,0,1.89-.33,1.06,1.06,0,0,0,.7-1,.93.93,0,0,0-.32-.71,2.9,2.9,0,0,0-.8-.5A8.13,8.13,0,0,0,169,74.5a10,10,0,0,1-1.13-.39,10.57,10.57,0,0,1-1.53-.7,4.36,4.36,0,0,1-1.12-.88,3.48,3.48,0,0,1-.68-1.16,4.59,4.59,0,0,1-.24-1.56,4,4,0,0,1,.54-2.11,4.28,4.28,0,0,1,1.42-1.45,6.59,6.59,0,0,1,2-.83,10.2,10.2,0,0,1,2.4-.26,13,13,0,0,1,2,.15,15.06,15.06,0,0,1,2,.43v3.48a7.1,7.1,0,0,0-1.83-.74,7.78,7.78,0,0,0-1.92-.25,4.58,4.58,0,0,0-.83.08,2.44,2.44,0,0,0-.69.23,1.26,1.26,0,0,0-.47.38,1,1,0,0,0-.17.54,1,1,0,0,0,.26.68,2.14,2.14,0,0,0,.66.5,6.55,6.55,0,0,0,.92.37l1,.33a15.61,15.61,0,0,1,1.63.69,5.39,5.39,0,0,1,1.25.87,3.64,3.64,0,0,1,.8,1.17,4.68,4.68,0,0,1-.29,3.82,4.55,4.55,0,0,1-1.49,1.5,6.65,6.65,0,0,1-2.15.84,12,12,0,0,1-2.54.27A13.19,13.19,0,0,1,164.3,79.75Zm35.46.39h-4.64V71.79h-8.46v8.34h-4.61V59.66h4.61v8.17h8.48V59.66h4.63Zm15.58,0h-4.5V77.91h-.07a5.11,5.11,0,0,1-4.47,2.59c-3.39,0-5.09-2-5.08-6.15V65.52h4.49v8.42c0,2.07.82,3.1,2.46,3.1a2.41,2.41,0,0,0,1.94-.85,3.38,3.38,0,0,0,.73-2.3V65.52h4.5Zm6-1.7h-.06v1.7h-4.51V58.49h4.51v9.22h.06a5.37,5.37,0,0,1,4.76-2.55,5.23,5.23,0,0,1,4.35,1.94A8.36,8.36,0,0,1,232,72.41a9.06,9.06,0,0,1-1.79,5.87,5.83,5.83,0,0,1-4.77,2.21,4.59,4.59,0,0,1-4.07-2Zm-.13-6.17v1.51a3.39,3.39,0,0,0,.82,2.34,2.64,2.64,0,0,0,2.08.93,2.75,2.75,0,0,0,2.39-1.2,5.71,5.71,0,0,0,.85-3.37,4.57,4.57,0,0,0-.78-2.84,2.65,2.65,0,0,0-2.21-1,2.87,2.87,0,0,0-2.25,1,3.8,3.8,0,0,0-.89,2.64Z"/><path d="M71.14,49.63h-1.4V44.12c0-.45,0-1,.08-1.65h0a7.32,7.32,0,0,1-.23.8L67,49.63h-1l-2.55-6.31a5.9,5.9,0,0,1-.23-.85h0c0,.35.05.9.05,1.67v5.49H62V41.12h2l2.23,5.67a7.91,7.91,0,0,1,.33,1h0q.23-.67.36-1l2.28-5.64h1.91Zm2.21-7.35a.89.89,0,0,1-.58-.22.77.77,0,0,1,0-1.12.83.83,0,0,1,.58-.23.86.86,0,0,1,.59.23A.75.75,0,0,1,74,42l0,0a.81.81,0,0,1-.59.23ZM74,49.63H72.66V43.55H74Zm5.84-.28a3.46,3.46,0,0,1-1.72.43A2.92,2.92,0,0,1,76,48.93a3,3,0,0,1-.82-2.19A3.28,3.28,0,0,1,76,44.33a3.17,3.17,0,0,1,2.39-.91,3.5,3.5,0,0,1,1.46.29V45a2.26,2.26,0,0,0-1.35-.48,1.92,1.92,0,0,0-1.43.59,2.22,2.22,0,0,0-.56,1.55,2.07,2.07,0,0,0,.53,1.49,1.84,1.84,0,0,0,1.4.54,2.16,2.16,0,0,0,1.4-.52Zm4.58-4.49a1.12,1.12,0,0,0-.71-.19,1.22,1.22,0,0,0-1,.55,2.49,2.49,0,0,0-.41,1.5v2.91H80.93V43.55h1.38v1.26h0a2.2,2.2,0,0,1,.62-1,1.41,1.41,0,0,1,.94-.36,1.09,1.09,0,0,1,.56.12Zm3.26,4.92a3,3,0,0,1-2.24-.85,3.08,3.08,0,0,1-.84-2.26,3,3,0,0,1,3.23-3.25,2.91,2.91,0,0,1,2.22.84,3.21,3.21,0,0,1,.79,2.31A3.15,3.15,0,0,1,90,48.9,3.09,3.09,0,0,1,87.71,49.78Zm.06-5.26a1.56,1.56,0,0,0-1.27.56A2.37,2.37,0,0,0,86,46.63a2.22,2.22,0,0,0,.48,1.51,1.59,1.59,0,0,0,1.26.55A1.55,1.55,0,0,0,89,48.15a2.41,2.41,0,0,0,.44-1.54A2.46,2.46,0,0,0,89,45.06a1.49,1.49,0,0,0-1.25-.55Zm3.81,4.93V48.17a2.78,2.78,0,0,0,1.7.59c.83,0,1.25-.25,1.25-.74a.63.63,0,0,0-.11-.35,1,1,0,0,0-.29-.26,2,2,0,0,0-.42-.2l-.55-.2a6,6,0,0,1-.68-.32,2,2,0,0,1-.49-.37,1.5,1.5,0,0,1-.3-.48,1.87,1.87,0,0,1-.1-.62,1.43,1.43,0,0,1,.21-.78,1.84,1.84,0,0,1,.55-.56,2.68,2.68,0,0,1,.8-.34,3.57,3.57,0,0,1,.92-.12,4.26,4.26,0,0,1,1.5.25v1.21a2.47,2.47,0,0,0-1.47-.44,1.87,1.87,0,0,0-.47,0,1.14,1.14,0,0,0-.36.15.84.84,0,0,0-.23.23.51.51,0,0,0-.08.29.54.54,0,0,0,.08.33.72.72,0,0,0,.25.24,1.76,1.76,0,0,0,.39.19l.52.19c.24.1.48.21.71.33a2.45,2.45,0,0,1,.53.38,1.54,1.54,0,0,1,.34.49,1.73,1.73,0,0,1-.09,1.46,1.82,1.82,0,0,1-.57.57,2.58,2.58,0,0,1-.83.33,4,4,0,0,1-1,.12,4.23,4.23,0,0,1-1.72-.34Zm8,.33a3,3,0,0,1-2.25-.85,3.08,3.08,0,0,1-.84-2.26,3,3,0,0,1,3.24-3.25,2.91,2.91,0,0,1,2.22.84,3.25,3.25,0,0,1,.79,2.31,3.19,3.19,0,0,1-.86,2.33A3.09,3.09,0,0,1,99.59,49.78Zm.06-5.26a1.55,1.55,0,0,0-1.27.56,2.37,2.37,0,0,0-.47,1.55,2.22,2.22,0,0,0,.48,1.51,1.59,1.59,0,0,0,1.26.55,1.55,1.55,0,0,0,1.25-.54,2.41,2.41,0,0,0,.44-1.54,2.46,2.46,0,0,0-.44-1.55,1.48,1.48,0,0,0-1.24-.55Zm7.43-2.76a1.29,1.29,0,0,0-.64-.16c-.67,0-1,.38-1,1.13v.83h1.41v1.08h-1.4v5h-1.38v-5h-1V43.55h1v-1a1.92,1.92,0,0,1,.63-1.52,2.67,2.67,0,0,1,2.38-.44Zm4,7.81a2.28,2.28,0,0,1-1.06.2c-1.18,0-1.77-.56-1.77-1.69V44.63h-1V43.55h1v-1.4l1.38-.39v1.79h1.45v1.08h-1.45v3a1.19,1.19,0,0,0,.2.77.79.79,0,0,0,.65.23.9.9,0,0,0,.61-.2Zm7.35-7.81a1.26,1.26,0,0,0-.63-.16c-.67,0-1,.38-1,1.13v.83h1.41v1.08h-1.41v5h-1.37v-5h-1V43.55h1v-1a1.92,1.92,0,0,1,.63-1.52,2.65,2.65,0,0,1,2.37-.44Zm3.15,8a3,3,0,0,1-2.25-.85,3.08,3.08,0,0,1-.84-2.26,3.17,3.17,0,0,1,.88-2.39,3.23,3.23,0,0,1,2.36-.86,2.9,2.9,0,0,1,2.21.84,3.66,3.66,0,0,1-.06,4.64,3.09,3.09,0,0,1-2.3.88Zm.06-5.26a1.55,1.55,0,0,0-1.27.56,2.3,2.3,0,0,0-.47,1.55,2.22,2.22,0,0,0,.47,1.51,1.61,1.61,0,0,0,1.27.55,1.56,1.56,0,0,0,1.25-.54,2.41,2.41,0,0,0,.43-1.54,2.46,2.46,0,0,0-.43-1.55,1.53,1.53,0,0,0-1.25-.55Zm7.66.35a1.15,1.15,0,0,0-.72-.19,1.24,1.24,0,0,0-1,.55,2.49,2.49,0,0,0-.41,1.5v2.91h-1.38V43.56h1.38v1.25h0a2.11,2.11,0,0,1,.62-1,1.39,1.39,0,0,1,.93-.36,1.13,1.13,0,0,1,.57.12Zm3.47,4.41V47.83a2.1,2.1,0,0,0,.46.32,3.46,3.46,0,0,0,.57.24c.2.06.41.11.61.15a3.43,3.43,0,0,0,.56.06,2.34,2.34,0,0,0,1.32-.3,1,1,0,0,0,.44-.86,1,1,0,0,0-.15-.53,1.39,1.39,0,0,0-.4-.4,3.85,3.85,0,0,0-.62-.36l-.75-.35c-.29-.15-.56-.31-.81-.47a3.23,3.23,0,0,1-.65-.52,2.16,2.16,0,0,1-.43-.65,2.22,2.22,0,0,1,.11-1.89,2.35,2.35,0,0,1,.71-.73,3.33,3.33,0,0,1,1-.42A4.55,4.55,0,0,1,136,41a4.63,4.63,0,0,1,1.94.3v1.4a3.08,3.08,0,0,0-1.86-.53,3.36,3.36,0,0,0-.63.06,1.82,1.82,0,0,0-.55.2,1,1,0,0,0-.4.35.86.86,0,0,0-.16.51,1.06,1.06,0,0,0,.12.5,1.27,1.27,0,0,0,.35.38,2.84,2.84,0,0,0,.56.33c.21.11.47.23.76.35s.57.32.84.49a4.12,4.12,0,0,1,.69.56,2.17,2.17,0,0,1,.47.69,2,2,0,0,1,.18.86,2,2,0,0,1-1,1.82,3.44,3.44,0,0,1-1,.4,5.55,5.55,0,0,1-1.22.12l-.52,0-.64-.09a4.71,4.71,0,0,1-.62-.16A1.79,1.79,0,0,1,132.82,49.28Zm9.4.28a2.6,2.6,0,0,1-1.06.2c-1.18,0-1.77-.57-1.77-1.7V44.63h-1V43.55h1v-1.4l1.37-.39v1.79h1.46v1.08h-1.46v3a1.19,1.19,0,0,0,.2.77.79.79,0,0,0,.65.23.92.92,0,0,0,.61-.2Zm5.65.06h-1.34v-.95h0a2.18,2.18,0,0,1-3.25.61,1.72,1.72,0,0,1-.5-1.29c0-1.15.66-1.81,2-2l1.81-.26c0-.87-.42-1.3-1.24-1.3a3,3,0,0,0-2,.75V44a4.25,4.25,0,0,1,2.22-.57,2,2,0,0,1,2.3,2.26Zm-1.32-3-1.28.18a2.13,2.13,0,0,0-.89.29.84.84,0,0,0-.3.74.8.8,0,0,0,.27.63,1.11,1.11,0,0,0,.74.25,1.38,1.38,0,0,0,1-.44,1.56,1.56,0,0,0,.41-1.11Zm5.88-1.78a1.15,1.15,0,0,0-.72-.19,1.24,1.24,0,0,0-1,.55,2.49,2.49,0,0,0-.41,1.5v2.91H148.9V43.55h1.38v1.26h0a2.2,2.2,0,0,1,.62-1,1.41,1.41,0,0,1,.94-.36,1.15,1.15,0,0,1,.57.12Zm4.27,4.7a2.26,2.26,0,0,1-1.06.2c-1.17,0-1.76-.56-1.76-1.69V44.63h-1V43.55h1v-1.4l1.38-.39v1.79h1.45v1.08h-1.45v3a1.19,1.19,0,0,0,.19.77.81.81,0,0,0,.66.23.89.89,0,0,0,.6-.2Zm6.29.07h-1.37v-1h0a2,2,0,0,1-1.87,1.12c-1.43,0-2.15-.86-2.15-2.59V43.55H159V47c0,1.09.42,1.64,1.26,1.64a1.29,1.29,0,0,0,1-.45,1.74,1.74,0,0,0,.39-1.18v-3.5H163Zm2.49-.9h0v3.7h-1.38V43.55h1.37v1.07h0a2.27,2.27,0,0,1,2.06-1.21,2.18,2.18,0,0,1,1.81.81,3.44,3.44,0,0,1,.64,2.19,3.76,3.76,0,0,1-.73,2.43,2.41,2.41,0,0,1-2,.91,2,2,0,0,1-1.8-1Zm0-2.4v.76a1.6,1.6,0,0,0,.42,1.12,1.49,1.49,0,0,0,2.11.06,1.54,1.54,0,0,0,.17-.19,2.77,2.77,0,0,0,.44-1.66,2.21,2.21,0,0,0-.41-1.41,1.32,1.32,0,0,0-1.1-.5,1.45,1.45,0,0,0-1.18.52,1.94,1.94,0,0,0-.46,1.31Zm5.22,3.11V48.16a2.74,2.74,0,0,0,1.7.59c.83,0,1.24-.25,1.24-.74a.55.55,0,0,0-.1-.35,1.2,1.2,0,0,0-.29-.26,2.11,2.11,0,0,0-.43-.2l-.54-.2a5.29,5.29,0,0,1-.68-.32,2,2,0,0,1-.49-.37,1.22,1.22,0,0,1-.3-.48,1.66,1.66,0,0,1-.11-.62,1.52,1.52,0,0,1,.21-.78,1.76,1.76,0,0,1,.56-.56,2.52,2.52,0,0,1,.79-.34,3.57,3.57,0,0,1,.92-.12,4.28,4.28,0,0,1,1.51.25v1.21a2.49,2.49,0,0,0-1.47-.44,2.42,2.42,0,0,0-.47,0,1.14,1.14,0,0,0-.36.15.84.84,0,0,0-.23.23.44.44,0,0,0-.08.29.59.59,0,0,0,.08.34.78.78,0,0,0,.24.24,2.93,2.93,0,0,0,.4.19l.52.18c.24.1.47.21.7.33a2,2,0,0,1,.53.38,1.49,1.49,0,0,1,.34.49A1.64,1.64,0,0,1,175,48a1.47,1.47,0,0,1-.21.81,1.82,1.82,0,0,1-.57.57,2.88,2.88,0,0,1-.83.33,4.6,4.6,0,0,1-1,.11,4.23,4.23,0,0,1-1.72-.34Z"/></svg>