<svg fill="#fff"  id="图层_1" data-name="图层 1" xmlns="http://www.w3.org/2000/svg" viewBox="0 0 294 121"><path d="M66.53,63.71h-8v5.53h7.3v4.11h-7.3V82.1H53.51V59.58h13Zm9.2,18.78a8.64,8.64,0,0,1-6.32-2.25,8.18,8.18,0,0,1-2.3-6.12,8.13,8.13,0,0,1,2.39-6.24A9,9,0,0,1,76,65.63a8.53,8.53,0,0,1,6.28,2.25,8,8,0,0,1,2.28,6,8.49,8.49,0,0,1-2.35,6.33A8.73,8.73,0,0,1,75.73,82.49Zm.13-13.06a3.27,3.27,0,0,0-2.73,1.21,5.3,5.3,0,0,0-1,3.42q0,4.64,3.74,4.63c2.38,0,3.56-1.58,3.56-4.76q0-4.5-3.59-4.5ZM101.27,82.1H96.33V79.66h-.08a5.61,5.61,0,0,1-4.91,2.84q-5.59,0-5.6-6.78V66h5v9.27q0,3.4,2.7,3.41a2.69,2.69,0,0,0,2.14-.94,3.78,3.78,0,0,0,.8-2.53V66h5Zm17.14,0h-4.94V73.16q0-3.73-2.67-3.73a2.65,2.65,0,0,0-2.12,1,3.76,3.76,0,0,0-.83,2.51V82.1h-5V66h5v2.55h.06a5.67,5.67,0,0,1,5.16-2.94q5.36,0,5.34,6.63Zm17.93,0h-5V79.89h-.06a5.58,5.58,0,0,1-5,2.6,6.1,6.1,0,0,1-4.85-2.13,8.82,8.82,0,0,1-1.84-5.94,9.58,9.58,0,0,1,2-6.39,6.61,6.61,0,0,1,5.31-2.4,4.5,4.5,0,0,1,4.33,2.23h.06V58.29h5Zm-4.87-7.83V73.06a3.8,3.8,0,0,0-.91-2.6,3.21,3.21,0,0,0-4.55-.18,3.38,3.38,0,0,0-.4.44,6.09,6.09,0,0,0-.92,3.56,5.23,5.23,0,0,0,.89,3.26,3.18,3.18,0,0,0,4.94-.06,5,5,0,0,0,1-3.2ZM153,75.47H142.49q.25,3.5,4.41,3.5a8.61,8.61,0,0,0,4.67-1.26v3.58a12.22,12.22,0,0,1-5.8,1.2,7.48,7.48,0,0,1-8.19-8.18A8.57,8.57,0,0,1,139.9,68a7.75,7.75,0,0,1,5.72-2.34,7,7,0,0,1,5.44,2.09A8,8,0,0,1,153,73.38Zm-4.6-3c0-2.3-.93-3.46-2.8-3.46a2.66,2.66,0,0,0-2.06,1,4.47,4.47,0,0,0-1.06,2.47Zm16.52-1.93a4.31,4.31,0,0,0-2.09-.48,3,3,0,0,0-2.52,1.18,5.16,5.16,0,0,0-.91,3.23V82.1h-5V66h5v3h.06c.78-2.18,2.2-3.26,4.24-3.26a3.17,3.17,0,0,1,1.22.18ZM166,81.68v-4a10.69,10.69,0,0,0,2.44,1.1,8.18,8.18,0,0,0,2.3.36,4.92,4.92,0,0,0,2.08-.36,1.18,1.18,0,0,0,.77-1.1,1,1,0,0,0-.35-.78,3.24,3.24,0,0,0-.89-.55,9.73,9.73,0,0,0-1.18-.42,9.52,9.52,0,0,1-1.24-.43,11.22,11.22,0,0,1-1.69-.77,5,5,0,0,1-1.23-1,3.88,3.88,0,0,1-.75-1.27,5.32,5.32,0,0,1-.26-1.72,4.41,4.41,0,0,1,.59-2.32,4.9,4.9,0,0,1,1.57-1.6,7.49,7.49,0,0,1,2.25-.91,12.18,12.18,0,0,1,2.63-.29,14.19,14.19,0,0,1,2.16.17,15.83,15.83,0,0,1,2.17.48v3.82a7.77,7.77,0,0,0-2-.81,8.86,8.86,0,0,0-2.11-.28,4.6,4.6,0,0,0-.91.09,2.83,2.83,0,0,0-.76.25,1.28,1.28,0,0,0-.52.43.94.94,0,0,0-.19.58,1.13,1.13,0,0,0,.29.76,2.28,2.28,0,0,0,.73.54,5.93,5.93,0,0,0,1,.41l1.11.37a14.72,14.72,0,0,1,1.79.75,5.93,5.93,0,0,1,1.37,1,3.7,3.7,0,0,1,.88,1.29,5.14,5.14,0,0,1-.31,4.2,5,5,0,0,1-1.64,1.65,7.71,7.71,0,0,1-2.37.93,13.69,13.69,0,0,1-2.79.29A14.59,14.59,0,0,1,166,81.68Zm39,.42h-5.09V72.92h-9.32v9.17h-5.07V59.58h5.07v9H200v-9h5.1Zm17.14,0h-4.95V79.66h-.08a5.61,5.61,0,0,1-4.91,2.84q-5.59,0-5.59-6.77V66h4.94v9.27q0,3.4,2.7,3.41a2.69,2.69,0,0,0,2.14-.94,3.73,3.73,0,0,0,.8-2.53V66h4.95Zm6.63-1.87h-.06V82.1h-5V58.29h5V68.44h.06A5.87,5.87,0,0,1,234,65.63a5.75,5.75,0,0,1,4.79,2.13,9.2,9.2,0,0,1,1.68,5.84,10,10,0,0,1-2,6.46,6.41,6.41,0,0,1-5.25,2.43,5.07,5.07,0,0,1-4.49-2.26Zm-.14-6.78V75.1a3.75,3.75,0,0,0,.89,2.58,2.93,2.93,0,0,0,2.29,1,3.07,3.07,0,0,0,2.64-1.31,6.34,6.34,0,0,0,.93-3.71,5,5,0,0,0-.86-3.12,2.93,2.93,0,0,0-2.43-1.13,3.15,3.15,0,0,0-2.47,1.11,4.21,4.21,0,0,0-1,2.91Z"/><path d="M63.56,48.54H62v-6c0-.5,0-1.11.1-1.82h0a7.32,7.32,0,0,1-.26.88l-2.79,7H58l-2.8-6.93a6.21,6.21,0,0,1-.25-.94h0c0,.38,0,1,0,1.84v6H53.5V39.19h2.19l2.46,6.23a9,9,0,0,1,.36,1.07h0c.16-.5.29-.86.39-1.1l2.51-6.2h2.11ZM66,40.46a.92.92,0,0,1-.63-.24.81.81,0,0,1-.27-.62.83.83,0,0,1,.27-.62.87.87,0,0,1,.63-.24.93.93,0,0,1,.66.24.85.85,0,0,1,0,1.18l0,.05a1,1,0,0,1-.66.25Zm.75,8.08H65.22V41.86h1.51Zm6.43-.31a3.73,3.73,0,0,1-1.9.48,3.22,3.22,0,0,1-2.4-.93A3.3,3.3,0,0,1,68,45.37a3.67,3.67,0,0,1,1-2.66,3.55,3.55,0,0,1,2.63-1,3.89,3.89,0,0,1,1.61.32v1.4a2.44,2.44,0,0,0-1.49-.53,2.08,2.08,0,0,0-1.57.65,2.38,2.38,0,0,0-.61,1.7,2.29,2.29,0,0,0,.57,1.64,2,2,0,0,0,1.55.6,2.41,2.41,0,0,0,1.54-.58Zm5-4.93a1.23,1.23,0,0,0-.79-.21,1.36,1.36,0,0,0-1.12.6,2.74,2.74,0,0,0-.45,1.65v3.2H74.33V41.86h1.51v1.38h0a2.32,2.32,0,0,1,.68-1.09,1.53,1.53,0,0,1,1-.39,1.34,1.34,0,0,1,.63.12Zm3.58,5.41a3.34,3.34,0,0,1-2.47-.94,3.41,3.41,0,0,1-.92-2.48,3.3,3.3,0,0,1,3.55-3.58,3.2,3.2,0,0,1,2.44.92,4,4,0,0,1-.06,5.11A3.45,3.45,0,0,1,81.78,48.71Zm.07-5.79a1.72,1.72,0,0,0-1.4.62,2.61,2.61,0,0,0-.52,1.71,2.42,2.42,0,0,0,.53,1.65,1.74,1.74,0,0,0,1.39.61,1.66,1.66,0,0,0,1.38-.6,2.62,2.62,0,0,0,.48-1.69,2.67,2.67,0,0,0-.48-1.7,1.67,1.67,0,0,0-1.38-.61ZM86,48.34v-1.4a3,3,0,0,0,1.87.64c.91,0,1.37-.27,1.37-.81a.59.59,0,0,0-.12-.38,1.07,1.07,0,0,0-.31-.29,2.86,2.86,0,0,0-.47-.22l-.61-.22a7.12,7.12,0,0,1-.74-.35,2.41,2.41,0,0,1-.54-.41,1.39,1.39,0,0,1-.33-.53,1.77,1.77,0,0,1-.11-.68,1.49,1.49,0,0,1,.23-.85,1.9,1.9,0,0,1,.61-.62,3.07,3.07,0,0,1,.87-.38,3.83,3.83,0,0,1,1-.13,4.67,4.67,0,0,1,1.66.28v1.33a2.74,2.74,0,0,0-1.62-.49,2.29,2.29,0,0,0-.52.05,1.34,1.34,0,0,0-.39.16,1,1,0,0,0-.26.25.63.63,0,0,0-.09.33.74.74,0,0,0,.09.36,1,1,0,0,0,.27.27,3.55,3.55,0,0,0,.44.21l.57.2a7,7,0,0,1,.78.37,2.64,2.64,0,0,1,.58.41,1.6,1.6,0,0,1,.38.54,1.8,1.8,0,0,1,.13.72,1.63,1.63,0,0,1-.24.89,2,2,0,0,1-.62.63,3,3,0,0,1-.91.36,5,5,0,0,1-1.08.12,4.37,4.37,0,0,1-1.89-.37Zm8.81.37a3.32,3.32,0,0,1-2.47-.94,3.37,3.37,0,0,1-.92-2.48A3.3,3.3,0,0,1,95,41.71a3.22,3.22,0,0,1,2.44.92,3.55,3.55,0,0,1,.87,2.55,3.48,3.48,0,0,1-.94,2.56A3.43,3.43,0,0,1,94.85,48.71Zm.07-5.79a1.71,1.71,0,0,0-1.4.62A2.55,2.55,0,0,0,93,45.25a2.42,2.42,0,0,0,.52,1.65,1.76,1.76,0,0,0,1.4.61,1.66,1.66,0,0,0,1.37-.6,2.62,2.62,0,0,0,.48-1.69,2.67,2.67,0,0,0-.48-1.7,1.64,1.64,0,0,0-1.37-.61Zm8.17-3a1.46,1.46,0,0,0-.7-.18c-.74,0-1.11.42-1.11,1.25v.91h1.56v1.18h-1.55v5.5H99.78v-5.5H98.64V41.86h1.14V40.78a2.11,2.11,0,0,1,.69-1.67,2.9,2.9,0,0,1,2.62-.49Zm4.45,8.59a2.56,2.56,0,0,1-1.16.22c-1.3,0-1.95-.62-1.95-1.87V43.05h-1.11V41.86h1.11V40.31l1.52-.43v2h1.59v1.19H106v3.34a1.35,1.35,0,0,0,.22.85.9.9,0,0,0,.72.25,1,1,0,0,0,.66-.22Zm8.09-8.59a1.4,1.4,0,0,0-.7-.18c-.73,0-1.1.42-1.1,1.25v.91h1.55v1.18h-1.54v5.5h-1.52v-5.5h-1.14V41.86h1.14V40.78a2.12,2.12,0,0,1,.7-1.67,2.88,2.88,0,0,1,2.61-.49Zm3.46,8.82a3.34,3.34,0,0,1-2.47-.94,3.41,3.41,0,0,1-.92-2.48,3.3,3.3,0,0,1,3.55-3.58,3.2,3.2,0,0,1,2.44.92,4,4,0,0,1-.07,5.11,3.41,3.41,0,0,1-2.53,1Zm.07-5.79a1.71,1.71,0,0,0-1.4.62,2.55,2.55,0,0,0-.52,1.71,2.42,2.42,0,0,0,.52,1.65,1.74,1.74,0,0,0,1.4.61,1.66,1.66,0,0,0,1.37-.6,2.62,2.62,0,0,0,.48-1.69,2.67,2.67,0,0,0-.48-1.7,1.64,1.64,0,0,0-1.37-.61Zm8.42.39a1.23,1.23,0,0,0-.79-.21,1.33,1.33,0,0,0-1.12.6,2.74,2.74,0,0,0-.45,1.65v3.2H123.7V41.87h1.52v1.37h0a2.4,2.4,0,0,1,.68-1.09,1.57,1.57,0,0,1,1-.39,1.36,1.36,0,0,1,.63.12Zm3.82,4.85v-1.6a2.61,2.61,0,0,0,.51.36,4.39,4.39,0,0,0,.63.26,3.84,3.84,0,0,0,.67.16,3.08,3.08,0,0,0,.61.06,2.61,2.61,0,0,0,1.46-.32,1.11,1.11,0,0,0,.48-.95,1,1,0,0,0-.16-.57,1.61,1.61,0,0,0-.45-.45,4.5,4.5,0,0,0-.67-.39l-.84-.39c-.32-.17-.61-.34-.89-.51a4.87,4.87,0,0,1-.71-.58,2.47,2.47,0,0,1-.48-.71,2.29,2.29,0,0,1-.17-.93,2.13,2.13,0,0,1,.3-1.15,2.48,2.48,0,0,1,.78-.8,3.51,3.51,0,0,1,1.11-.47,5.38,5.38,0,0,1,1.27-.15,5.15,5.15,0,0,1,2.14.33v1.53a3.43,3.43,0,0,0-2.05-.57,3.82,3.82,0,0,0-.68.06,2.18,2.18,0,0,0-.62.22,1.33,1.33,0,0,0-.44.38,1.06,1.06,0,0,0-.17.57,1.17,1.17,0,0,0,.13.55,1.38,1.38,0,0,0,.39.41,2.92,2.92,0,0,0,.61.37l.84.39c.32.17.63.35.92.53a4.57,4.57,0,0,1,.76.62,2.73,2.73,0,0,1,.52.75,2.4,2.4,0,0,1-.86,2.95,3.58,3.58,0,0,1-1.12.44,6,6,0,0,1-1.34.14,4.45,4.45,0,0,1-.58,0,5.9,5.9,0,0,1-.7-.1,5.63,5.63,0,0,1-.68-.17A2,2,0,0,1,131.4,48.16Zm10.34.3a2.62,2.62,0,0,1-1.17.22c-1.3,0-1.94-.62-1.94-1.86V43.05h-1.12V41.86h1.12V40.31l1.51-.43v2h1.6v1.19h-1.6v3.34a1.36,1.36,0,0,0,.21.85.92.92,0,0,0,.72.25,1,1,0,0,0,.67-.22Zm6.22.07h-1.47v-1h0a2.22,2.22,0,0,1-2,1.2,2.13,2.13,0,0,1-1.54-.54,1.86,1.86,0,0,1-.56-1.41c0-1.26.73-2,2.19-2.21l2-.28c0-1-.45-1.43-1.36-1.43a3.23,3.23,0,0,0-2.15.83V42.33a4.72,4.72,0,0,1,2.44-.62A2.22,2.22,0,0,1,148,44.2Zm-1.46-3.27-1.41.2a2.17,2.17,0,0,0-1,.31.92.92,0,0,0-.33.81.93.93,0,0,0,.31.7,1.17,1.17,0,0,0,.81.27,1.49,1.49,0,0,0,1.14-.48,1.68,1.68,0,0,0,.45-1.23Zm6.47-2a1.3,1.3,0,0,0-.79-.22,1.37,1.37,0,0,0-1.12.61,2.71,2.71,0,0,0-.45,1.65v3.2h-1.52V41.86h1.52v1.38h0a2.34,2.34,0,0,1,.69-1.09,1.53,1.53,0,0,1,1-.39,1.36,1.36,0,0,1,.63.12Zm4.7,5.17a2.7,2.7,0,0,1-1.16.22c-1.3,0-1.95-.62-1.95-1.87V43.05h-1.11V41.86h1.11V40.31l1.52-.43v2h1.59v1.19h-1.6v3.34a1.29,1.29,0,0,0,.22.85.89.89,0,0,0,.71.25,1,1,0,0,0,.67-.22Zm6.92.07h-1.51V47.48h0A2.19,2.19,0,0,1,161,48.71q-2.37,0-2.37-2.85v-4h1.52V45.7q0,1.8,1.38,1.8a1.42,1.42,0,0,0,1.11-.5,1.86,1.86,0,0,0,.43-1.3V41.86h1.52Zm2.73-1h0v4.07h-1.52V41.86h1.51V43h0a2.48,2.48,0,0,1,2.27-1.33,2.37,2.37,0,0,1,2,.9,3.75,3.75,0,0,1,.71,2.4,4.18,4.18,0,0,1-.8,2.67,2.66,2.66,0,0,1-2.19,1,2.19,2.19,0,0,1-2-1.12Zm0-2.63v.83a1.8,1.8,0,0,0,.47,1.24,1.65,1.65,0,0,0,2.32.06,1.9,1.9,0,0,0,.19-.21,3.06,3.06,0,0,0,.48-1.83,2.37,2.37,0,0,0-.45-1.54,1.46,1.46,0,0,0-1.21-.56,1.61,1.61,0,0,0-1.3.57,2.11,2.11,0,0,0-.5,1.44ZM173,48.33v-1.4a3.05,3.05,0,0,0,1.88.64c.91,0,1.36-.27,1.36-.81a.58.58,0,0,0-.11-.38,1.26,1.26,0,0,0-.32-.29,2.52,2.52,0,0,0-.47-.22l-.6-.22a7.12,7.12,0,0,1-.74-.35,2.46,2.46,0,0,1-.55-.41,1.69,1.69,0,0,1-.33-.53,2,2,0,0,1-.11-.68,1.57,1.57,0,0,1,.23-.85,2,2,0,0,1,.61-.62,2.86,2.86,0,0,1,.88-.38,3.83,3.83,0,0,1,1-.13,4.71,4.71,0,0,1,1.66.28v1.33a2.78,2.78,0,0,0-1.62-.49,2.24,2.24,0,0,0-.52.06,1.52,1.52,0,0,0-.4.16.78.78,0,0,0-.25.26.59.59,0,0,0-.09.32.74.74,0,0,0,.09.36.87.87,0,0,0,.27.27,3.42,3.42,0,0,0,.43.21l.58.2a7.76,7.76,0,0,1,.77.37,3,3,0,0,1,.59.41,1.65,1.65,0,0,1,.36.54,1.82,1.82,0,0,1,.13.73,1.59,1.59,0,0,1-.23.88,2,2,0,0,1-.63.63,3,3,0,0,1-.91.36,3.94,3.94,0,0,1-1.08.12,4.37,4.37,0,0,1-1.89-.37Z"/></svg>