<svg id="图层_1" data-name="图层 1" xmlns="http://www.w3.org/2000/svg" viewBox="0 0 294 121"><path d="M72.71,57.24h-1.8l-.57,2.68h1.72a1.79,1.79,0,0,0,1.1-.34,1.67,1.67,0,0,0,.63-1,2.28,2.28,0,0,0,0-.45.81.81,0,0,0-.25-.66A1.23,1.23,0,0,0,72.71,57.24Z"/><path d="M61.83,57.16a2.16,2.16,0,0,0-1.44.5,2.78,2.78,0,0,0-.84,1.51q-.27,1-.54,2.46a3.36,3.36,0,0,0-.06.63q0,1.38,1.44,1.38a2.09,2.09,0,0,0,1.42-.49,2.68,2.68,0,0,0,.86-1.52c.23-.94.4-1.76.52-2.46a3.47,3.47,0,0,0,.06-.64C63.25,57.62,62.78,57.16,61.83,57.16Z"/><path d="M66,40.5a20,20,0,1,0,20,20A20,20,0,0,0,66,40.5Zm0,18.63c-.15.89-.33,1.75-.54,2.59a4.84,4.84,0,0,1-5.26,4.08A4.78,4.78,0,0,1,57.25,65a2.86,2.86,0,0,1-1.12-2.43,5.54,5.54,0,0,1,.07-.81c.13-.72.32-1.58.56-2.59A4.93,4.93,0,0,1,62,55a5.22,5.22,0,0,1,2.07.39,3.2,3.2,0,0,1,1.45,1.14,3.1,3.1,0,0,1,.52,1.8A5.42,5.42,0,0,1,66,59.13Zm10.58-.51a4,4,0,0,1-1.51,2.55A5.13,5.13,0,0,1,72,62h-2l-.69,3.29a.47.47,0,0,1-.16.27.43.43,0,0,1-.29.1h-2a.29.29,0,0,1-.25-.1.37.37,0,0,1,0-.27l2.07-9.75a.41.41,0,0,1,.17-.27.43.43,0,0,1,.28-.11h4a4.65,4.65,0,0,1,2.67.69,2.26,2.26,0,0,1,1,2A3.46,3.46,0,0,1,76.56,58.62Z"/><path d="M105.56,70.5a9,9,0,0,1-5.47-1.56,5.29,5.29,0,0,1-2.1-4.5,9.26,9.26,0,0,1,.14-1.5c.24-1.33.58-2.93,1-4.8q1.92-7.64,9.85-7.64a9.89,9.89,0,0,1,3.87.72,5.92,5.92,0,0,1,2.69,2.11,5.61,5.61,0,0,1,1,3.34,10.19,10.19,0,0,1-.14,1.47c-.29,1.65-.62,3.25-1,4.8a10.21,10.21,0,0,1-3.4,5.7A10.3,10.3,0,0,1,105.56,70.5Zm.39-4a4,4,0,0,0,2.67-.92,5.08,5.08,0,0,0,1.6-2.8c.43-1.74.75-3.26,1-4.56a6.67,6.67,0,0,0,.11-1.19c0-1.69-.89-2.53-2.66-2.53a4.15,4.15,0,0,0-2.7.92,5.18,5.18,0,0,0-1.57,2.8c-.34,1.24-.67,2.76-1,4.56a6.25,6.25,0,0,0-.11,1.16C103.26,65.65,104.16,66.5,106,66.5Z"/><path d="M119.4,70.22a.58.58,0,0,1-.47-.19.63.63,0,0,1-.09-.5l3.87-18.06A.81.81,0,0,1,123,51a.86.86,0,0,1,.53-.19H131a8.67,8.67,0,0,1,5,1.28,4.17,4.17,0,0,1,1.91,3.69,6.72,6.72,0,0,1-.17,1.44,7.54,7.54,0,0,1-2.83,4.73,9.67,9.67,0,0,1-5.78,1.52h-3.79l-1.29,6.09a.81.81,0,0,1-.31.5.86.86,0,0,1-.53.19Zm9.93-10.61a3.34,3.34,0,0,0,2-.64,3,3,0,0,0,1.18-1.83,5.48,5.48,0,0,0,.08-.83,1.58,1.58,0,0,0-.47-1.23,2.41,2.41,0,0,0-1.63-.44h-3.37l-1.06,5Z"/><path d="M144.24,70.22a.59.59,0,0,1-.48-.19.6.6,0,0,1-.11-.5l3.11-14.39h-5a.6.6,0,0,1-.48-.2.65.65,0,0,1-.08-.5l.64-3a.81.81,0,0,1,.31-.5.86.86,0,0,1,.53-.19h15.1a.58.58,0,0,1,.47.19.56.56,0,0,1,.12.34.45.45,0,0,1,0,.16l-.65,3a.78.78,0,0,1-.31.5.78.78,0,0,1-.53.2h-5l-3.12,14.39a.81.81,0,0,1-.31.5.84.84,0,0,1-.53.19Z"/><path d="M159.09,70.22a.62.62,0,0,1-.48-.19.6.6,0,0,1-.11-.5l3.9-18.06a.81.81,0,0,1,.31-.5.86.86,0,0,1,.53-.19H167a.6.6,0,0,1,.48.19.62.62,0,0,1,.11.34.45.45,0,0,1,0,.16l-3.87,18.06a.81.81,0,0,1-.31.5.84.84,0,0,1-.53.19Z"/><path d="M169.77,70.22a.58.58,0,0,1-.47-.19.57.57,0,0,1-.12-.5l3.87-18.06a.81.81,0,0,1,.31-.5.9.9,0,0,1,.56-.19h3a.82.82,0,0,1,.87.61l3.06,8.75,6.82-8.75a1.53,1.53,0,0,1,.39-.42,1.15,1.15,0,0,1,.67-.19h3.06a.59.59,0,0,1,.48.19.62.62,0,0,1,.11.34.45.45,0,0,1,0,.16l-3.87,18.06a.81.81,0,0,1-.31.5.84.84,0,0,1-.53.19h-3.39a.59.59,0,0,1-.48-.19.72.72,0,0,1-.09-.5l2.19-10.25-4.29,5.64a3.08,3.08,0,0,1-.53.47,1.07,1.07,0,0,1-.59.17H179a.83.83,0,0,1-.81-.64l-2-5.89L174,69.53a.81.81,0,0,1-.31.5.84.84,0,0,1-.53.19Z"/><path d="M194.53,70.22a.58.58,0,0,1-.47-.19.61.61,0,0,1-.12-.5l3.9-18.06a.81.81,0,0,1,.31-.5.87.87,0,0,1,.54-.19h3.78A.59.59,0,0,1,203,51a.62.62,0,0,1,.11.34.45.45,0,0,1,0,.16l-3.87,18.06a.77.77,0,0,1-.31.5.82.82,0,0,1-.53.19Z"/><path d="M212.14,70.5a11.88,11.88,0,0,1-4.23-.67,6.08,6.08,0,0,1-2.64-1.77,4,4,0,0,1-.87-2.48,5.41,5.41,0,0,1,.06-.66.85.85,0,0,1,.22-.42.68.68,0,0,1,.45-.17h3.59a1,1,0,0,1,.51.11,1.43,1.43,0,0,1,.39.39,2.1,2.1,0,0,0,.9,1.2,3.66,3.66,0,0,0,2,.47,5.75,5.75,0,0,0,2.58-.5,2.06,2.06,0,0,0,1.18-1.36,1.42,1.42,0,0,0,0-.33c0-.47-.29-.83-.87-1.09a18.25,18.25,0,0,0-3.2-1,9.57,9.57,0,0,1-4.13-1.75,3.91,3.91,0,0,1-1.4-3.11,5.82,5.82,0,0,1,.17-1.36A6.3,6.3,0,0,1,209.65,52a10.35,10.35,0,0,1,5.78-1.47,9,9,0,0,1,3.78.75,6.52,6.52,0,0,1,2.56,1.92,3.65,3.65,0,0,1,.92,2.27,2.64,2.64,0,0,1,0,.48.71.71,0,0,1-.25.41.57.57,0,0,1-.42.17h-3.76a.85.85,0,0,1-.84-.47,1.38,1.38,0,0,0-.67-1.09A3,3,0,0,0,215,54.5a4.28,4.28,0,0,0-2,.44,2,2,0,0,0-1,1.31,3.21,3.21,0,0,0,0,.36,1.27,1.27,0,0,0,.78,1.11,12.62,12.62,0,0,0,2.83.86,10.84,10.84,0,0,1,4.58,1.75,3.66,3.66,0,0,1,1.46,3,7,7,0,0,1-3.17,5.7A12,12,0,0,1,212.14,70.5Z"/><path d="M225.35,70.22a.59.59,0,0,1-.48-.19.57.57,0,0,1-.11-.5l3.87-18.06a.81.81,0,0,1,.31-.5.88.88,0,0,1,.56-.19h3a.82.82,0,0,1,.87.61l3.06,8.75,6.81-8.75a1.75,1.75,0,0,1,.4-.42,1.13,1.13,0,0,1,.67-.19h3.06a.58.58,0,0,1,.47.19.56.56,0,0,1,.12.34.45.45,0,0,1,0,.16l-3.87,18.06a.81.81,0,0,1-.31.5.87.87,0,0,1-.54.19h-3.39a.6.6,0,0,1-.48-.19.67.67,0,0,1-.08-.5l2.19-10.25-4.29,5.64a3.11,3.11,0,0,1-.54.47,1,1,0,0,1-.59.17H234.6a.83.83,0,0,1-.81-.64l-2-5.89-2.24,10.5a.86.86,0,0,1-.31.5.87.87,0,0,1-.54.19Z"/></svg>