<svg id="图层_1" data-name="图层 1" xmlns="http://www.w3.org/2000/svg" xmlns:xlink="http://www.w3.org/1999/xlink" viewBox="0 0 294 121"><defs><style>.cls-1{fill:none;}.cls-2,.cls-3{fill:#fff;}.cls-3{fill-rule:evenodd;}.cls-4{clip-path:url(#clip-path);}.cls-5{fill:#fff;}</style><clipPath id="clip-path"><rect class="cls-1" x="51.93" y="36.5" width="48" height="48"/></clipPath></defs><path class="cls-2" d="M116,64.67h4.18c0,1.42.71,2.34,3.38,2.34,2.43,0,3.29-.71,3.29-1.82,0-.55-.28-1-1.08-1.16a26.58,26.58,0,0,0-3.53-.43c-2.18-.19-3.87-.52-4.79-1.17a3.65,3.65,0,0,1-1.45-3c0-3.28,3.38-5.1,7.59-5.1,5,0,7.25,1.91,7.25,5.44h-4.12c0-1.6-.76-2.43-3.07-2.43-2.09,0-3,.71-3,1.75a1.26,1.26,0,0,0,1.11,1.36,37.13,37.13,0,0,0,3.75.46,10.58,10.58,0,0,1,4.33,1,3.45,3.45,0,0,1,1.69,3c0,3.19-2.74,5.07-7.93,5.07S116,67.75,116,64.67Z"/><path class="cls-2" d="M134.82,64.55V58.22h-2.24V54.6h1.81c.71,0,1-.4,1.05-1.32l.21-2.12h3.84V54.6h4.85v3.62h-4.85v6.09c0,1.56.74,2,2.58,2a11.45,11.45,0,0,0,2.12-.21v3.53a15,15,0,0,1-2.95.34c-4.73,0-6.42-2.09-6.42-5.47Z"/><path class="cls-3" d="M145.69,65.41c0-2.49,1.79-4.3,5.81-4.3h4.94v-1c0-1.85-1-2.58-3.19-2.58-1.75,0-2.77.73-2.77,2a5,5,0,0,0,0,.65h-4.3a6.06,6.06,0,0,1-.07-.89c0-3.07,2.71-4.89,7.31-4.89,4.83,0,7.65,2.15,7.65,6.21v9.21h-4.67a28.57,28.57,0,0,0,.22-3.07h0c-.46,2.15-2.18,3.32-4.95,3.32-3.53,0-6-1.54-6-4.61Zm10.75-1.47v-.31h-4.51c-1.26,0-2,.58-2,1.44,0,1.17,1,1.78,2.7,1.78,2.43,0,3.84-1.07,3.84-2.91Z"/><path class="cls-2" d="M163.29,54.6H168l-.19,4.33h.07c.64-2.89,2.27-4.58,5.25-4.58s4.91,2,4.91,5.93c0,.86-.09,2.21-.15,3h-4.24c.06-.74.09-1.5.09-2,0-2.22-.89-3.11-2.36-3.11-2,0-3.38,1.63-3.38,5v6.54h-4.67Z"/><path class="cls-3" d="M196.09,71c0,3.47-3.1,5.32-8.35,5.32s-8.51-1.48-8.51-4A2.71,2.71,0,0,1,182,69.59v0a2.82,2.82,0,0,1-1.42-2.49,3,3,0,0,1,1.88-2.86v0a4.8,4.8,0,0,1-2.49-4.39c0-3.41,2.64-5.44,7.09-5.44a9.2,9.2,0,0,1,4.4.93l0-.07a2.33,2.33,0,0,1-.89-1.72c0-1.25,1.25-2,3.19-2a7.47,7.47,0,0,1,1.69.15v3a4.42,4.42,0,0,0-.92-.09c-1,0-1.45.43-1.45,1.13a4.26,4.26,0,0,0,.34,1.39,5,5,0,0,1,.74,2.76c0,3.41-2.64,5.4-7.13,5.4a13.07,13.07,0,0,1-2.52-.24,1.88,1.88,0,0,0-.27,1c0,.68.55,1.08,1.47,1.08h4.92c3.44,0,5.46,1.5,5.46,4Zm-4.66.65c0-.83-.62-1.29-2-1.29h-3.59c-1.26,0-2,.52-2,1.38,0,1.14,1.41,1.75,3.81,1.75S191.43,72.87,191.43,71.68Zm-7.1-11.89c0,1.54,1,2.46,2.7,2.46s2.74-.92,2.74-2.46-1-2.49-2.74-2.49A2.38,2.38,0,0,0,184.33,59.79Z"/><path class="cls-3" d="M197.14,65.41c0-2.49,1.78-4.3,5.8-4.3h4.95v-1c0-1.85-1-2.58-3.2-2.58-1.75,0-2.76.73-2.76,2,0,.09,0,.34,0,.65h-4.3a8,8,0,0,1-.06-.89c0-3.07,2.7-4.89,7.31-4.89,4.82,0,7.65,2.15,7.65,6.21v9.21h-4.67c.09-.77.21-2.15.21-3.07h0c-.46,2.15-2.18,3.32-4.94,3.32-3.53,0-6-1.54-6-4.61Zm10.75-1.47v-.31h-4.52c-1.26,0-2,.58-2,1.44,0,1.17,1,1.78,2.7,1.78,2.42,0,3.84-1.07,3.84-2.91Z"/><path class="cls-2" d="M216,64.55V58.22h-2.25V54.6h1.82c.7,0,1-.4,1-1.32l.21-2.12h3.84V54.6h4.86v3.62h-4.86v6.09c0,1.56.74,2,2.58,2a11.45,11.45,0,0,0,2.12-.21v3.53a15,15,0,0,1-2.95.34c-4.73,0-6.41-2.09-6.41-5.47Z"/><path class="cls-3" d="M242.07,63.08H231.29c.21,2.48,1.47,3.56,3.56,3.56,1.81,0,3-.65,3.1-2.12h4.12c-.09,3.47-3,5.5-7.31,5.5-5,0-8.17-2.86-8.17-7.68,0-5,3.13-8,8.26-8,4.24,0,7.22,2.43,7.22,7.41ZM238,60.34c0-1.72-1.16-2.61-3.1-2.61a3.09,3.09,0,0,0-3.44,2.86H238Z"/><g class="cls-4"><g class="cls-4"><path class="cls-5" d="M80.69,38.41l1.28,3A24.75,24.75,0,0,0,95,54.46l3,1.28a5.14,5.14,0,0,1,1.91,1.38A24.25,24.25,0,0,0,79.31,36.5a5.14,5.14,0,0,1,1.38,1.91Z"/><path class="cls-5" d="M53.84,55.74l3-1.28A24.74,24.74,0,0,0,69.9,41.4l1.27-3a5.38,5.38,0,0,1,1.38-1.91A24.25,24.25,0,0,0,51.93,57.12,5.14,5.14,0,0,1,53.84,55.74Z"/><path class="cls-5" d="M98,65.26l-3,1.28A24.75,24.75,0,0,0,82,79.6l-1.28,3a5.14,5.14,0,0,1-1.38,1.91A24.25,24.25,0,0,0,99.93,63.88,5.14,5.14,0,0,1,98,65.26Z"/><path class="cls-5" d="M71.17,82.59l-1.27-3A24.74,24.74,0,0,0,56.83,66.54l-3-1.28a5.14,5.14,0,0,1-1.91-1.38A24.25,24.25,0,0,0,72.55,84.5,5.38,5.38,0,0,1,71.17,82.59Z"/></g><path class="cls-2" d="M65.05,58.15l1.47-.63A12.23,12.23,0,0,0,73,51.09l.63-1.48a2.55,2.55,0,0,1,4.69,0l.62,1.48a12.23,12.23,0,0,0,6.44,6.43l1.48.63a2.55,2.55,0,0,1,0,4.69l-1.48.63a12.25,12.25,0,0,0-6.44,6.44l-.62,1.47a2.55,2.55,0,0,1-4.69,0L73,69.91a12.25,12.25,0,0,0-6.44-6.44l-1.47-.63A2.55,2.55,0,0,1,65.05,58.15Z"/></g></svg>