<svg id="图层_1" fill="#fff" data-name="图层 1" xmlns="http://www.w3.org/2000/svg" viewBox="0 0 294 121"><defs><style>.cls-1{fill-rule:evenodd;}</style></defs><path d="M118.55,64.33h3.83c0,1.29.65,2.14,3.1,2.14,2.22,0,3-.65,3-1.67,0-.5-.25-.9-1-1.07a27.09,27.09,0,0,0-3.23-.39,9.9,9.9,0,0,1-4.4-1.07,3.37,3.37,0,0,1-1.32-2.73c0-3,3.1-4.67,7-4.67,4.57,0,6.65,1.74,6.65,5h-3.77c0-1.47-.71-2.23-2.82-2.23-1.91,0-2.76.65-2.76,1.61a1.16,1.16,0,0,0,1,1.24,30.76,30.76,0,0,0,3.43.42,9.83,9.83,0,0,1,4,.93,3.17,3.17,0,0,1,1.55,2.76c0,2.93-2.51,4.64-7.27,4.64s-7-2.08-7-4.89Z"/><path d="M135.84,64.21v-5.8h-2.06V55.09h1.66c.65,0,.88-.36,1-1.21l.2-1.94h3.52v3.15h4.45v3.32h-4.45V64c0,1.43.67,1.88,2.36,1.88a10.46,10.46,0,0,0,1.94-.19v3.23a12.84,12.84,0,0,1-2.7.32c-4.33,0-5.88-1.92-5.88-5Z"/><path class="cls-1" d="M145.8,65c0-2.28,1.64-3.94,5.32-3.94h4.54v-.93c0-1.69-1-2.37-2.93-2.37-1.61,0-2.54.68-2.54,1.81a5.49,5.49,0,0,0,0,.59h-3.94a6.71,6.71,0,0,1-.06-.82c0-2.81,2.48-4.47,6.71-4.47,4.42,0,7,2,7,5.68V69h-4.28c.08-.7.19-2,.19-2.82h0c-.43,2-2,3-4.54,3-3.24,0-5.49-1.4-5.49-4.22Zm9.86-1.35v-.28h-4.14c-1.16,0-1.86.53-1.86,1.32,0,1.07.93,1.64,2.48,1.64,2.22,0,3.52-1,3.52-2.68Z"/><path d="M161.93,55.09h4.28l-.17,4h.06c.59-2.65,2.08-4.19,4.82-4.19s4.5,1.83,4.5,5.43c0,.79-.08,2-.14,2.76h-3.89c.06-.68.09-1.38.09-1.8,0-2-.82-2.85-2.17-2.85-1.83,0-3.1,1.49-3.1,4.59v6h-4.28Z"/><path class="cls-1" d="M192,70.15c0,3.19-2.84,4.88-7.66,4.88s-7.79-1.36-7.79-3.67a2.47,2.47,0,0,1,2.5-2.53v0a2.57,2.57,0,0,1-1.29-2.28,2.7,2.7,0,0,1,1.71-2.62v0a4.44,4.44,0,0,1-2.28-4c0-3.13,2.43-5,6.51-5a8.47,8.47,0,0,1,4,.84l0-.06a2.16,2.16,0,0,1-.81-1.57c0-1.16,1.15-1.83,2.92-1.83a6.39,6.39,0,0,1,1.55.14v2.7a3.63,3.63,0,0,0-.84-.08c-.9,0-1.33.39-1.33,1a3.92,3.92,0,0,0,.31,1.27,4.57,4.57,0,0,1,.68,2.53c0,3.12-2.42,4.95-6.53,4.95a11.69,11.69,0,0,1-2.31-.22,1.76,1.76,0,0,0-.25.9c0,.62.5,1,1.35,1H187c3.16,0,5,1.37,5,3.68Zm-4.28.6c0-.76-.56-1.19-1.8-1.19h-3.29c-1.16,0-1.83.48-1.83,1.27,0,1,1.29,1.6,3.49,1.6S187.72,71.84,187.72,70.75Zm-6.5-10.9a2.5,2.5,0,1,0,2.48-2.28A2.18,2.18,0,0,0,181.22,59.85Z"/><path class="cls-1" d="M193,65c0-2.28,1.63-3.94,5.32-3.94h4.53v-.93c0-1.69-.95-2.37-2.92-2.37-1.61,0-2.54.68-2.54,1.81a5.49,5.49,0,0,0,0,.59h-3.94a6.71,6.71,0,0,1-.06-.82c0-2.81,2.48-4.47,6.7-4.47,4.42,0,7,2,7,5.68V69h-4.28a26.52,26.52,0,0,0,.2-2.82h0c-.42,2-2,3-4.53,3-3.24,0-5.49-1.4-5.49-4.22Zm9.85-1.35v-.28h-4.13c-1.16,0-1.86.53-1.86,1.32,0,1.07.93,1.64,2.47,1.64,2.23,0,3.52-1,3.52-2.68Z"/><path d="M210.27,64.21v-5.8h-2.05V55.09h1.66c.65,0,.87-.36,1-1.21l.19-1.94h3.52v3.15H219v3.32h-4.45V64c0,1.43.68,1.88,2.37,1.88a10.54,10.54,0,0,0,1.94-.19v3.23a13,13,0,0,1-2.7.32c-4.34,0-5.89-1.92-5.89-5Z"/><path class="cls-1" d="M234.15,62.86h-9.88c.19,2.28,1.35,3.27,3.26,3.27,1.66,0,2.73-.59,2.84-1.95h3.78c-.09,3.19-2.73,5-6.7,5-4.62,0-7.49-2.62-7.49-7,0-4.59,2.87-7.32,7.57-7.32,3.89,0,6.62,2.22,6.62,6.78Zm-3.77-2.5c0-1.58-1.08-2.4-2.85-2.4a2.83,2.83,0,0,0-3.15,2.62h6Z"/><path d="M86.22,40.25,87.39,43a22.73,22.73,0,0,0,12,12l2.74,1.17a4.67,4.67,0,0,1,1.75,1.26A22.21,22.21,0,0,0,85,38.5a4.8,4.8,0,0,1,1.27,1.75Z"/><path d="M61.6,56.14,64.35,55a22.73,22.73,0,0,0,12-12l1.17-2.74a4.8,4.8,0,0,1,1.27-1.75A22.23,22.23,0,0,0,59.85,57.4,4.75,4.75,0,0,1,61.6,56.14Z"/><path d="M102.1,64.86,99.36,66a22.73,22.73,0,0,0-12,12l-1.17,2.74A4.8,4.8,0,0,1,85,82.5a22.22,22.22,0,0,0,18.9-18.91,4.58,4.58,0,0,1-1.75,1.27Z"/><path d="M77.49,80.75,76.32,78a22.73,22.73,0,0,0-12-12L61.6,64.86a4.66,4.66,0,0,1-1.75-1.27A22.24,22.24,0,0,0,78.76,82.5,4.8,4.8,0,0,1,77.49,80.75Z"/><path d="M71.87,58.35l1.36-.58a11.2,11.2,0,0,0,5.9-5.9l.57-1.35a2.34,2.34,0,0,1,4.3,0l.58,1.35a11.16,11.16,0,0,0,5.9,5.9l1.35.58a2.34,2.34,0,0,1,0,4.3l-1.35.58a11.16,11.16,0,0,0-5.9,5.9L84,70.48a2.34,2.34,0,0,1-4.3,0l-.57-1.35a11.2,11.2,0,0,0-5.9-5.9l-1.36-.58A2.34,2.34,0,0,1,71.87,58.35Z"/></svg>