<svg id="图层_1" data-name="图层 1" xmlns="http://www.w3.org/2000/svg" viewBox="0 0 294 121"><defs><style>.cls-1{fill-rule:evenodd;} path{fill:#fff}</style></defs><path d="M94.31,75.47H100V49.58h10.88V44.65H83.61v4.93h10.7Z"/><path d="M107.55,69.84c0,3.87,2.82,6.29,7,6.29a6.7,6.7,0,0,0,6.74-5.24h1.9c.08,3.44.92,4.58,4.53,4.58h2.29V71.24H128c-1.14,0-1.32-.22-1.32-1.32V61.07c0-5.33-3.3-8.19-9.34-8.19s-9.64,3.17-10.08,6.48l4.89,1.27c.57-2.24,2.2-3.65,5.19-3.65,2.78,0,4,1.19,4,3.43v.75a27.43,27.43,0,0,0-10,2.55A6.43,6.43,0,0,0,107.55,69.84Zm13.78-3.4c0,3.75-2.29,5.64-5,5.64-2.11,0-3.3-1-3.3-2.77,0-2.82,3.08-4,8.32-4.63Z"/><path d="M133.55,75.47h5.38V44.65h-5.38Z"/><path d="M145.29,50.06H151V44.6h-5.72Zm.22,25.41h5.33V53.54h-5.33Z"/><path d="M155.4,69.84c1,3.87,5.11,6.25,10,6.25,6,0,9.69-2.78,9.69-7a5.39,5.39,0,0,0-2.2-4.62,13,13,0,0,0-5.29-2.2l-2.86-.53c-2.64-.53-3.35-1.19-3.35-2.47,0-1.45,1.28-2.46,3.61-2.46a4.88,4.88,0,0,1,4.8,3.34l4.54-1.93c-1-2.69-3.92-5.29-9.16-5.29s-8.9,2.78-8.9,6.83,2.65,5.68,7.09,6.6l2.91.53c2.47.49,3.26,1.37,3.26,2.73,0,1.54-1.41,2.51-3.92,2.51-3.48,0-4.89-1.94-5.29-3.87Z"/><path d="M179.91,75.47h5.38V64.64c0-2.47.17-4.49,1.54-6.08a3.74,3.74,0,0,1,3-1.19c2.64,0,4,1.59,4,4.72V75.47h5.28V64.64c0-2.51.14-4.49,1.5-6.08a3.84,3.84,0,0,1,3.08-1.19c2.51,0,4,1.5,4,4.72V75.47H213V61.16c0-5.33-3.09-8.28-7.32-8.28-3,0-5.41,2.12-6.34,5.15h-1.89c-.75-3.3-3.08-5.15-6-5.15-3.22,0-5.11,2.16-5.95,5.15H183a9,9,0,0,0,1.72-4.49h-4.76Z"/><path d="M217.94,69.84c0,3.87,2.82,6.29,7.05,6.29,3.56,0,5.81-2.11,6.74-5.24h1.89c.09,3.44.92,4.58,4.53,4.58h2.29V71.24h-2.07c-1.14,0-1.32-.22-1.32-1.32V61.07c0-5.33-3.3-8.19-9.33-8.19s-9.65,3.17-10.09,6.48l4.89,1.27c.57-2.24,2.2-3.65,5.2-3.65,2.77,0,4,1.19,4,3.43v.75a27.32,27.32,0,0,0-10,2.55A6.42,6.42,0,0,0,217.94,69.84Zm13.79-3.4c0,3.75-2.29,5.64-5,5.64-2.11,0-3.3-1-3.3-2.77,0-2.82,3.09-4,8.33-4.63Z"/><path d="M244,75.47h5.37v-10c0-2.64.18-4.93,1.63-6.69a4.09,4.09,0,0,1,3.39-1.37c2.51,0,4,1.54,4,4.72V75.47h5.38V61c0-5.07-2.6-8.15-7.53-8.15-3.62,0-5.9,2.78-6.87,5.73h-2.51a11.36,11.36,0,0,0,2.15-5.07h-5Z"/><path class="cls-1" d="M70.48,63.82a1.63,1.63,0,0,1-2.57-.57,1.51,1.51,0,0,1-.14-.62V45.5a3.75,3.75,0,1,0-7.5,0v8.67a1.11,1.11,0,0,1-1.47,1,1.09,1.09,0,0,1-.78-1V40.25a3.75,3.75,0,0,0-7.5,0V54.17a1.08,1.08,0,0,1-.77,1,1.12,1.12,0,0,1-1.48-1V45.5a3.75,3.75,0,0,0-7.5,0V62.63a1.59,1.59,0,0,1-2.65,1.17l-1.39-1.4a3.75,3.75,0,0,0-5.31,5.3l11,11a15,15,0,0,0,23.3.43L77.2,67.7a3.75,3.75,0,1,0-5.3-5.3ZM54.27,78.5c6.63,0,12-7.5,12-7.5s-5.37-7.5-12-7.5-12,7.5-12,7.5S47.64,78.5,54.27,78.5Z"/><path d="M58.77,71a4.5,4.5,0,1,1-4.5-4.5A4.49,4.49,0,0,1,58.77,71Z"/></svg>