<svg width="312" height="64" viewBox="0 0 312 64" fill="none" xmlns="http://www.w3.org/2000/svg">
<path fill-rule="evenodd" clip-rule="evenodd" d="M50.1162 35.663C50.7244 36.9873 52.515 37.455 53.5454 36.4246L55.435 34.535C57.3877 32.5824 60.5535 32.5824 62.5061 34.535C64.4587 36.4876 64.4587 39.6534 62.5061 41.6061L47.2342 56.8779C43.5655 61.233 38.0716 64 31.9314 64C25.5284 64 19.8282 60.991 16.1676 56.31L1.46457 41.607C-0.488051 39.6544 -0.488052 36.4886 1.46457 34.5359C3.41719 32.5833 6.58301 32.5833 8.53564 34.5359L10.3966 36.3969C11.4045 37.4048 13.1543 36.9514 13.7497 35.6563C13.8673 35.4004 13.9312 35.1258 13.9312 34.8442L13.9312 11.9999C13.9312 9.23846 16.1698 6.99989 18.9312 6.99989C21.6926 6.99989 23.9312 9.23846 23.9312 11.9999L23.9312 23.5564C23.9312 24.5508 24.9499 25.2258 25.898 24.9261C26.4981 24.7365 26.9316 24.1901 26.9316 23.5608L26.9316 5C26.9316 2.23858 29.1702 1.29417e-05 31.9316 1.22175e-05C34.693 1.14933e-05 36.9316 2.23858 36.9316 5L36.9316 23.5612C36.9316 24.1904 37.365 24.7366 37.9649 24.9262C38.9128 25.2257 39.9312 24.551 39.9312 23.5569L39.9312 11.9999C39.9312 9.23846 42.1698 6.9999 44.9312 6.99989C47.6926 6.99989 49.9312 9.23846 49.9312 11.9999L49.9312 34.8348C49.9312 35.1221 49.9964 35.402 50.1162 35.663Z" fill="#FD4848"/>
<path d="M47.9318 45.9999C47.9318 45.9999 40.7684 55.9999 31.9318 55.9999C23.0953 55.9999 15.9318 45.9999 15.9318 45.9999C15.9318 45.9999 23.0953 35.9999 31.9318 35.9999C40.7684 35.9999 47.9318 45.9999 47.9318 45.9999Z" fill="#D5FF5C"/>
<path d="M39.4307 46.0001C39.4307 50.1415 36.0734 53.4988 31.932 53.4988C27.7906 53.4988 24.4333 50.1415 24.4333 46.0001C24.4333 41.8587 27.7906 38.5014 31.932 38.5014C36.0734 38.5014 39.4307 41.8587 39.4307 46.0001Z" stroke="#FD4848" stroke-width="1.00258"/>
<path d="M36.4305 46.0004C36.4305 48.485 34.4163 50.4991 31.9318 50.4991C29.4472 50.4991 27.4331 48.485 27.4331 46.0004C27.4331 43.5158 29.4472 41.5017 31.9318 41.5017C34.4163 41.5017 36.4305 43.5158 36.4305 46.0004Z" stroke="#FD4848" stroke-width="1.00258"/>
<path d="M42.4305 46.0001C42.4305 51.7984 37.7301 56.4988 31.9318 56.4988C26.1335 56.4988 21.4331 51.7984 21.4331 46.0001C21.4331 40.2018 26.1335 35.5014 31.9318 35.5014C37.7301 35.5014 42.4305 40.2018 42.4305 46.0001Z" stroke="#FD4848" stroke-width="1.00258"/>
<path d="M45.4305 46.0001C45.4305 53.4552 39.3869 59.4988 31.9318 59.4988C24.4766 59.4988 18.4331 53.4552 18.4331 46.0001C18.4331 38.5449 24.4766 32.5014 31.9318 32.5013C39.3869 32.5013 45.4305 38.5449 45.4305 46.0001Z" stroke="#FD4848" stroke-width="1.00258"/>
<path d="M33.4307 45.9999C33.4307 46.8276 32.7597 47.4986 31.932 47.4986C31.1043 47.4986 30.4333 46.8276 30.4333 45.9999C30.4333 45.1722 31.1043 44.5012 31.932 44.5012C32.7597 44.5012 33.4307 45.1722 33.4307 45.9999Z" fill="#162BEB" stroke="#FD4848" stroke-width="1.00258"/>
<ellipse cx="31.932" cy="45.9999" rx="2" ry="2" fill="#FD4848"/>
<path d="M16.6523 46.1214C16.6182 46.0778 16.5869 46.0372 16.5582 45.9999C16.5869 45.9627 16.6182 45.9221 16.6523 45.8784C16.8608 45.6108 17.1698 45.2268 17.5686 44.7651C18.3666 43.841 19.521 42.6095 20.9457 41.3794C23.8108 38.9056 27.6951 36.5012 31.9318 36.5012C36.1686 36.5012 40.0529 38.9056 42.9179 41.3794C44.3427 42.6095 45.497 43.841 46.2951 44.7651C46.6938 45.2268 47.0028 45.6108 47.2114 45.8784C47.2454 45.9221 47.2768 45.9626 47.3054 45.9999C47.2768 46.0372 47.2454 46.0778 47.2114 46.1214C47.0028 46.389 46.6938 46.7731 46.2951 47.2348C45.497 48.1589 44.3427 49.3903 42.9179 50.6205C40.0529 53.0943 36.1686 55.4986 31.9318 55.4986C27.6951 55.4986 23.8108 53.0943 20.9457 50.6205C19.521 49.3903 18.3666 48.1589 17.5686 47.2348C17.1698 46.7731 16.8608 46.389 16.6523 46.1214Z" stroke="#D5FF5C" stroke-width="1.00258"/>
<path d="M85.3966 54.0708H93.0371V19.5125H107.554V12.93H71.1149V19.5125H85.3966V54.0708Z" fill="white"/>
<path d="M103.067 46.5479C103.067 51.7199 106.828 54.9524 112.47 54.9524C117.231 54.9524 120.228 52.1313 121.462 47.9585H123.99C124.107 52.5427 125.224 54.0708 130.043 54.0708H133.099V48.4286H130.337C128.809 48.4286 128.574 48.1348 128.574 46.6655V34.8522C128.574 27.7407 124.166 23.9205 116.114 23.9205C108.18 23.9205 103.243 28.1521 102.655 32.56L109.179 34.2644C109.943 31.267 112.117 29.3863 116.114 29.3863C119.817 29.3863 121.462 30.9732 121.462 33.9706V34.9697C115.879 35.4987 111.412 36.6154 108.062 38.3785C104.712 40.0829 103.067 42.8452 103.067 46.5479ZM121.462 42.0224C121.462 47.0181 118.406 49.5453 114.762 49.5453C111.941 49.5453 110.354 48.1936 110.354 45.8427C110.354 42.0812 114.468 40.4356 121.462 39.6715V42.0224Z" fill="white"/>
<path d="M137.775 54.0708H144.945V12.93H137.775V54.0708Z" fill="white"/>
<path d="M153.436 20.159H161.077V12.8712H153.436V20.159ZM153.73 54.0708H160.842V24.8021H153.73V54.0708Z" fill="white"/>
<path d="M166.928 46.5479C168.221 51.7199 173.746 54.8936 180.328 54.8936C188.38 54.8936 193.258 51.191 193.258 45.49C193.258 42.7865 192.259 40.7294 190.32 39.3189C188.38 37.9083 186.029 36.9092 183.267 36.3803L179.447 35.675C175.92 34.9697 174.98 34.0881 174.98 32.3837C174.98 30.4442 176.684 29.0925 179.799 29.0925C183.149 29.0925 185.265 31.032 186.205 33.5592L192.259 30.9732C190.907 27.3881 187.028 23.9205 180.034 23.9205C173.04 23.9205 168.162 27.6231 168.162 33.0302C168.162 38.5548 171.689 40.6119 177.625 41.8461L181.504 42.5514C184.795 43.1979 185.853 44.3733 185.853 46.1953C185.853 48.2523 183.972 49.5453 180.622 49.5453C175.979 49.5453 174.098 46.9593 173.569 44.3733L166.928 46.5479Z" fill="white"/>
<path d="M199.646 54.0708H206.817V39.6128C206.817 36.3215 207.052 33.6179 208.874 31.5021C209.755 30.4442 211.107 29.9153 212.929 29.9153C216.455 29.9153 218.219 32.0311 218.219 36.2039V54.0708H225.271V39.6128C225.271 36.2627 225.448 33.6179 227.27 31.5021C228.151 30.4442 229.562 29.9153 231.384 29.9153C234.734 29.9153 236.673 31.9135 236.673 36.2039V54.0708H243.785V34.9697C243.785 27.8582 239.671 23.9205 234.028 23.9205C230.032 23.9205 226.799 26.7416 225.565 30.7969H223.038C222.039 26.3889 218.924 23.9205 214.986 23.9205C210.696 23.9205 208.168 26.8003 207.052 30.7969H203.702C204.936 29.0925 205.994 26.5065 205.994 24.8021H199.646V54.0708Z" fill="white"/>
<path d="M250.4 46.5479C250.4 51.7199 254.161 54.9524 259.803 54.9524C264.564 54.9524 267.561 52.1313 268.796 47.9585H271.323C271.44 52.5427 272.557 54.0708 277.376 54.0708H280.433V48.4286H277.67C276.142 48.4286 275.907 48.1348 275.907 46.6655V34.8522C275.907 27.7407 271.499 23.9205 263.447 23.9205C255.513 23.9205 250.576 28.1521 249.988 32.56L256.512 34.2644C257.276 31.267 259.451 29.3863 263.447 29.3863C267.15 29.3863 268.796 30.9732 268.796 33.9706V34.9697C263.212 35.4987 258.746 36.6154 255.396 38.3785C252.045 40.0829 250.4 42.8452 250.4 46.5479ZM268.796 42.0224C268.796 47.0181 265.739 49.5453 262.096 49.5453C259.274 49.5453 257.688 48.1936 257.688 45.8427C257.688 42.0812 261.802 40.4356 268.796 39.6715V42.0224Z" fill="white"/>
<path d="M285.108 54.0708H292.278V40.6707C292.278 37.1443 292.513 34.0881 294.453 31.7372C295.452 30.503 296.98 29.9153 298.978 29.9153C302.328 29.9153 304.268 31.9723 304.268 36.2039V54.0708H311.438V34.7934C311.438 28.0346 307.97 23.9205 301.388 23.9205C296.568 23.9205 293.512 27.6231 292.219 31.5609H288.869C290.515 29.1512 291.69 26.5065 291.749 24.8021H285.108V54.0708Z" fill="white"/>
</svg>
