<svg id="图层_1" fill="#fff" data-name="图层 1" xmlns="http://www.w3.org/2000/svg" viewBox="0 0 294 121"><defs><style>.cls-1{fill-rule:evenodd;}</style></defs><path d="M103.09,73h4.77V51.4h9.07V47.29H94.17V51.4h8.92Z"/><path d="M114.12,68.28c0,3.23,2.35,5.25,5.88,5.25a5.58,5.58,0,0,0,5.61-4.37h1.58C127.26,72,128,73,131,73h1.91V69.45h-1.73c-1,0-1.1-.18-1.1-1.1V61c0-4.44-2.75-6.83-7.78-6.83s-8,2.64-8.4,5.4l4.07,1.06c.48-1.87,1.84-3,4.33-3,2.31,0,3.34,1,3.34,2.87v.62a22.81,22.81,0,0,0-8.37,2.13A5.35,5.35,0,0,0,114.12,68.28Zm11.49-2.83c0,3.12-1.91,4.7-4.18,4.7-1.76,0-2.76-.84-2.76-2.31,0-2.35,2.57-3.38,6.94-3.85Z"/><path d="M135.8,73h4.47V47.29H135.8Z"/><path d="M145.58,51.8h4.77V47.25h-4.77ZM145.76,73h4.44V54.7h-4.44Z"/><path d="M154,68.28c.81,3.23,4.26,5.21,8.37,5.21,5,0,8.07-2.31,8.07-5.87a4.45,4.45,0,0,0-1.84-3.85,10.82,10.82,0,0,0-4.4-1.84l-2.38-.44c-2.21-.44-2.79-1-2.79-2.05,0-1.22,1.06-2.06,3-2.06a4.08,4.08,0,0,1,4,2.79l3.78-1.61c-.85-2.24-3.27-4.41-7.64-4.41s-7.41,2.31-7.41,5.69,2.2,4.73,5.91,5.5l2.42.44c2.06.41,2.72,1.14,2.72,2.28s-1.18,2.09-3.27,2.09c-2.9,0-4.07-1.61-4.4-3.23Z"/><path d="M174.43,73h4.48V64c0-2.06.14-3.74,1.28-5.06a3.08,3.08,0,0,1,2.53-1c2.2,0,3.3,1.33,3.3,3.93V73h4.41V64c0-2.09.11-3.74,1.25-5.06a3.15,3.15,0,0,1,2.56-1c2.1,0,3.31,1.25,3.31,3.93V73H202V61.05c0-4.44-2.57-6.9-6.09-6.9a5.63,5.63,0,0,0-5.29,4.29H189a5,5,0,0,0-5-4.29c-2.68,0-4.26,1.8-5,4.29H177a7.51,7.51,0,0,0,1.43-3.74h-4Z"/><path d="M206.12,68.28c0,3.23,2.35,5.25,5.87,5.25a5.58,5.58,0,0,0,5.61-4.37h1.58C219.26,72,220,73,223,73h1.91V69.45h-1.72c-1,0-1.11-.18-1.11-1.1V61c0-4.44-2.75-6.83-7.78-6.83s-8,2.64-8.4,5.4l4.07,1.06c.48-1.87,1.84-3,4.33-3,2.32,0,3.34,1,3.34,2.87v.62a22.75,22.75,0,0,0-8.36,2.13A5.35,5.35,0,0,0,206.12,68.28Zm11.48-2.83c0,3.12-1.9,4.7-4.18,4.7-1.76,0-2.75-.84-2.75-2.31,0-2.35,2.57-3.38,6.93-3.85Z"/><path d="M227.79,73h4.48V64.61c0-2.2.14-4.11,1.35-5.58a3.44,3.44,0,0,1,2.83-1.14c2.09,0,3.3,1.29,3.3,3.93V73h4.48v-12c0-4.22-2.16-6.79-6.28-6.79-3,0-4.91,2.31-5.72,4.77h-2.09a9.45,9.45,0,0,0,1.8-4.22h-4.15Z"/><path class="cls-1" d="M83.24,63.27a1.36,1.36,0,0,1-2.15-.48,1.31,1.31,0,0,1-.11-.52V48a3.13,3.13,0,1,0-6.25,0v7.22a.94.94,0,0,1-1.23.86.91.91,0,0,1-.65-.85V43.63a3.13,3.13,0,1,0-6.25,0v11.6a.91.91,0,0,1-.64.85.93.93,0,0,1-1.23-.86V48a3.13,3.13,0,1,0-6.25,0V62.28a1.11,1.11,0,0,1-.12.5,1.32,1.32,0,0,1-2.09.47L55.1,62.08a3.12,3.12,0,1,0-4.41,4.42l9.18,9.19a12.5,12.5,0,0,0,19.42.36l9.55-9.55a3.13,3.13,0,0,0-4.42-4.42ZM69.73,75.5c5.52,0,10-6.25,10-6.25S75.25,63,69.73,63s-10,6.25-10,6.25S64.2,75.5,69.73,75.5Z"/><path d="M73.48,69.25a3.75,3.75,0,1,1-3.75-3.75A3.75,3.75,0,0,1,73.48,69.25Z"/></svg>