<svg id="图层_1"  fill="#fff" data-name="图层 1" xmlns="http://www.w3.org/2000/svg" viewBox="0 0 294 121"><path d="M99.3,41.16V56.34l-44.61,18Z"/><path d="M90.94,40.5V66.7a13.72,13.72,0,0,1-4.09,9.76,14,14,0,0,1-19.71,0,13.71,13.71,0,0,1-4.08-9.76v-11l8.36-4.56V66.7a4.77,4.77,0,0,0,.2,2,4.95,4.95,0,0,0,6.69,3A4.91,4.91,0,0,0,80,70.49a5,5,0,0,0,1-1.77,4.77,4.77,0,0,0,.2-2V45.79Z"/><path d="M119.65,47.2V54c0,2.27-1.3,3.47-2.93,3.47-1.33,0-2.36-.76-2.36-2.84V47.2h-2.43v7.58c0,2.91,1.57,4.78,4.15,4.78a4,4,0,0,0,3.57-2.08h0v1.73h2.39v-12Z"/><path d="M130.25,46.85a4.19,4.19,0,0,0-3.7,2.08h0V47.2h-2.38v12h2.42V52.44c0-2.27,1.35-3.47,3-3.47,1.4,0,2.5.76,2.5,2.84v7.4h2.42v-7.6C134.52,48.72,132.92,46.85,130.25,46.85Z"/><path d="M141.74,51.94h-.47c-2.1,0-2.51-.37-2.51-1.31s.84-1.71,2.4-1.71a2.45,2.45,0,0,1,.89.11,2.15,2.15,0,0,1,1.27,1.19,2.14,2.14,0,0,1,.16.87H146a4.52,4.52,0,0,0-4.86-4.24c-3.28,0-4.91,1.92-4.91,3.78,0,2.16,1.81,3.4,4.08,3.4H141c2.11,0,2.74.49,2.74,1.64s-1.06,1.82-2.65,1.82a2.48,2.48,0,0,1-1.74-.61,2.38,2.38,0,0,1-.81-1.65H136a4.73,4.73,0,0,0,5.05,4.33c3.4,0,5.16-1.94,5.16-3.89C146.25,53.44,144.47,51.94,141.74,51.94Z"/><path d="M153.88,49.3V47.21h-3.3V45.54h-2.42V47.2h-2v2.08h2V56c0,2.25,1.2,3.21,3.45,3.21h2.27V57.12h-2a1.22,1.22,0,0,1-.5-.08,1.19,1.19,0,0,1-.42-.28,1.29,1.29,0,0,1-.26-.42,1.38,1.38,0,0,1-.06-.49V49.3Z"/><path d="M160.72,46.85c-3.41,0-6.09,2.27-6.09,6.36s2.68,6.35,6.09,6.35,6.09-2.29,6.09-6.35S164.11,46.85,160.72,46.85Zm0,10.64c-2,0-3.58-1.39-3.58-4.28s1.59-4.31,3.58-4.29,3.57,1.35,3.57,4.29S162.7,57.46,160.72,57.49Z"/><path d="M175,46.85a4.74,4.74,0,0,0-2.37.56,4.79,4.79,0,0,0-1.79,1.64h-.05c0-.48,0-.83,0-1.26V47.2h-2.43V61.34h2.43V58.69c0-.46,0-.83,0-1.34h0A4.61,4.61,0,0,0,172.63,59a4.69,4.69,0,0,0,2.39.54c3,0,5.61-2.25,5.61-6.42S178,46.85,175,46.85Zm-.62,10.64c-2.25,0-3.56-1.92-3.56-4.37S172.15,49,174.4,49s3.66,1.69,3.66,4.21-1.45,4.35-3.65,4.33Z"/><path d="M188.87,46.85a4.79,4.79,0,0,0-4.15,2.2h0c0-.48,0-.83,0-1.26V47.2h-2.43V61.34h2.43V58.69c0-.46,0-.83,0-1.34h0A4.66,4.66,0,0,0,186.49,59a4.78,4.78,0,0,0,2.38.54c3,0,5.58-2.25,5.58-6.42S191.85,46.85,188.87,46.85Zm-.62,10.64c-2.25,0-3.55-1.92-3.55-4.37S186,49,188.25,49s3.67,1.69,3.67,4.21S190.45,57.51,188.25,57.49Z"/><path d="M206.94,57.12c-.33,0-.49-.2-.49-.59V51.24c0-2.54-1.23-4.39-4.87-4.39s-5.15,1.74-5.32,4.24h2.43c.15-1.39,1.23-2.17,2.89-2.17,1.4,0,2.38.62,2.38,1.58,0,.78-.55,1.26-2.36,1.26h-1c-2.89,0-4.83,1.16-4.83,3.81s2,4,4.45,4a3.84,3.84,0,0,0,3.91-2.46,2.15,2.15,0,0,0,2.43,2.08H208V57.14ZM204,53.64c0,2.71-1.48,3.89-3.38,3.89-1.66,0-2.31-1-2.31-1.94s.56-1.71,2.33-1.71H201c1.7,0,2.76-.59,3-1.62Z"/><path d="M216.05,46.85a4.79,4.79,0,0,0-4.15,2.2h-.05a10.62,10.62,0,0,0,.05-1.26V43.36h-2.42V59.22h2.42v-.53a12,12,0,0,0-.05-1.34h.05A4.63,4.63,0,0,0,213.67,59a4.69,4.69,0,0,0,2.38.55c3,0,5.61-2.25,5.61-6.42S219,46.85,216.05,46.85Zm-.62,10.64c-2.25,0-3.55-1.92-3.55-4.37s1.3-4.17,3.55-4.17,3.66,1.69,3.66,4.21S217.64,57.51,215.43,57.49Z"/><path d="M223.18,43.36V59.22h2.43V43.36Z"/><path d="M239.31,52.12c0-3-2.43-5.27-5.74-5.27-3.51,0-6,2.38-6,6.36,0,3.82,2.4,6.35,6,6.35,2.93,0,5.12-1.7,5.61-4h-2.64A3.06,3.06,0,0,1,235.37,57a3.16,3.16,0,0,1-1.82.51c-1.81,0-3.13-1.29-3.42-3.43h9.16Zm-9.12-.21a3.4,3.4,0,0,1,1.12-2.13,3.45,3.45,0,0,1,2.27-.86,3.3,3.3,0,0,1,2.24.86,3.2,3.2,0,0,1,1.05,2.13Z"/><path d="M121.52,61.34V65.7c0,.46,0,.83,0,1.33h0a4.6,4.6,0,0,0-1.77-1.65,4.69,4.69,0,0,0-2.38-.55c-3,0-5.61,2.2-5.61,6.25s2.58,6.47,5.61,6.47a4.88,4.88,0,0,0,2.37-.57,4.75,4.75,0,0,0,1.78-1.64h0c0,.49,0,.83,0,1.27v.59H124V61.34ZM118,75.46c-2.23,0-3.69-1.77-3.69-4.39s1.46-4.16,3.69-4.16,3.51,1.84,3.51,4.16-1.31,4.4-3.53,4.42Z"/><path d="M132,64.85c-3.4,0-6.09,2.28-6.09,6.36s2.69,6.36,6.09,6.36,6.09-2.29,6.09-6.36S135.42,64.85,132,64.85Zm0,10.64c-2,0-3.58-1.39-3.58-4.28S130,66.9,132,66.93s3.57,1.38,3.57,4.28S134,75.47,132,75.49Z"/><path d="M153.53,64.86A4.14,4.14,0,0,0,149.76,67h-.07l.07.57a3.69,3.69,0,0,0-1.4-2,3.79,3.79,0,0,0-2.35-.71,4,4,0,0,0-2,.59A4,4,0,0,0,142.54,67h0V65.2h-2.38v12h2.42V70.45c0-2.27,1.3-3.47,2.85-3.47,1.3,0,2.23.84,2.23,2.84v7.4H150V70.43c0-2.27,1.35-3.43,2.89-3.43,1.31,0,2.21.84,2.21,2.84v7.38h2.43V69.64C157.57,66.73,156,64.86,153.53,64.86Z"/><path d="M170.7,75.12c-.33,0-.48-.2-.48-.59V69.25c0-2.54-1.25-4.4-4.92-4.4-3.5,0-5.13,1.75-5.31,4.24h2.43c.16-1.35,1.24-2.16,2.88-2.16,1.41,0,2.39.61,2.39,1.57,0,.79-.55,1.27-2.36,1.27h-1c-2.89,0-4.83,1.16-4.83,3.8s2.05,4,4.45,4a3.84,3.84,0,0,0,3.91-2.47,2.15,2.15,0,0,0,2.42,2.09h1.37V75.14Zm-2.91-3.47c0,2.71-1.48,3.88-3.38,3.88-1.65,0-2.32-1-2.32-1.94s.58-1.7,2.34-1.7h.35c1.7,0,2.76-.6,3-1.62Z"/><path d="M173.19,65.2v12h2.43v-12Z"/><path d="M184.44,64.86a4.15,4.15,0,0,0-3.68,2.08h0V65.2h-2.38v12h2.43V70.45c0-2.27,1.35-3.48,3-3.48,1.41,0,2.5.77,2.5,2.85v7.4h2.42V69.63C188.72,66.73,187.09,64.86,184.44,64.86Z"/><path d="M196.38,69.94h-.47c-2.1,0-2.51-.37-2.51-1.3s.84-1.74,2.41-1.74a2.13,2.13,0,0,1,1.64.57,2.29,2.29,0,0,1,.51.73,2.14,2.14,0,0,1,.16.87h2.54a4.52,4.52,0,0,0-4.85-4.24c-3.29,0-4.91,1.92-4.91,3.78,0,2.16,1.81,3.4,4.08,3.4h.66c2.1,0,2.74.48,2.74,1.64s-1.06,1.81-2.65,1.81a2.41,2.41,0,0,1-2.52-2.25h-2.53a4.73,4.73,0,0,0,5,4.33c3.4,0,5.17-1.94,5.17-3.89C200.88,71.45,199.11,69.94,196.38,69.94Z"/></svg>