<svg id="图层_1" data-name="图层 1" xmlns="http://www.w3.org/2000/svg" viewBox="0 0 294 121"><defs><style>path{fill:#fff}</style></defs><path fill="#fff" d="M89.76,37.29V55.51L36.23,77.05Z"/><path d="M79.72,36.5V67.94a16.48,16.48,0,0,1-4.9,11.71,16.84,16.84,0,0,1-23.65,0,16.48,16.48,0,0,1-4.9-11.71V54.69l10-5.47V67.94a5.84,5.84,0,0,0,.24,2.42,5.77,5.77,0,0,0,1.22,2.12,5.68,5.68,0,0,0,2,1.44,5.95,5.95,0,0,0,4.82,0,5.74,5.74,0,0,0,2-1.44,5.63,5.63,0,0,0,1.22-2.12A5.53,5.53,0,0,0,68,67.94V42.84Z"/><path d="M114.18,44.54v8.12c0,2.73-1.56,4.17-3.52,4.17-1.59,0-2.83-.91-2.83-3.41V44.54h-2.92v9.09c0,3.49,1.89,5.74,5,5.74a4.74,4.74,0,0,0,2.49-.66,4.66,4.66,0,0,0,1.79-1.84h0V59h2.87V44.54Z"/><path d="M126.89,44.12a5,5,0,0,0-2.56.65,4.93,4.93,0,0,0-1.86,1.85h0V44.54h-2.87V59h2.92V50.83c0-2.73,1.61-4.17,3.65-4.17,1.68,0,3,.92,3,3.41V59H132V49.84C132,46.37,130.1,44.12,126.89,44.12Z"/><path d="M140.68,50.22h-.55c-2.53,0-3-.44-3-1.56s1-2.06,2.88-2.06a2.77,2.77,0,0,1,1.07.14,2.64,2.64,0,0,1,.91.55,2.74,2.74,0,0,1,.61.87,2.52,2.52,0,0,1,.2,1.05h3c-.21-2.91-2.38-5.09-5.83-5.09-3.94,0-5.89,2.3-5.89,4.54,0,2.59,2.17,4.08,4.9,4.08h.79c2.53,0,3.29.58,3.29,2,0,1.23-1.28,2.17-3.18,2.17a2.94,2.94,0,0,1-2.09-.72,2.88,2.88,0,0,1-1-2h-3c.18,3,2.67,5.2,6.06,5.2,4.07,0,6.2-2.34,6.2-4.67C146.1,52,144,50.22,140.68,50.22Z"/><path d="M155.25,47.05v-2.5H151.3v-2h-2.9v2H146V47h2.39v8c0,2.7,1.43,3.86,4.13,3.86h2.73v-2.5h-2.47a1.49,1.49,0,0,1-.59-.09,1.56,1.56,0,0,1-.5-.33,1.52,1.52,0,0,1-.32-.51,1.32,1.32,0,0,1-.07-.59V47.05Z"/><path d="M163.46,44.12c-4.08,0-7.31,2.73-7.31,7.63s3.23,7.63,7.31,7.63,7.31-2.76,7.31-7.63S167.53,44.12,163.46,44.12Zm0,12.76c-2.38,0-4.29-1.66-4.29-5.13s1.91-5.17,4.29-5.15,4.28,1.63,4.28,5.15S165.84,56.86,163.46,56.88Z"/><path d="M180.62,44.12a5.83,5.83,0,0,0-2.84.67,5.66,5.66,0,0,0-2.15,2h-.06c.05-.57.05-1,.05-1.52v-.7H172.7v17h2.92V58.32c0-.55,0-1-.05-1.6h.05a5.46,5.46,0,0,0,2.13,2,5.61,5.61,0,0,0,2.87.65c3.57,0,6.73-2.7,6.73-7.71S184.2,44.12,180.62,44.12Zm-.74,12.76c-2.71,0-4.27-2.3-4.27-5.24,0-2.78,1.56-5,4.27-5s4.39,2,4.39,5.06-1.74,5.21-4.38,5.18Z"/><path d="M197.25,44.12a5.89,5.89,0,0,0-2.85.67,5.71,5.71,0,0,0-2.14,2h0c0-.57,0-1,0-1.52v-.7h-2.91v17h2.91V58.32c0-.55,0-1,0-1.6h0a5.61,5.61,0,0,0,2.13,2,5.67,5.67,0,0,0,2.86.65c3.57,0,6.69-2.7,6.69-7.71S200.82,44.12,197.25,44.12Zm-.74,12.76c-2.71,0-4.27-2.3-4.27-5.24,0-2.78,1.56-5,4.27-5s4.39,2,4.39,5.06S199.14,56.91,196.51,56.88Z"/><path d="M218.92,56.44c-.39,0-.58-.24-.58-.71V49.39c0-3-1.48-5.27-5.85-5.27-4.21,0-6.17,2.09-6.38,5.09H209c.19-1.67,1.49-2.61,3.47-2.61,1.69,0,2.86.75,2.86,1.9,0,.94-.66,1.51-2.83,1.51h-1.16c-3.47,0-5.8,1.4-5.8,4.57,0,3.34,2.45,4.85,5.34,4.85a4.62,4.62,0,0,0,4.69-3A2.59,2.59,0,0,0,218.5,59h1.69v-2.5Zm-3.49-4.17c0,3.25-1.78,4.66-4.05,4.66-2,0-2.78-1.15-2.78-2.32s.69-2,2.81-2h.42c2,0,3.31-.71,3.58-2Z"/><path d="M229.86,44.12a5.83,5.83,0,0,0-2.84.67,5.71,5.71,0,0,0-2.14,2h0c0-.5.06-1,0-1.51V39.94H222V59h2.91v-.64c0-.53,0-1.06,0-1.6h0a5.61,5.61,0,0,0,2.13,2,5.75,5.75,0,0,0,2.85.66c3.58,0,6.74-2.71,6.74-7.72S233.44,44.12,229.86,44.12Zm-.74,12.76c-2.7,0-4.26-2.3-4.26-5.24,0-2.78,1.56-5,4.26-5s4.39,2,4.39,5.06S231.76,56.91,229.12,56.88Z"/><path d="M238.41,39.94V59h2.92v-19Z"/><path d="M257.77,50.44c0-3.62-2.91-6.32-6.89-6.32-4.21,0-7.17,2.85-7.17,7.63,0,4.58,2.88,7.63,7.17,7.63,3.52,0,6.15-2.05,6.74-4.86h-3.18a3.64,3.64,0,0,1-3.57,2.36c-2.18,0-3.77-1.54-4.11-4.11h11Zm-10.95-.24a4.06,4.06,0,0,1,1.35-2.56,4.14,4.14,0,0,1,2.73-1,4.05,4.05,0,0,1,2.69,1,3.93,3.93,0,0,1,1.26,2.57Z"/><path d="M116.42,61.51v5.23c0,.55,0,1,0,1.6h0a5.55,5.55,0,0,0-2.12-2,5.77,5.77,0,0,0-2.85-.66c-3.61,0-6.74,2.65-6.74,7.51s3.1,7.76,6.74,7.76a5.87,5.87,0,0,0,2.84-.68,5.76,5.76,0,0,0,2.13-2h0c0,.58,0,1,0,1.52v.71h2.92v-19Zm-4.21,16.95c-2.67,0-4.43-2.13-4.43-5.27s1.76-5,4.43-5,4.21,2.21,4.21,5c0,2.94-1.56,5.28-4.23,5.3Z"/><path d="M129,65.73c-4.09,0-7.31,2.72-7.31,7.62S124.94,81,129,81s7.3-2.75,7.3-7.63S133.1,65.73,129,65.73Zm0,12.76c-2.39,0-4.3-1.67-4.3-5.14s1.91-5.16,4.3-5.14,4.28,1.67,4.28,5.14S131.41,78.46,129,78.49Z"/><path d="M154.84,65.73a5,5,0,0,0-4.53,2.59h-.08l.08.69a4.46,4.46,0,0,0-4.5-3.25,4.74,4.74,0,0,0-4.16,2.57h-.05V66.14h-2.86V80.57h2.91V72.44c0-2.73,1.56-4.17,3.42-4.17,1.56,0,2.67,1,2.67,3.41v8.89h2.91V72.41c0-2.72,1.62-4.11,3.47-4.11,1.57,0,2.65,1,2.65,3.41v8.86h2.92V71.46C159.69,68,157.8,65.73,154.84,65.73Z"/><path d="M175.44,78.05c-.4,0-.58-.24-.58-.71V71c0-3-1.49-5.26-5.89-5.26-4.21,0-6.17,2.09-6.38,5.08h2.91c.19-1.62,1.49-2.6,3.47-2.6,1.68,0,2.86.73,2.86,1.89,0,.94-.66,1.52-2.83,1.52h-1.17c-3.47,0-5.79,1.39-5.79,4.56,0,3.33,2.45,4.85,5.34,4.85a4.58,4.58,0,0,0,4.68-3,2.59,2.59,0,0,0,2.92,2.5h1.64v-2.5ZM172,73.88c0,3.25-1.78,4.66-4.06,4.66-2,0-2.78-1.15-2.78-2.34s.69-2,2.81-2h.42c2,0,3.31-.71,3.57-1.94Z"/><path d="M178.43,66.14V80.57h2.91V66.14Z"/><path d="M191.93,65.73a5,5,0,0,0-4.42,2.5h-.06V66.14H184.6V80.57h2.91V72.44c0-2.73,1.62-4.17,3.65-4.17,1.69,0,3,.92,3,3.41v8.89h2.92V71.46C197.07,68,195.11,65.73,191.93,65.73Z"/><path d="M206.25,71.83h-.55c-2.53,0-3-.44-3-1.57s1-2.08,2.89-2.08a2.55,2.55,0,0,1,1.06.14,2.5,2.5,0,0,1,.91.55,2.54,2.54,0,0,1,.61.87,2.47,2.47,0,0,1,.2,1h3c-.21-2.91-2.39-5.09-5.82-5.09-3.95,0-5.89,2.31-5.89,4.54,0,2.59,2.17,4.08,4.9,4.08h.79c2.52,0,3.28.58,3.28,2,0,1.24-1.27,2.18-3.17,2.18a3,3,0,0,1-2.07-.74,2.92,2.92,0,0,1-1-2h-3c.18,3,2.66,5.19,6.06,5.19,4.07,0,6.19-2.33,6.19-4.67C211.66,73.64,209.54,71.83,206.25,71.83Z"/></svg>