<svg xmlns="http://www.w3.org/2000/svg" viewBox="0 0 62 60" class="design-iconfont">
  <defs>
    <linearGradient x1="93.2678032%" y1="77.0003133%" x2="7.64328258%" y2="25.6394658%" id="iuyqe00kf__9ol4dpn7ea">
      <stop stop-color="#030222" stop-opacity="0" offset="0%"/>
      <stop stop-color="#AEABFC" offset="100%"/>
    </linearGradient>
    <linearGradient x1="50%" y1="2.47398349%" x2="50%" y2="100%" id="iuyqe00kf__w359jggp3b">
      <stop stop-color="#20D4A9" offset="0%"/>
      <stop stop-color="#A428D0" offset="100%"/>
    </linearGradient>
  </defs>
  <g fill="none" fill-rule="evenodd">
    <path d="M37.4807621,3.46410162 L51.4615242,11.5358984 C55.1743371,13.6794919 57.4615242,17.6410162 57.4615242,21.9282032 L57.4615242,38.0717968 C57.4615242,42.3589838 55.1743371,46.3205081 51.4615242,48.4641016 L37.4807621,56.5358984 C33.7679492,58.6794919 29.193575,58.6794919 25.4807621,56.5358984 L11.5,48.4641016 C7.78718708,46.3205081 5.5,42.3589838 5.5,38.0717968 L5.5,21.9282032 C5.5,17.6410162 7.78718708,13.6794919 11.5,11.5358984 L25.4807621,3.46410162 C29.193575,1.32050808 33.7679492,1.32050808 37.4807621,3.46410162 Z" fill="url(#iuyqe00kf__9ol4dpn7ea)"/>
    <path stroke="#FFF" stroke-width="6" d="M10 3A7 7 0 1 0 10 17A7 7 0 1 0 10 3Z" transform="rotate(-60 19.74038135 11.39711462)"/>
    <path d="M10,24 C14.2236265,24 17.7269793,27.2685018 18.019582,31.4819807 L19.307224,50.0240258 C19.664185,55.1642637 15.7865729,59.6206238 10.646335,59.9775848 C10.4312138,59.9925238 10.2156393,60 10,60 C4.84738254,60 0.670360791,55.8229782 0.670360791,50.6703608 C0.670360791,50.4547215 0.677837014,50.239147 0.692775987,50.0240258 L1.98041801,31.4819807 C2.27302071,27.2685018 5.77637352,24 10,24 Z" fill="url(#iuyqe00kf__w359jggp3b)" transform="rotate(-60 19.74038135 11.39711462)"/>
  </g>
</svg>
