<svg xmlns="http://www.w3.org/2000/svg" viewBox="0 0 60 60" class="design-iconfont">
  <defs>
    <linearGradient x1="86.9397148%" y1="95.9201389%" x2="25.8052272%" y2="12.490086%" id="hjkstc42c__vfxmqjvk5a">
      <stop stop-color="#030222" stop-opacity="0" offset="0%"/>
      <stop stop-color="#AEABFC" offset="100%"/>
    </linearGradient>
    <linearGradient x1="17.5351415%" y1="17.4166982%" x2="79.0883702%" y2="92.8930023%" id="hjkstc42c__f83m4vvqsb">
      <stop stop-color="#20D4A9" offset="0%"/>
      <stop stop-color="#A428D0" offset="100%"/>
    </linearGradient>
  </defs>
  <g fill="none" fill-rule="evenodd">
    <path d="M23,0 L25,0 C37.7025492,-2.33342044e-15 48,10.2974508 48,23 L48,38 C48,42.418278 44.418278,46 40,46 L20,46 C8.954305,46 1.3527075e-15,37.045695 0,26 L0,23 C-1.55561363e-15,10.2974508 10.2974508,2.33342044e-15 23,0 Z" fill="url(#hjkstc42c__vfxmqjvk5a)"/>
    <path d="M18,0 C27.9411255,-1.82615513e-15 36,8.0588745 36,18 L36,30 C36,34.418278 32.418278,38 28,38 L8,38 C3.581722,38 5.41083001e-16,34.418278 0,30 L0,18 C-1.21743675e-15,8.0588745 8.0588745,1.82615513e-15 18,0 Z" fill="url(#hjkstc42c__f83m4vvqsb)" transform="translate(24 22)"/>
    <g transform="rotate(45 -17.74873734 66.83452378)">
      <rect fill="#FFF" x="5" y="1" width="6" height="18" rx="3"/>
      <path d="M0,2.96300328 C5.16199271,1.05112811 10.8380073,1.05112811 16,2.96300328 L16,2.96300328 L16,2.96300328" stroke="#FFF" stroke-width="6" stroke-linecap="round"/>
    </g>
  </g>
</svg>
